<svg xmlns="http://www.w3.org/2000/svg" xmlns:xlink="http://www.w3.org/1999/xlink" width="700" zoomAndPan="magnify" viewBox="0 0 525 30.000001" height="40" preserveAspectRatio="xMidYMid meet" version="1.0"><defs><g/><clipPath id="277ba5f283"><path d="M 8.46875 0 L 516.53125 0 L 516.53125 29 L 8.46875 29 Z M 8.46875 0 " clip-rule="nonzero"/></clipPath><clipPath id="8cd0129389"><path d="M 9.917969 0 L 515.082031 0 C 515.882812 0 516.53125 0.648438 516.53125 1.453125 L 516.53125 27.582031 C 516.53125 28.382812 515.882812 29.03125 515.082031 29.03125 L 9.917969 29.03125 C 9.117188 29.03125 8.46875 28.382812 8.46875 27.582031 L 8.46875 1.453125 C 8.46875 0.648438 9.117188 0 9.917969 0 " clip-rule="nonzero"/></clipPath></defs><g clip-path="url(#277ba5f283)"><g clip-path="url(#8cd0129389)"><path fill="#000000" d="M 8.46875 0 L 516.488281 0 L 516.488281 28.988281 L 8.46875 28.988281 Z M 8.46875 0 " fill-opacity="1" fill-rule="nonzero"/></g></g><g fill="#ffffff" fill-opacity="1"><g transform="translate(18.272921, 18.362724)"><g><path d="M 0.828125 -8.265625 L 2.25 -8.265625 L 2.25 -6.265625 C 2.25 -6.160156 2.242188 -6.039062 2.234375 -5.90625 C 2.234375 -5.78125 2.234375 -5.660156 2.234375 -5.546875 C 2.210938 -5.410156 2.195312 -5.273438 2.1875 -5.140625 L 2.296875 -5.140625 C 2.367188 -5.515625 2.550781 -5.804688 2.84375 -6.015625 C 3.132812 -6.222656 3.503906 -6.328125 3.953125 -6.328125 C 4.285156 -6.328125 4.582031 -6.269531 4.84375 -6.15625 C 5.101562 -6.050781 5.328125 -5.890625 5.515625 -5.671875 C 5.703125 -5.460938 5.84375 -5.207031 5.9375 -4.90625 C 6.039062 -4.613281 6.09375 -4.28125 6.09375 -3.90625 L 6.09375 -2.359375 C 6.09375 -1.972656 6.039062 -1.628906 5.9375 -1.328125 C 5.84375 -1.023438 5.703125 -0.765625 5.515625 -0.546875 C 5.328125 -0.328125 5.101562 -0.160156 4.84375 -0.046875 C 4.582031 0.0546875 4.285156 0.109375 3.953125 0.109375 C 3.503906 0.109375 3.132812 0.00390625 2.84375 -0.203125 C 2.550781 -0.410156 2.367188 -0.707031 2.296875 -1.09375 L 2.1875 -1.09375 L 2.1875 0 L 0.828125 0 Z M 2.25 -2.359375 C 2.25 -1.984375 2.351562 -1.679688 2.5625 -1.453125 C 2.78125 -1.234375 3.078125 -1.125 3.453125 -1.125 C 3.835938 -1.125 4.140625 -1.238281 4.359375 -1.46875 C 4.578125 -1.695312 4.6875 -2.003906 4.6875 -2.390625 L 4.6875 -3.875 C 4.6875 -4.257812 4.578125 -4.5625 4.359375 -4.78125 C 4.140625 -5 3.835938 -5.109375 3.453125 -5.109375 C 3.085938 -5.109375 2.796875 -4.992188 2.578125 -4.765625 C 2.359375 -4.546875 2.25 -4.25 2.25 -3.875 Z M 2.25 -2.359375 "/></g></g></g><g fill="#ffffff" fill-opacity="1"><g transform="translate(25.056901, 18.362724)"><g><path d="M 3.75 -8.265625 L 3.75 -2.015625 C 3.75 -1.773438 3.8125 -1.59375 3.9375 -1.46875 C 4.070312 -1.34375 4.25 -1.28125 4.46875 -1.28125 L 6.328125 -1.28125 L 6.328125 0 L 4.359375 0 C 3.734375 0 3.238281 -0.175781 2.875 -0.53125 C 2.507812 -0.882812 2.328125 -1.378906 2.328125 -2.015625 L 2.328125 -6.984375 L 0.34375 -6.984375 L 0.34375 -8.265625 Z M 3.75 -8.265625 "/></g></g></g><g fill="#ffffff" fill-opacity="1"><g transform="translate(31.840881, 18.362724)"><g><path d="M 3.390625 0.109375 C 2.984375 0.109375 2.613281 0.0507812 2.28125 -0.0625 C 1.945312 -0.175781 1.660156 -0.335938 1.421875 -0.546875 C 1.191406 -0.765625 1.007812 -1.023438 0.875 -1.328125 C 0.75 -1.628906 0.6875 -1.960938 0.6875 -2.328125 L 0.6875 -3.90625 C 0.6875 -4.269531 0.75 -4.601562 0.875 -4.90625 C 1.007812 -5.207031 1.191406 -5.460938 1.421875 -5.671875 C 1.660156 -5.890625 1.945312 -6.050781 2.28125 -6.15625 C 2.613281 -6.269531 2.984375 -6.328125 3.390625 -6.328125 C 3.796875 -6.328125 4.164062 -6.269531 4.5 -6.15625 C 4.832031 -6.039062 5.113281 -5.875 5.34375 -5.65625 C 5.582031 -5.445312 5.765625 -5.191406 5.890625 -4.890625 C 6.023438 -4.597656 6.09375 -4.265625 6.09375 -3.890625 L 6.09375 -2.765625 L 2.09375 -2.765625 L 2.09375 -2.359375 C 2.09375 -1.941406 2.207031 -1.613281 2.4375 -1.375 C 2.664062 -1.144531 2.984375 -1.03125 3.390625 -1.03125 C 3.703125 -1.03125 3.960938 -1.078125 4.171875 -1.171875 C 4.390625 -1.265625 4.546875 -1.398438 4.640625 -1.578125 L 6.03125 -1.578125 C 5.957031 -1.328125 5.84375 -1.09375 5.6875 -0.875 C 5.53125 -0.664062 5.335938 -0.488281 5.109375 -0.34375 C 4.878906 -0.195312 4.617188 -0.0820312 4.328125 0 C 4.035156 0.0703125 3.722656 0.109375 3.390625 0.109375 Z M 4.6875 -3.703125 L 4.6875 -3.890625 C 4.6875 -4.304688 4.570312 -4.628906 4.34375 -4.859375 C 4.125 -5.085938 3.804688 -5.203125 3.390625 -5.203125 C 2.984375 -5.203125 2.664062 -5.085938 2.4375 -4.859375 C 2.207031 -4.628906 2.09375 -4.3125 2.09375 -3.90625 L 2.09375 -3.703125 Z M 4.6875 -3.703125 "/></g></g></g><g fill="#ffffff" fill-opacity="1"><g transform="translate(38.624861, 18.362724)"><g><path d="M 0.8125 0 L 0.8125 -6.21875 L 2.15625 -6.21875 L 2.15625 -5.140625 L 2.265625 -5.140625 C 2.328125 -5.523438 2.5 -5.816406 2.78125 -6.015625 C 3.070312 -6.222656 3.445312 -6.328125 3.90625 -6.328125 C 4.53125 -6.328125 5.023438 -6.125 5.390625 -5.71875 C 5.765625 -5.3125 5.953125 -4.765625 5.953125 -4.078125 L 5.953125 0 L 4.53125 0 L 4.53125 -3.90625 C 4.53125 -4.28125 4.425781 -4.570312 4.21875 -4.78125 C 4.019531 -5 3.742188 -5.109375 3.390625 -5.109375 C 3.023438 -5.109375 2.738281 -5 2.53125 -4.78125 C 2.332031 -4.5625 2.234375 -4.257812 2.234375 -3.875 L 2.234375 0 Z M 0.8125 0 "/></g></g></g><g fill="#ffffff" fill-opacity="1"><g transform="translate(45.408841, 18.362724)"><g><path d="M 0.6875 -3.90625 C 0.6875 -4.28125 0.738281 -4.613281 0.84375 -4.90625 C 0.945312 -5.207031 1.09375 -5.460938 1.28125 -5.671875 C 1.46875 -5.890625 1.691406 -6.050781 1.953125 -6.15625 C 2.222656 -6.269531 2.515625 -6.328125 2.828125 -6.328125 C 3.273438 -6.328125 3.644531 -6.222656 3.9375 -6.015625 C 4.238281 -5.804688 4.421875 -5.515625 4.484375 -5.140625 L 4.609375 -5.140625 C 4.597656 -5.273438 4.585938 -5.40625 4.578125 -5.53125 C 4.566406 -5.644531 4.554688 -5.765625 4.546875 -5.890625 C 4.546875 -6.015625 4.546875 -6.125 4.546875 -6.21875 L 4.546875 -8.265625 L 5.96875 -8.265625 L 5.96875 0 L 4.609375 0 L 4.609375 -1.09375 L 4.484375 -1.09375 C 4.421875 -0.707031 4.238281 -0.410156 3.9375 -0.203125 C 3.644531 0.00390625 3.273438 0.109375 2.828125 0.109375 C 2.515625 0.109375 2.222656 0.0546875 1.953125 -0.046875 C 1.691406 -0.160156 1.46875 -0.328125 1.28125 -0.546875 C 1.09375 -0.765625 0.945312 -1.023438 0.84375 -1.328125 C 0.738281 -1.628906 0.6875 -1.972656 0.6875 -2.359375 Z M 3.34375 -1.125 C 3.707031 -1.125 4 -1.234375 4.21875 -1.453125 C 4.4375 -1.679688 4.546875 -1.984375 4.546875 -2.359375 L 4.546875 -3.875 C 4.546875 -4.25 4.429688 -4.546875 4.203125 -4.765625 C 3.984375 -4.992188 3.695312 -5.109375 3.34375 -5.109375 C 2.957031 -5.109375 2.65625 -5 2.4375 -4.78125 C 2.21875 -4.5625 2.109375 -4.257812 2.109375 -3.875 L 2.109375 -2.390625 C 2.109375 -2.003906 2.21875 -1.695312 2.4375 -1.46875 C 2.65625 -1.238281 2.957031 -1.125 3.34375 -1.125 Z M 3.34375 -1.125 "/></g></g></g><g fill="#ffffff" fill-opacity="1"><g transform="translate(52.192821, 18.362724)"><g/></g></g><g fill="#ffffff" fill-opacity="1"><g transform="translate(58.976801, 18.362724)"><g><path d="M 0.9375 -1.296875 L 3.171875 -1.296875 L 3.171875 -4.9375 L 1.21875 -4.9375 L 1.21875 -6.21875 L 4.53125 -6.21875 L 4.53125 -1.296875 L 6.328125 -1.296875 L 6.328125 0 L 0.9375 0 Z M 2.765625 -7.90625 C 2.765625 -8.125 2.835938 -8.300781 2.984375 -8.4375 C 3.128906 -8.582031 3.320312 -8.65625 3.5625 -8.65625 L 3.859375 -8.65625 C 4.097656 -8.65625 4.289062 -8.582031 4.4375 -8.4375 C 4.582031 -8.300781 4.65625 -8.125 4.65625 -7.90625 C 4.65625 -7.675781 4.578125 -7.492188 4.421875 -7.359375 C 4.273438 -7.222656 4.082031 -7.15625 3.84375 -7.15625 L 3.5625 -7.15625 C 3.320312 -7.15625 3.128906 -7.222656 2.984375 -7.359375 C 2.835938 -7.492188 2.765625 -7.675781 2.765625 -7.90625 Z M 2.765625 -7.90625 "/></g></g></g><g fill="#ffffff" fill-opacity="1"><g transform="translate(65.760781, 18.362724)"><g><path d="M 0.8125 0 L 0.8125 -6.21875 L 2.15625 -6.21875 L 2.15625 -5.140625 L 2.265625 -5.140625 C 2.328125 -5.523438 2.5 -5.816406 2.78125 -6.015625 C 3.070312 -6.222656 3.445312 -6.328125 3.90625 -6.328125 C 4.53125 -6.328125 5.023438 -6.125 5.390625 -5.71875 C 5.765625 -5.3125 5.953125 -4.765625 5.953125 -4.078125 L 5.953125 0 L 4.53125 0 L 4.53125 -3.90625 C 4.53125 -4.28125 4.425781 -4.570312 4.21875 -4.78125 C 4.019531 -5 3.742188 -5.109375 3.390625 -5.109375 C 3.023438 -5.109375 2.738281 -5 2.53125 -4.78125 C 2.332031 -4.5625 2.234375 -4.257812 2.234375 -3.875 L 2.234375 0 Z M 0.8125 0 "/></g></g></g><g fill="#ffffff" fill-opacity="1"><g transform="translate(72.544761, 18.362724)"><g><path d="M 3.15625 0.109375 C 2.425781 0.109375 1.84375 -0.0351562 1.40625 -0.328125 C 0.976562 -0.628906 0.726562 -1.050781 0.65625 -1.59375 L 2.109375 -1.59375 C 2.148438 -1.394531 2.265625 -1.238281 2.453125 -1.125 C 2.640625 -1.019531 2.875 -0.96875 3.15625 -0.96875 L 3.609375 -0.96875 C 3.960938 -0.96875 4.234375 -1.035156 4.421875 -1.171875 C 4.617188 -1.316406 4.71875 -1.507812 4.71875 -1.75 C 4.71875 -2.164062 4.394531 -2.421875 3.75 -2.515625 L 2.875 -2.609375 C 2.164062 -2.703125 1.640625 -2.898438 1.296875 -3.203125 C 0.960938 -3.503906 0.796875 -3.9375 0.796875 -4.5 C 0.796875 -5.09375 1 -5.546875 1.40625 -5.859375 C 1.820312 -6.171875 2.410156 -6.328125 3.171875 -6.328125 L 3.640625 -6.328125 C 4.328125 -6.328125 4.878906 -6.179688 5.296875 -5.890625 C 5.710938 -5.609375 5.960938 -5.207031 6.046875 -4.6875 L 4.59375 -4.6875 C 4.550781 -4.851562 4.445312 -4.988281 4.28125 -5.09375 C 4.113281 -5.195312 3.898438 -5.25 3.640625 -5.25 L 3.171875 -5.25 C 2.515625 -5.25 2.1875 -5.015625 2.1875 -4.546875 C 2.1875 -4.148438 2.460938 -3.914062 3.015625 -3.84375 L 3.9375 -3.71875 C 4.675781 -3.632812 5.222656 -3.429688 5.578125 -3.109375 C 5.929688 -2.796875 6.109375 -2.359375 6.109375 -1.796875 C 6.109375 -1.179688 5.890625 -0.707031 5.453125 -0.375 C 5.023438 -0.0507812 4.410156 0.109375 3.609375 0.109375 Z M 3.15625 0.109375 "/></g></g></g><g fill="#ffffff" fill-opacity="1"><g transform="translate(79.328741, 18.362724)"><g><path d="M 0.515625 -6.21875 L 2.234375 -6.21875 L 2.234375 -8.140625 L 3.640625 -8.140625 L 3.640625 -6.21875 L 6 -6.21875 L 6 -4.9375 L 3.640625 -4.9375 L 3.640625 -1.921875 C 3.640625 -1.722656 3.695312 -1.566406 3.8125 -1.453125 C 3.9375 -1.335938 4.101562 -1.28125 4.3125 -1.28125 L 5.890625 -1.28125 L 5.890625 0 L 4.203125 0 C 3.597656 0 3.117188 -0.171875 2.765625 -0.515625 C 2.410156 -0.867188 2.234375 -1.335938 2.234375 -1.921875 L 2.234375 -4.9375 L 0.515625 -4.9375 Z M 0.515625 -6.21875 "/></g></g></g><g fill="#ffffff" fill-opacity="1"><g transform="translate(86.112721, 18.362724)"><g><path d="M 0.578125 -1.734375 C 0.578125 -2.046875 0.632812 -2.320312 0.75 -2.5625 C 0.863281 -2.8125 1.023438 -3.023438 1.234375 -3.203125 C 1.441406 -3.378906 1.691406 -3.515625 1.984375 -3.609375 C 2.285156 -3.703125 2.625 -3.75 3 -3.75 L 4.5625 -3.75 L 4.5625 -4.28125 C 4.5625 -4.5625 4.453125 -4.785156 4.234375 -4.953125 C 4.023438 -5.128906 3.726562 -5.21875 3.34375 -5.21875 C 3.039062 -5.21875 2.78125 -5.160156 2.5625 -5.046875 C 2.351562 -4.929688 2.21875 -4.773438 2.15625 -4.578125 L 0.765625 -4.578125 C 0.867188 -5.117188 1.148438 -5.546875 1.609375 -5.859375 C 2.066406 -6.171875 2.644531 -6.328125 3.34375 -6.328125 C 3.75 -6.328125 4.113281 -6.28125 4.4375 -6.1875 C 4.757812 -6.09375 5.03125 -5.957031 5.25 -5.78125 C 5.476562 -5.601562 5.65625 -5.390625 5.78125 -5.140625 C 5.90625 -4.890625 5.96875 -4.609375 5.96875 -4.296875 L 5.96875 0 L 4.640625 0 L 4.640625 -1.21875 L 4.546875 -1.21875 C 4.472656 -0.8125 4.257812 -0.488281 3.90625 -0.25 C 3.550781 -0.0078125 3.117188 0.109375 2.609375 0.109375 C 1.984375 0.109375 1.488281 -0.0546875 1.125 -0.390625 C 0.757812 -0.722656 0.578125 -1.171875 0.578125 -1.734375 Z M 3.09375 -1 C 3.519531 -1 3.867188 -1.101562 4.140625 -1.3125 C 4.421875 -1.519531 4.5625 -1.78125 4.5625 -2.09375 L 4.5625 -2.8125 L 3.015625 -2.8125 C 2.691406 -2.8125 2.4375 -2.734375 2.25 -2.578125 C 2.070312 -2.421875 1.984375 -2.195312 1.984375 -1.90625 C 1.984375 -1.625 2.078125 -1.398438 2.265625 -1.234375 C 2.460938 -1.078125 2.738281 -1 3.09375 -1 Z M 3.09375 -1 "/></g></g></g><g fill="#ffffff" fill-opacity="1"><g transform="translate(92.896701, 18.362724)"><g><path d="M 3.75 -8.265625 L 3.75 -2.015625 C 3.75 -1.773438 3.8125 -1.59375 3.9375 -1.46875 C 4.070312 -1.34375 4.25 -1.28125 4.46875 -1.28125 L 6.328125 -1.28125 L 6.328125 0 L 4.359375 0 C 3.734375 0 3.238281 -0.175781 2.875 -0.53125 C 2.507812 -0.882812 2.328125 -1.378906 2.328125 -2.015625 L 2.328125 -6.984375 L 0.34375 -6.984375 L 0.34375 -8.265625 Z M 3.75 -8.265625 "/></g></g></g><g fill="#ffffff" fill-opacity="1"><g transform="translate(99.680681, 18.362724)"><g><path d="M 3.75 -8.265625 L 3.75 -2.015625 C 3.75 -1.773438 3.8125 -1.59375 3.9375 -1.46875 C 4.070312 -1.34375 4.25 -1.28125 4.46875 -1.28125 L 6.328125 -1.28125 L 6.328125 0 L 4.359375 0 C 3.734375 0 3.238281 -0.175781 2.875 -0.53125 C 2.507812 -0.882812 2.328125 -1.378906 2.328125 -2.015625 L 2.328125 -6.984375 L 0.34375 -6.984375 L 0.34375 -8.265625 Z M 3.75 -8.265625 "/></g></g></g><g fill="#ffffff" fill-opacity="1"><g transform="translate(106.464661, 18.362724)"><g><path d="M 1.125 -4.390625 L 5.65625 -4.390625 L 5.65625 -3.09375 L 1.125 -3.09375 Z M 1.125 -4.390625 "/></g></g></g><g fill="#ffffff" fill-opacity="1"><g transform="translate(113.248641, 18.362724)"><g><path d="M 0.6875 -3.90625 C 0.6875 -4.28125 0.738281 -4.613281 0.84375 -4.90625 C 0.945312 -5.207031 1.09375 -5.460938 1.28125 -5.671875 C 1.46875 -5.890625 1.691406 -6.050781 1.953125 -6.15625 C 2.222656 -6.269531 2.515625 -6.328125 2.828125 -6.328125 C 3.273438 -6.328125 3.644531 -6.222656 3.9375 -6.015625 C 4.238281 -5.804688 4.421875 -5.515625 4.484375 -5.140625 L 4.609375 -5.140625 C 4.597656 -5.273438 4.585938 -5.40625 4.578125 -5.53125 C 4.566406 -5.644531 4.554688 -5.765625 4.546875 -5.890625 C 4.546875 -6.015625 4.546875 -6.125 4.546875 -6.21875 L 4.546875 -8.265625 L 5.96875 -8.265625 L 5.96875 0 L 4.609375 0 L 4.609375 -1.09375 L 4.484375 -1.09375 C 4.421875 -0.707031 4.238281 -0.410156 3.9375 -0.203125 C 3.644531 0.00390625 3.273438 0.109375 2.828125 0.109375 C 2.515625 0.109375 2.222656 0.0546875 1.953125 -0.046875 C 1.691406 -0.160156 1.46875 -0.328125 1.28125 -0.546875 C 1.09375 -0.765625 0.945312 -1.023438 0.84375 -1.328125 C 0.738281 -1.628906 0.6875 -1.972656 0.6875 -2.359375 Z M 3.34375 -1.125 C 3.707031 -1.125 4 -1.234375 4.21875 -1.453125 C 4.4375 -1.679688 4.546875 -1.984375 4.546875 -2.359375 L 4.546875 -3.875 C 4.546875 -4.25 4.429688 -4.546875 4.203125 -4.765625 C 3.984375 -4.992188 3.695312 -5.109375 3.34375 -5.109375 C 2.957031 -5.109375 2.65625 -5 2.4375 -4.78125 C 2.21875 -4.5625 2.109375 -4.257812 2.109375 -3.875 L 2.109375 -2.390625 C 2.109375 -2.003906 2.21875 -1.695312 2.4375 -1.46875 C 2.65625 -1.238281 2.957031 -1.125 3.34375 -1.125 Z M 3.34375 -1.125 "/></g></g></g><g fill="#ffffff" fill-opacity="1"><g transform="translate(120.032621, 18.362724)"><g><path d="M 3.390625 0.109375 C 2.984375 0.109375 2.613281 0.0507812 2.28125 -0.0625 C 1.945312 -0.175781 1.660156 -0.335938 1.421875 -0.546875 C 1.191406 -0.765625 1.007812 -1.023438 0.875 -1.328125 C 0.75 -1.628906 0.6875 -1.960938 0.6875 -2.328125 L 0.6875 -3.90625 C 0.6875 -4.269531 0.75 -4.601562 0.875 -4.90625 C 1.007812 -5.207031 1.191406 -5.460938 1.421875 -5.671875 C 1.660156 -5.890625 1.945312 -6.050781 2.28125 -6.15625 C 2.613281 -6.269531 2.984375 -6.328125 3.390625 -6.328125 C 3.796875 -6.328125 4.164062 -6.269531 4.5 -6.15625 C 4.832031 -6.039062 5.113281 -5.875 5.34375 -5.65625 C 5.582031 -5.445312 5.765625 -5.191406 5.890625 -4.890625 C 6.023438 -4.597656 6.09375 -4.265625 6.09375 -3.890625 L 6.09375 -2.765625 L 2.09375 -2.765625 L 2.09375 -2.359375 C 2.09375 -1.941406 2.207031 -1.613281 2.4375 -1.375 C 2.664062 -1.144531 2.984375 -1.03125 3.390625 -1.03125 C 3.703125 -1.03125 3.960938 -1.078125 4.171875 -1.171875 C 4.390625 -1.265625 4.546875 -1.398438 4.640625 -1.578125 L 6.03125 -1.578125 C 5.957031 -1.328125 5.84375 -1.09375 5.6875 -0.875 C 5.53125 -0.664062 5.335938 -0.488281 5.109375 -0.34375 C 4.878906 -0.195312 4.617188 -0.0820312 4.328125 0 C 4.035156 0.0703125 3.722656 0.109375 3.390625 0.109375 Z M 4.6875 -3.703125 L 4.6875 -3.890625 C 4.6875 -4.304688 4.570312 -4.628906 4.34375 -4.859375 C 4.125 -5.085938 3.804688 -5.203125 3.390625 -5.203125 C 2.984375 -5.203125 2.664062 -5.085938 2.4375 -4.859375 C 2.207031 -4.628906 2.09375 -4.3125 2.09375 -3.90625 L 2.09375 -3.703125 Z M 4.6875 -3.703125 "/></g></g></g><g fill="#ffffff" fill-opacity="1"><g transform="translate(126.816601, 18.362724)"><g/></g></g><g fill="#ffffff" fill-opacity="1"><g transform="translate(133.600581, 18.362724)"><g><path d="M 0.65625 -3.921875 C 0.65625 -4.285156 0.707031 -4.613281 0.8125 -4.90625 C 0.914062 -5.207031 1.0625 -5.460938 1.25 -5.671875 C 1.4375 -5.890625 1.660156 -6.050781 1.921875 -6.15625 C 2.179688 -6.269531 2.476562 -6.328125 2.8125 -6.328125 C 3.269531 -6.328125 3.648438 -6.21875 3.953125 -6 C 4.253906 -5.78125 4.445312 -5.476562 4.53125 -5.09375 L 4.609375 -5.09375 L 4.609375 -6.21875 L 5.96875 -6.21875 L 5.96875 -0.390625 C 5.96875 -0.0351562 5.90625 0.273438 5.78125 0.546875 C 5.65625 0.828125 5.476562 1.0625 5.25 1.25 C 5.03125 1.445312 4.757812 1.597656 4.4375 1.703125 C 4.113281 1.804688 3.757812 1.859375 3.375 1.859375 L 1.703125 1.859375 L 1.703125 0.6875 L 3.375 0.6875 C 3.738281 0.6875 4.023438 0.59375 4.234375 0.40625 C 4.441406 0.21875 4.546875 -0.046875 4.546875 -0.390625 L 4.546875 -0.515625 L 4.59375 -1.75 L 4.53125 -1.75 C 4.445312 -1.363281 4.253906 -1.0625 3.953125 -0.84375 C 3.648438 -0.625 3.269531 -0.515625 2.8125 -0.515625 C 2.476562 -0.515625 2.179688 -0.566406 1.921875 -0.671875 C 1.660156 -0.785156 1.4375 -0.945312 1.25 -1.15625 C 1.0625 -1.375 0.914062 -1.628906 0.8125 -1.921875 C 0.707031 -2.222656 0.65625 -2.554688 0.65625 -2.921875 Z M 2.078125 -2.953125 C 2.078125 -2.566406 2.1875 -2.265625 2.40625 -2.046875 C 2.625 -1.835938 2.925781 -1.734375 3.3125 -1.734375 C 3.6875 -1.734375 3.984375 -1.84375 4.203125 -2.0625 C 4.429688 -2.28125 4.546875 -2.578125 4.546875 -2.953125 L 4.546875 -3.890625 C 4.546875 -4.265625 4.429688 -4.5625 4.203125 -4.78125 C 3.984375 -5 3.6875 -5.109375 3.3125 -5.109375 C 2.925781 -5.109375 2.625 -5 2.40625 -4.78125 C 2.1875 -4.5625 2.078125 -4.265625 2.078125 -3.890625 Z M 2.078125 -2.953125 "/></g></g></g><g fill="#ffffff" fill-opacity="1"><g transform="translate(140.384561, 18.362724)"><g><path d="M 0.8125 0 L 0.8125 -6.21875 L 2.15625 -6.21875 L 2.15625 -5.140625 L 2.265625 -5.140625 C 2.328125 -5.523438 2.5 -5.816406 2.78125 -6.015625 C 3.070312 -6.222656 3.445312 -6.328125 3.90625 -6.328125 C 4.53125 -6.328125 5.023438 -6.125 5.390625 -5.71875 C 5.765625 -5.3125 5.953125 -4.765625 5.953125 -4.078125 L 5.953125 0 L 4.53125 0 L 4.53125 -3.90625 C 4.53125 -4.28125 4.425781 -4.570312 4.21875 -4.78125 C 4.019531 -5 3.742188 -5.109375 3.390625 -5.109375 C 3.023438 -5.109375 2.738281 -5 2.53125 -4.78125 C 2.332031 -4.5625 2.234375 -4.257812 2.234375 -3.875 L 2.234375 0 Z M 0.8125 0 "/></g></g></g><g fill="#ffffff" fill-opacity="1"><g transform="translate(147.168541, 18.362724)"><g><path d="M 2.109375 -2.359375 C 2.109375 -1.972656 2.222656 -1.671875 2.453125 -1.453125 C 2.679688 -1.234375 2.992188 -1.125 3.390625 -1.125 C 3.796875 -1.125 4.113281 -1.234375 4.34375 -1.453125 C 4.570312 -1.671875 4.6875 -1.972656 4.6875 -2.359375 L 4.6875 -3.875 C 4.6875 -4.257812 4.570312 -4.5625 4.34375 -4.78125 C 4.113281 -5 3.796875 -5.109375 3.390625 -5.109375 C 3.003906 -5.109375 2.691406 -5 2.453125 -4.78125 C 2.222656 -4.5625 2.109375 -4.257812 2.109375 -3.875 Z M 0.6875 -3.875 C 0.6875 -4.25 0.75 -4.585938 0.875 -4.890625 C 1.007812 -5.191406 1.191406 -5.445312 1.421875 -5.65625 C 1.660156 -5.875 1.945312 -6.039062 2.28125 -6.15625 C 2.613281 -6.269531 2.984375 -6.328125 3.390625 -6.328125 C 3.796875 -6.328125 4.164062 -6.269531 4.5 -6.15625 C 4.832031 -6.039062 5.117188 -5.875 5.359375 -5.65625 C 5.597656 -5.445312 5.78125 -5.191406 5.90625 -4.890625 C 6.03125 -4.585938 6.09375 -4.25 6.09375 -3.875 L 6.09375 -2.359375 C 6.09375 -1.984375 6.03125 -1.640625 5.90625 -1.328125 C 5.78125 -1.023438 5.597656 -0.765625 5.359375 -0.546875 C 5.128906 -0.335938 4.84375 -0.175781 4.5 -0.0625 C 4.164062 0.0507812 3.796875 0.109375 3.390625 0.109375 C 2.984375 0.109375 2.613281 0.0507812 2.28125 -0.0625 C 1.945312 -0.1875 1.660156 -0.351562 1.421875 -0.5625 C 1.191406 -0.78125 1.007812 -1.039062 0.875 -1.34375 C 0.75 -1.644531 0.6875 -1.984375 0.6875 -2.359375 Z M 0.6875 -3.875 "/></g></g></g><g fill="#ffffff" fill-opacity="1"><g transform="translate(153.952521, 18.362724)"><g><path d="M 0.546875 -6.21875 L 1.625 -6.21875 L 1.625 -5.3125 L 1.734375 -5.3125 C 1.753906 -5.632812 1.851562 -5.882812 2.03125 -6.0625 C 2.21875 -6.238281 2.46875 -6.328125 2.78125 -6.328125 C 3.070312 -6.328125 3.316406 -6.238281 3.515625 -6.0625 C 3.722656 -5.882812 3.863281 -5.632812 3.9375 -5.3125 L 3.984375 -5.3125 C 4.003906 -5.632812 4.101562 -5.882812 4.28125 -6.0625 C 4.46875 -6.238281 4.71875 -6.328125 5.03125 -6.328125 C 5.40625 -6.328125 5.703125 -6.1875 5.921875 -5.90625 C 6.140625 -5.625 6.25 -5.238281 6.25 -4.75 L 6.25 0 L 5.0625 0 L 5.0625 -4.640625 C 5.0625 -5.109375 4.878906 -5.34375 4.515625 -5.34375 C 4.171875 -5.34375 4 -5.097656 4 -4.609375 L 4 0 L 2.8125 0 L 2.8125 -4.640625 C 2.8125 -5.023438 2.6875 -5.25 2.4375 -5.3125 C 2.351562 -5.332031 2.296875 -5.34375 2.265625 -5.34375 C 2.222656 -5.34375 2.164062 -5.332031 2.09375 -5.3125 C 1.851562 -5.25 1.734375 -5.015625 1.734375 -4.609375 L 1.734375 0 L 0.546875 0 Z M 0.546875 -6.21875 "/></g></g></g><g fill="#ffffff" fill-opacity="1"><g transform="translate(160.736501, 18.362724)"><g><path d="M 3.390625 0.109375 C 2.984375 0.109375 2.613281 0.0507812 2.28125 -0.0625 C 1.945312 -0.175781 1.660156 -0.335938 1.421875 -0.546875 C 1.191406 -0.765625 1.007812 -1.023438 0.875 -1.328125 C 0.75 -1.628906 0.6875 -1.960938 0.6875 -2.328125 L 0.6875 -3.90625 C 0.6875 -4.269531 0.75 -4.601562 0.875 -4.90625 C 1.007812 -5.207031 1.191406 -5.460938 1.421875 -5.671875 C 1.660156 -5.890625 1.945312 -6.050781 2.28125 -6.15625 C 2.613281 -6.269531 2.984375 -6.328125 3.390625 -6.328125 C 3.796875 -6.328125 4.164062 -6.269531 4.5 -6.15625 C 4.832031 -6.039062 5.113281 -5.875 5.34375 -5.65625 C 5.582031 -5.445312 5.765625 -5.191406 5.890625 -4.890625 C 6.023438 -4.597656 6.09375 -4.265625 6.09375 -3.890625 L 6.09375 -2.765625 L 2.09375 -2.765625 L 2.09375 -2.359375 C 2.09375 -1.941406 2.207031 -1.613281 2.4375 -1.375 C 2.664062 -1.144531 2.984375 -1.03125 3.390625 -1.03125 C 3.703125 -1.03125 3.960938 -1.078125 4.171875 -1.171875 C 4.390625 -1.265625 4.546875 -1.398438 4.640625 -1.578125 L 6.03125 -1.578125 C 5.957031 -1.328125 5.84375 -1.09375 5.6875 -0.875 C 5.53125 -0.664062 5.335938 -0.488281 5.109375 -0.34375 C 4.878906 -0.195312 4.617188 -0.0820312 4.328125 0 C 4.035156 0.0703125 3.722656 0.109375 3.390625 0.109375 Z M 4.6875 -3.703125 L 4.6875 -3.890625 C 4.6875 -4.304688 4.570312 -4.628906 4.34375 -4.859375 C 4.125 -5.085938 3.804688 -5.203125 3.390625 -5.203125 C 2.984375 -5.203125 2.664062 -5.085938 2.4375 -4.859375 C 2.207031 -4.628906 2.09375 -4.3125 2.09375 -3.90625 L 2.09375 -3.703125 Z M 4.6875 -3.703125 "/></g></g></g><g fill="#ffffff" fill-opacity="1"><g transform="translate(167.520481, 18.362724)"><g/></g></g><g fill="#ffffff" fill-opacity="1"><g transform="translate(174.298628, 18.362724)"><g><path d="M 0.21875 -3 L 1.3125 -3 L 2.0625 -5.140625 L 0.953125 -5.140625 L 1.0625 -5.875 L 2.3125 -5.875 L 3.09375 -8.140625 L 3.921875 -8.140625 L 3.140625 -5.875 L 4.890625 -5.875 L 5.671875 -8.140625 L 6.5 -8.140625 L 5.71875 -5.875 L 6.671875 -5.875 L 6.5625 -5.140625 L 5.46875 -5.140625 L 4.734375 -3 L 5.828125 -3 L 5.71875 -2.265625 L 4.484375 -2.265625 L 3.703125 0 L 2.875 0 L 3.65625 -2.265625 L 1.890625 -2.265625 L 1.109375 0 L 0.28125 0 L 1.0625 -2.265625 L 0.109375 -2.265625 Z M 3.90625 -3 L 4.65625 -5.140625 L 2.890625 -5.140625 L 2.140625 -3 Z M 3.90625 -3 "/></g></g></g><g fill="#ffffff" fill-opacity="1"><g transform="translate(181.082609, 18.362724)"><g/></g></g><g fill="#ffffff" fill-opacity="1"><g transform="translate(187.866589, 18.362724)"><g><path d="M 0.703125 0 L 1.6875 -6.21875 L 2.625 -6.21875 L 2.453125 -5.140625 L 2.546875 -5.140625 C 2.691406 -5.515625 2.9375 -5.804688 3.28125 -6.015625 C 3.632812 -6.222656 4.035156 -6.328125 4.484375 -6.328125 C 4.804688 -6.328125 5.085938 -6.269531 5.328125 -6.15625 C 5.566406 -6.050781 5.757812 -5.894531 5.90625 -5.6875 C 6.050781 -5.488281 6.148438 -5.25 6.203125 -4.96875 C 6.265625 -4.6875 6.265625 -4.375 6.203125 -4.03125 L 6.140625 -3.625 L 5.140625 -3.625 L 5.1875 -3.90625 C 5.269531 -4.394531 5.207031 -4.773438 5 -5.046875 C 4.789062 -5.328125 4.46875 -5.46875 4.03125 -5.46875 C 3.570312 -5.46875 3.191406 -5.320312 2.890625 -5.03125 C 2.585938 -4.75 2.394531 -4.375 2.3125 -3.90625 L 1.703125 0 Z M 0.703125 0 "/></g></g></g><g fill="#ffffff" fill-opacity="1"><g transform="translate(194.650569, 18.362724)"><g><path d="M 2.8125 0.109375 C 2.425781 0.109375 2.085938 0.0546875 1.796875 -0.046875 C 1.515625 -0.160156 1.285156 -0.320312 1.109375 -0.53125 C 0.929688 -0.738281 0.804688 -0.988281 0.734375 -1.28125 C 0.671875 -1.570312 0.664062 -1.898438 0.71875 -2.265625 L 0.984375 -3.953125 C 1.109375 -4.703125 1.421875 -5.285156 1.921875 -5.703125 C 2.429688 -6.117188 3.066406 -6.328125 3.828125 -6.328125 C 4.210938 -6.328125 4.546875 -6.269531 4.828125 -6.15625 C 5.117188 -6.050781 5.351562 -5.894531 5.53125 -5.6875 C 5.707031 -5.488281 5.828125 -5.238281 5.890625 -4.9375 C 5.960938 -4.644531 5.972656 -4.316406 5.921875 -3.953125 L 5.734375 -2.8125 L 1.8125 -2.8125 L 1.734375 -2.3125 C 1.648438 -1.832031 1.71875 -1.453125 1.9375 -1.171875 C 2.164062 -0.898438 2.503906 -0.765625 2.953125 -0.765625 C 3.296875 -0.765625 3.597656 -0.820312 3.859375 -0.9375 C 4.128906 -1.050781 4.335938 -1.207031 4.484375 -1.40625 L 5.484375 -1.40625 C 5.285156 -0.9375 4.945312 -0.566406 4.46875 -0.296875 C 3.988281 -0.0234375 3.4375 0.109375 2.8125 0.109375 Z M 4.875 -3.640625 L 4.921875 -3.953125 C 5.003906 -4.429688 4.929688 -4.800781 4.703125 -5.0625 C 4.484375 -5.320312 4.144531 -5.453125 3.6875 -5.453125 C 3.226562 -5.453125 2.847656 -5.320312 2.546875 -5.0625 C 2.253906 -4.800781 2.066406 -4.429688 1.984375 -3.953125 L 1.9375 -3.640625 Z M 4.875 -3.640625 "/></g></g></g><g fill="#ffffff" fill-opacity="1"><g transform="translate(201.434549, 18.362724)"><g><path d="M 0.1875 1.859375 L 1.453125 -6.21875 L 2.390625 -6.21875 L 2.234375 -5.140625 L 2.3125 -5.140625 C 2.46875 -5.515625 2.710938 -5.804688 3.046875 -6.015625 C 3.378906 -6.222656 3.773438 -6.328125 4.234375 -6.328125 C 4.546875 -6.328125 4.820312 -6.269531 5.0625 -6.15625 C 5.300781 -6.039062 5.492188 -5.875 5.640625 -5.65625 C 5.785156 -5.445312 5.882812 -5.191406 5.9375 -4.890625 C 6 -4.597656 6 -4.269531 5.9375 -3.90625 L 5.6875 -2.3125 C 5.625 -1.957031 5.519531 -1.628906 5.375 -1.328125 C 5.226562 -1.023438 5.046875 -0.765625 4.828125 -0.546875 C 4.609375 -0.335938 4.359375 -0.175781 4.078125 -0.0625 C 3.804688 0.0507812 3.515625 0.109375 3.203125 0.109375 C 2.742188 0.109375 2.382812 0.00390625 2.125 -0.203125 C 1.863281 -0.410156 1.710938 -0.703125 1.671875 -1.078125 L 1.578125 -1.078125 C 1.578125 -0.941406 1.566406 -0.8125 1.546875 -0.6875 C 1.535156 -0.570312 1.523438 -0.453125 1.515625 -0.328125 C 1.503906 -0.210938 1.488281 -0.101562 1.46875 0 L 1.171875 1.859375 Z M 1.84375 -2.3125 C 1.757812 -1.84375 1.820312 -1.46875 2.03125 -1.1875 C 2.25 -0.90625 2.585938 -0.765625 3.046875 -0.765625 C 3.472656 -0.765625 3.832031 -0.898438 4.125 -1.171875 C 4.414062 -1.441406 4.601562 -1.820312 4.6875 -2.3125 L 4.9375 -3.90625 C 5.019531 -4.394531 4.953125 -4.773438 4.734375 -5.046875 C 4.515625 -5.316406 4.175781 -5.453125 3.71875 -5.453125 C 3.300781 -5.453125 2.941406 -5.3125 2.640625 -5.03125 C 2.347656 -4.75 2.164062 -4.375 2.09375 -3.90625 L 1.828125 -2.3125 Z M 1.84375 -2.3125 "/></g></g></g><g fill="#ffffff" fill-opacity="1"><g transform="translate(208.218529, 18.362724)"><g><path d="M 4.28125 -8.265625 L 3.25 -1.8125 C 3.207031 -1.53125 3.25 -1.3125 3.375 -1.15625 C 3.5 -1 3.691406 -0.921875 3.953125 -0.921875 L 5.796875 -0.921875 L 5.65625 0 L 3.8125 0 C 3.226562 0 2.796875 -0.160156 2.515625 -0.484375 C 2.242188 -0.804688 2.148438 -1.25 2.234375 -1.8125 L 3.109375 -7.328125 L 1.046875 -7.328125 L 1.203125 -8.265625 Z M 4.28125 -8.265625 "/></g></g></g><g fill="#ffffff" fill-opacity="1"><g transform="translate(215.002509, 18.362724)"><g><path d="M 0.671875 -2.3125 L 0.921875 -3.90625 C 0.972656 -4.269531 1.070312 -4.597656 1.21875 -4.890625 C 1.363281 -5.191406 1.539062 -5.445312 1.75 -5.65625 C 1.957031 -5.875 2.195312 -6.039062 2.46875 -6.15625 C 2.75 -6.269531 3.039062 -6.328125 3.34375 -6.328125 C 3.800781 -6.328125 4.148438 -6.222656 4.390625 -6.015625 C 4.628906 -5.804688 4.769531 -5.515625 4.8125 -5.140625 L 4.890625 -5.140625 L 5.0625 -6.21875 L 6 -6.21875 L 5.234375 -1.328125 C 5.203125 -1.171875 5.222656 -1.050781 5.296875 -0.96875 C 5.367188 -0.882812 5.472656 -0.84375 5.609375 -0.84375 L 6.09375 -0.84375 L 5.96875 0.03125 L 5.234375 0.03125 C 4.910156 0.03125 4.65625 -0.0703125 4.46875 -0.28125 C 4.289062 -0.488281 4.21875 -0.753906 4.25 -1.078125 L 4.15625 -1.078125 C 4.007812 -0.703125 3.78125 -0.410156 3.46875 -0.203125 C 3.15625 0.00390625 2.769531 0.109375 2.3125 0.109375 C 2.007812 0.109375 1.738281 0.0507812 1.5 -0.0625 C 1.269531 -0.175781 1.082031 -0.335938 0.9375 -0.546875 C 0.789062 -0.765625 0.691406 -1.019531 0.640625 -1.3125 C 0.597656 -1.613281 0.609375 -1.945312 0.671875 -2.3125 Z M 2.828125 -0.765625 C 3.222656 -0.765625 3.554688 -0.890625 3.828125 -1.140625 C 4.097656 -1.390625 4.28125 -1.738281 4.375 -2.1875 L 4.65625 -4 C 4.707031 -4.457031 4.632812 -4.8125 4.4375 -5.0625 C 4.25 -5.320312 3.957031 -5.453125 3.5625 -5.453125 C 3.113281 -5.453125 2.742188 -5.3125 2.453125 -5.03125 C 2.171875 -4.757812 1.988281 -4.382812 1.90625 -3.90625 L 1.65625 -2.3125 C 1.570312 -1.832031 1.632812 -1.453125 1.84375 -1.171875 C 2.050781 -0.898438 2.378906 -0.765625 2.828125 -0.765625 Z M 2.828125 -0.765625 "/></g></g></g><g fill="#ffffff" fill-opacity="1"><g transform="translate(221.786489, 18.362724)"><g><path d="M 2.90625 0.109375 C 2.539062 0.109375 2.210938 0.0507812 1.921875 -0.0625 C 1.640625 -0.175781 1.410156 -0.335938 1.234375 -0.546875 C 1.054688 -0.765625 0.929688 -1.019531 0.859375 -1.3125 C 0.785156 -1.613281 0.78125 -1.945312 0.84375 -2.3125 L 1.09375 -3.90625 C 1.207031 -4.664062 1.515625 -5.257812 2.015625 -5.6875 C 2.515625 -6.113281 3.15625 -6.328125 3.9375 -6.328125 C 4.257812 -6.328125 4.550781 -6.273438 4.8125 -6.171875 C 5.082031 -6.078125 5.3125 -5.9375 5.5 -5.75 C 5.695312 -5.5625 5.84375 -5.335938 5.9375 -5.078125 C 6.039062 -4.828125 6.09375 -4.546875 6.09375 -4.234375 L 5.0625 -4.234375 C 5.082031 -4.597656 4.96875 -4.890625 4.71875 -5.109375 C 4.476562 -5.328125 4.171875 -5.4375 3.796875 -5.4375 C 3.335938 -5.4375 2.953125 -5.296875 2.640625 -5.015625 C 2.335938 -4.742188 2.148438 -4.375 2.078125 -3.90625 L 1.828125 -2.3125 C 1.742188 -1.84375 1.8125 -1.472656 2.03125 -1.203125 C 2.25 -0.929688 2.585938 -0.796875 3.046875 -0.796875 C 3.460938 -0.796875 3.816406 -0.898438 4.109375 -1.109375 C 4.410156 -1.316406 4.613281 -1.609375 4.71875 -1.984375 L 5.734375 -1.984375 C 5.535156 -1.316406 5.191406 -0.800781 4.703125 -0.4375 C 4.210938 -0.0703125 3.613281 0.109375 2.90625 0.109375 Z M 2.90625 0.109375 "/></g></g></g><g fill="#ffffff" fill-opacity="1"><g transform="translate(228.570469, 18.362724)"><g><path d="M 2.8125 0.109375 C 2.425781 0.109375 2.085938 0.0546875 1.796875 -0.046875 C 1.515625 -0.160156 1.285156 -0.320312 1.109375 -0.53125 C 0.929688 -0.738281 0.804688 -0.988281 0.734375 -1.28125 C 0.671875 -1.570312 0.664062 -1.898438 0.71875 -2.265625 L 0.984375 -3.953125 C 1.109375 -4.703125 1.421875 -5.285156 1.921875 -5.703125 C 2.429688 -6.117188 3.066406 -6.328125 3.828125 -6.328125 C 4.210938 -6.328125 4.546875 -6.269531 4.828125 -6.15625 C 5.117188 -6.050781 5.351562 -5.894531 5.53125 -5.6875 C 5.707031 -5.488281 5.828125 -5.238281 5.890625 -4.9375 C 5.960938 -4.644531 5.972656 -4.316406 5.921875 -3.953125 L 5.734375 -2.8125 L 1.8125 -2.8125 L 1.734375 -2.3125 C 1.648438 -1.832031 1.71875 -1.453125 1.9375 -1.171875 C 2.164062 -0.898438 2.503906 -0.765625 2.953125 -0.765625 C 3.296875 -0.765625 3.597656 -0.820312 3.859375 -0.9375 C 4.128906 -1.050781 4.335938 -1.207031 4.484375 -1.40625 L 5.484375 -1.40625 C 5.285156 -0.9375 4.945312 -0.566406 4.46875 -0.296875 C 3.988281 -0.0234375 3.4375 0.109375 2.8125 0.109375 Z M 4.875 -3.640625 L 4.921875 -3.953125 C 5.003906 -4.429688 4.929688 -4.800781 4.703125 -5.0625 C 4.484375 -5.320312 4.144531 -5.453125 3.6875 -5.453125 C 3.226562 -5.453125 2.847656 -5.320312 2.546875 -5.0625 C 2.253906 -4.800781 2.066406 -4.429688 1.984375 -3.953125 L 1.9375 -3.640625 Z M 4.875 -3.640625 "/></g></g></g><g fill="#ffffff" fill-opacity="1"><g transform="translate(235.354449, 18.362724)"><g/></g></g><g fill="#ffffff" fill-opacity="1"><g transform="translate(242.138429, 18.362724)"><g><path d="M 2.46875 -0.5625 C 2.144531 -0.5625 1.859375 -0.617188 1.609375 -0.734375 C 1.367188 -0.847656 1.171875 -1.003906 1.015625 -1.203125 C 0.867188 -1.410156 0.769531 -1.660156 0.71875 -1.953125 C 0.664062 -2.242188 0.664062 -2.570312 0.71875 -2.9375 L 0.875 -3.953125 C 0.9375 -4.316406 1.039062 -4.644531 1.1875 -4.9375 C 1.332031 -5.238281 1.515625 -5.488281 1.734375 -5.6875 C 1.953125 -5.894531 2.195312 -6.050781 2.46875 -6.15625 C 2.75 -6.269531 3.050781 -6.328125 3.375 -6.328125 C 3.832031 -6.328125 4.195312 -6.21875 4.46875 -6 C 4.75 -5.789062 4.921875 -5.488281 4.984375 -5.09375 L 5.0625 -5.09375 L 5.234375 -6.21875 L 6.203125 -6.21875 L 5.28125 -0.453125 C 5.164062 0.273438 4.859375 0.84375 4.359375 1.25 C 3.867188 1.65625 3.238281 1.859375 2.46875 1.859375 L 0.9375 1.859375 L 1.09375 0.9375 L 2.609375 0.9375 C 3.066406 0.9375 3.4375 0.816406 3.71875 0.578125 C 4.007812 0.335938 4.191406 -0.00390625 4.265625 -0.453125 L 4.53125 -1.8125 L 4.453125 -1.8125 C 4.285156 -1.40625 4.023438 -1.09375 3.671875 -0.875 C 3.316406 -0.664062 2.914062 -0.5625 2.46875 -0.5625 Z M 1.75 -2.9375 C 1.675781 -2.46875 1.75 -2.101562 1.96875 -1.84375 C 2.1875 -1.582031 2.519531 -1.453125 2.96875 -1.453125 C 3.414062 -1.453125 3.785156 -1.570312 4.078125 -1.8125 C 4.367188 -2.0625 4.5625 -2.40625 4.65625 -2.84375 L 4.8125 -3.953125 C 4.894531 -4.421875 4.828125 -4.785156 4.609375 -5.046875 C 4.390625 -5.316406 4.054688 -5.453125 3.609375 -5.453125 C 3.160156 -5.453125 2.785156 -5.316406 2.484375 -5.046875 C 2.179688 -4.785156 1.988281 -4.421875 1.90625 -3.953125 Z M 1.75 -2.9375 "/></g></g></g><g fill="#ffffff" fill-opacity="1"><g transform="translate(248.922409, 18.362724)"><g><path d="M 0.4375 0 L 1.40625 -6.21875 L 2.375 -6.21875 L 2.21875 -5.140625 L 2.296875 -5.140625 C 2.453125 -5.523438 2.695312 -5.816406 3.03125 -6.015625 C 3.363281 -6.222656 3.753906 -6.328125 4.203125 -6.328125 C 4.503906 -6.328125 4.769531 -6.269531 5 -6.15625 C 5.226562 -6.050781 5.414062 -5.898438 5.5625 -5.703125 C 5.71875 -5.515625 5.820312 -5.28125 5.875 -5 C 5.9375 -4.726562 5.9375 -4.421875 5.875 -4.078125 L 5.234375 0 L 4.21875 0 L 4.859375 -3.96875 C 4.929688 -4.445312 4.867188 -4.816406 4.671875 -5.078125 C 4.484375 -5.335938 4.175781 -5.46875 3.75 -5.46875 C 3.3125 -5.46875 2.941406 -5.332031 2.640625 -5.0625 C 2.347656 -4.800781 2.160156 -4.4375 2.078125 -3.96875 L 1.453125 0 Z M 0.4375 0 "/></g></g></g><g fill="#ffffff" fill-opacity="1"><g transform="translate(255.706389, 18.362724)"><g><path d="M 1.734375 -2.3125 C 1.648438 -1.84375 1.71875 -1.472656 1.9375 -1.203125 C 2.15625 -0.929688 2.492188 -0.796875 2.953125 -0.796875 C 3.398438 -0.796875 3.773438 -0.929688 4.078125 -1.203125 C 4.390625 -1.472656 4.585938 -1.84375 4.671875 -2.3125 L 4.921875 -3.90625 C 4.992188 -4.375 4.914062 -4.742188 4.6875 -5.015625 C 4.46875 -5.296875 4.132812 -5.4375 3.6875 -5.4375 C 3.238281 -5.4375 2.859375 -5.296875 2.546875 -5.015625 C 2.242188 -4.742188 2.054688 -4.375 1.984375 -3.90625 Z M 0.96875 -3.90625 C 1.019531 -4.28125 1.125 -4.613281 1.28125 -4.90625 C 1.445312 -5.207031 1.65625 -5.460938 1.90625 -5.671875 C 2.15625 -5.890625 2.441406 -6.050781 2.765625 -6.15625 C 3.097656 -6.269531 3.453125 -6.328125 3.828125 -6.328125 C 4.609375 -6.328125 5.1875 -6.113281 5.5625 -5.6875 C 5.9375 -5.269531 6.0625 -4.679688 5.9375 -3.921875 L 5.6875 -2.3125 C 5.5625 -1.5625 5.242188 -0.96875 4.734375 -0.53125 C 4.222656 -0.101562 3.582031 0.109375 2.8125 0.109375 C 2.03125 0.109375 1.453125 -0.101562 1.078125 -0.53125 C 0.703125 -0.957031 0.582031 -1.550781 0.71875 -2.3125 Z M 0.96875 -3.90625 "/></g></g></g><g fill="#ffffff" fill-opacity="1"><g transform="translate(262.490369, 18.362724)"><g><path d="M 0.140625 0 L 1.125 -6.21875 L 1.90625 -6.21875 L 1.765625 -5.3125 L 1.828125 -5.3125 C 1.910156 -5.632812 2.054688 -5.882812 2.265625 -6.0625 C 2.484375 -6.238281 2.742188 -6.328125 3.046875 -6.328125 C 3.328125 -6.328125 3.550781 -6.238281 3.71875 -6.0625 C 3.882812 -5.882812 3.976562 -5.632812 4 -5.3125 L 4.046875 -5.3125 C 4.128906 -5.632812 4.273438 -5.882812 4.484375 -6.0625 C 4.703125 -6.238281 4.960938 -6.328125 5.265625 -6.328125 C 5.617188 -6.328125 5.878906 -6.179688 6.046875 -5.890625 C 6.222656 -5.609375 6.269531 -5.222656 6.1875 -4.734375 L 5.4375 0 L 4.578125 0 L 5.328125 -4.734375 C 5.367188 -5.003906 5.34375 -5.210938 5.25 -5.359375 C 5.15625 -5.503906 5 -5.578125 4.78125 -5.578125 C 4.570312 -5.578125 4.398438 -5.503906 4.265625 -5.359375 C 4.128906 -5.222656 4.03125 -5.03125 3.96875 -4.78125 L 3.96875 -4.734375 L 3.21875 0 L 2.359375 0 L 3.109375 -4.734375 C 3.148438 -4.960938 3.132812 -5.15625 3.0625 -5.3125 C 2.976562 -5.488281 2.8125 -5.578125 2.5625 -5.578125 C 2.300781 -5.578125 2.109375 -5.484375 1.984375 -5.296875 C 1.859375 -5.109375 1.773438 -4.90625 1.734375 -4.6875 L 1 0 Z M 0.140625 0 "/></g></g></g><g fill="#ffffff" fill-opacity="1"><g transform="translate(269.274349, 18.362724)"><g><path d="M 2.8125 0.109375 C 2.425781 0.109375 2.085938 0.0546875 1.796875 -0.046875 C 1.515625 -0.160156 1.285156 -0.320312 1.109375 -0.53125 C 0.929688 -0.738281 0.804688 -0.988281 0.734375 -1.28125 C 0.671875 -1.570312 0.664062 -1.898438 0.71875 -2.265625 L 0.984375 -3.953125 C 1.109375 -4.703125 1.421875 -5.285156 1.921875 -5.703125 C 2.429688 -6.117188 3.066406 -6.328125 3.828125 -6.328125 C 4.210938 -6.328125 4.546875 -6.269531 4.828125 -6.15625 C 5.117188 -6.050781 5.351562 -5.894531 5.53125 -5.6875 C 5.707031 -5.488281 5.828125 -5.238281 5.890625 -4.9375 C 5.960938 -4.644531 5.972656 -4.316406 5.921875 -3.953125 L 5.734375 -2.8125 L 1.8125 -2.8125 L 1.734375 -2.3125 C 1.648438 -1.832031 1.71875 -1.453125 1.9375 -1.171875 C 2.164062 -0.898438 2.503906 -0.765625 2.953125 -0.765625 C 3.296875 -0.765625 3.597656 -0.820312 3.859375 -0.9375 C 4.128906 -1.050781 4.335938 -1.207031 4.484375 -1.40625 L 5.484375 -1.40625 C 5.285156 -0.9375 4.945312 -0.566406 4.46875 -0.296875 C 3.988281 -0.0234375 3.4375 0.109375 2.8125 0.109375 Z M 4.875 -3.640625 L 4.921875 -3.953125 C 5.003906 -4.429688 4.929688 -4.800781 4.703125 -5.0625 C 4.484375 -5.320312 4.144531 -5.453125 3.6875 -5.453125 C 3.226562 -5.453125 2.847656 -5.320312 2.546875 -5.0625 C 2.253906 -4.800781 2.066406 -4.429688 1.984375 -3.953125 L 1.9375 -3.640625 Z M 4.875 -3.640625 "/></g></g></g><g fill="#ffffff" fill-opacity="1"><g transform="translate(276.058329, 18.362724)"><g/></g></g><g fill="#ffffff" fill-opacity="1"><g transform="translate(282.842309, 18.362724)"><g><path d="M 1.40625 -6.21875 L 1.40625 -0.453125 L 1.515625 -0.453125 C 1.554688 -0.660156 1.597656 -0.859375 1.640625 -1.046875 C 1.679688 -1.203125 1.722656 -1.363281 1.765625 -1.53125 C 1.804688 -1.707031 1.835938 -1.847656 1.859375 -1.953125 L 3.09375 -6.21875 L 4.265625 -6.21875 L 4.28125 -1.953125 C 4.28125 -1.890625 4.28125 -1.78125 4.28125 -1.625 C 4.28125 -1.46875 4.285156 -1.300781 4.296875 -1.125 C 4.296875 -0.9375 4.296875 -0.71875 4.296875 -0.46875 L 4.40625 -0.46875 L 4.5625 -1.046875 C 4.613281 -1.203125 4.660156 -1.363281 4.703125 -1.53125 C 4.753906 -1.695312 4.789062 -1.835938 4.8125 -1.953125 L 6.03125 -6.21875 L 6.890625 -6.21875 L 5 0 L 3.59375 0 L 3.578125 -4.40625 L 3.578125 -5.0625 C 3.566406 -5.226562 3.5625 -5.40625 3.5625 -5.59375 L 3.453125 -5.59375 C 3.441406 -5.457031 3.425781 -5.320312 3.40625 -5.1875 C 3.382812 -5.070312 3.363281 -4.941406 3.34375 -4.796875 C 3.320312 -4.660156 3.296875 -4.53125 3.265625 -4.40625 L 1.984375 0 L 0.640625 0 L 0.640625 -6.21875 Z M 1.40625 -6.21875 "/></g></g></g><g fill="#ffffff" fill-opacity="1"><g transform="translate(289.626289, 18.362724)"><g><path d="M 0.65625 -0.921875 L 2.921875 -0.921875 L 3.609375 -5.296875 L 1.625 -5.296875 L 1.78125 -6.21875 L 4.78125 -6.21875 L 3.9375 -0.921875 L 5.796875 -0.921875 L 5.65625 0 L 0.515625 0 Z M 3.4375 -7.96875 C 3.476562 -8.164062 3.570312 -8.328125 3.71875 -8.453125 C 3.875 -8.585938 4.0625 -8.65625 4.28125 -8.65625 L 4.5 -8.65625 C 4.71875 -8.65625 4.882812 -8.585938 5 -8.453125 C 5.125 -8.328125 5.171875 -8.164062 5.140625 -7.96875 C 5.097656 -7.757812 5 -7.59375 4.84375 -7.46875 C 4.6875 -7.351562 4.5 -7.296875 4.28125 -7.296875 L 4.0625 -7.296875 C 3.84375 -7.296875 3.671875 -7.351562 3.546875 -7.46875 C 3.429688 -7.582031 3.394531 -7.75 3.4375 -7.96875 Z M 3.4375 -7.96875 "/></g></g></g><g fill="#ffffff" fill-opacity="1"><g transform="translate(296.410269, 18.362724)"><g><path d="M 1.09375 -6.21875 L 2.90625 -6.21875 L 3.21875 -8.140625 L 4.234375 -8.140625 L 3.921875 -6.21875 L 6.359375 -6.21875 L 6.203125 -5.296875 L 3.78125 -5.296875 L 3.203125 -1.609375 C 3.160156 -1.398438 3.195312 -1.234375 3.3125 -1.109375 C 3.425781 -0.984375 3.597656 -0.921875 3.828125 -0.921875 L 5.40625 -0.921875 L 5.265625 0 L 3.671875 0 C 3.410156 0 3.175781 -0.0351562 2.96875 -0.109375 C 2.769531 -0.179688 2.601562 -0.289062 2.46875 -0.4375 C 2.34375 -0.582031 2.253906 -0.753906 2.203125 -0.953125 C 2.148438 -1.148438 2.144531 -1.367188 2.1875 -1.609375 L 2.765625 -5.296875 L 0.953125 -5.296875 Z M 1.09375 -6.21875 "/></g></g></g><g fill="#ffffff" fill-opacity="1"><g transform="translate(303.194249, 18.362724)"><g><path d="M 0.453125 0 L 1.765625 -8.265625 L 2.765625 -8.265625 L 2.4375 -6.21875 C 2.414062 -6.113281 2.390625 -6 2.359375 -5.875 C 2.335938 -5.75 2.316406 -5.632812 2.296875 -5.53125 C 2.265625 -5.40625 2.234375 -5.273438 2.203125 -5.140625 L 2.296875 -5.140625 C 2.453125 -5.523438 2.695312 -5.816406 3.03125 -6.015625 C 3.363281 -6.222656 3.753906 -6.328125 4.203125 -6.328125 C 4.503906 -6.328125 4.769531 -6.269531 5 -6.15625 C 5.226562 -6.050781 5.414062 -5.898438 5.5625 -5.703125 C 5.71875 -5.515625 5.820312 -5.28125 5.875 -5 C 5.9375 -4.726562 5.9375 -4.421875 5.875 -4.078125 L 5.234375 0 L 4.21875 0 L 4.859375 -3.96875 C 4.929688 -4.445312 4.867188 -4.816406 4.671875 -5.078125 C 4.484375 -5.335938 4.175781 -5.46875 3.75 -5.46875 C 3.300781 -5.46875 2.925781 -5.328125 2.625 -5.046875 C 2.332031 -4.765625 2.144531 -4.382812 2.0625 -3.90625 L 1.453125 0 Z M 0.453125 0 "/></g></g></g><g fill="#ffffff" fill-opacity="1"><g transform="translate(309.978229, 18.362724)"><g/></g></g><g fill="#ffffff" fill-opacity="1"><g transform="translate(316.762209, 18.362724)"><g><path d="M 0.140625 0 L 1.125 -6.21875 L 1.90625 -6.21875 L 1.765625 -5.3125 L 1.828125 -5.3125 C 1.910156 -5.632812 2.054688 -5.882812 2.265625 -6.0625 C 2.484375 -6.238281 2.742188 -6.328125 3.046875 -6.328125 C 3.328125 -6.328125 3.550781 -6.238281 3.71875 -6.0625 C 3.882812 -5.882812 3.976562 -5.632812 4 -5.3125 L 4.046875 -5.3125 C 4.128906 -5.632812 4.273438 -5.882812 4.484375 -6.0625 C 4.703125 -6.238281 4.960938 -6.328125 5.265625 -6.328125 C 5.617188 -6.328125 5.878906 -6.179688 6.046875 -5.890625 C 6.222656 -5.609375 6.269531 -5.222656 6.1875 -4.734375 L 5.4375 0 L 4.578125 0 L 5.328125 -4.734375 C 5.367188 -5.003906 5.34375 -5.210938 5.25 -5.359375 C 5.15625 -5.503906 5 -5.578125 4.78125 -5.578125 C 4.570312 -5.578125 4.398438 -5.503906 4.265625 -5.359375 C 4.128906 -5.222656 4.03125 -5.03125 3.96875 -4.78125 L 3.96875 -4.734375 L 3.21875 0 L 2.359375 0 L 3.109375 -4.734375 C 3.148438 -4.960938 3.132812 -5.15625 3.0625 -5.3125 C 2.976562 -5.488281 2.8125 -5.578125 2.5625 -5.578125 C 2.300781 -5.578125 2.109375 -5.484375 1.984375 -5.296875 C 1.859375 -5.109375 1.773438 -4.90625 1.734375 -4.6875 L 1 0 Z M 0.140625 0 "/></g></g></g><g fill="#ffffff" fill-opacity="1"><g transform="translate(323.546189, 18.362724)"><g><path d="M 0.671875 -2.3125 L 0.921875 -3.90625 C 0.972656 -4.269531 1.070312 -4.597656 1.21875 -4.890625 C 1.363281 -5.191406 1.539062 -5.445312 1.75 -5.65625 C 1.957031 -5.875 2.195312 -6.039062 2.46875 -6.15625 C 2.75 -6.269531 3.039062 -6.328125 3.34375 -6.328125 C 3.800781 -6.328125 4.148438 -6.222656 4.390625 -6.015625 C 4.628906 -5.804688 4.769531 -5.515625 4.8125 -5.140625 L 4.890625 -5.140625 L 5.0625 -6.21875 L 6 -6.21875 L 5.234375 -1.328125 C 5.203125 -1.171875 5.222656 -1.050781 5.296875 -0.96875 C 5.367188 -0.882812 5.472656 -0.84375 5.609375 -0.84375 L 6.09375 -0.84375 L 5.96875 0.03125 L 5.234375 0.03125 C 4.910156 0.03125 4.65625 -0.0703125 4.46875 -0.28125 C 4.289062 -0.488281 4.21875 -0.753906 4.25 -1.078125 L 4.15625 -1.078125 C 4.007812 -0.703125 3.78125 -0.410156 3.46875 -0.203125 C 3.15625 0.00390625 2.769531 0.109375 2.3125 0.109375 C 2.007812 0.109375 1.738281 0.0507812 1.5 -0.0625 C 1.269531 -0.175781 1.082031 -0.335938 0.9375 -0.546875 C 0.789062 -0.765625 0.691406 -1.019531 0.640625 -1.3125 C 0.597656 -1.613281 0.609375 -1.945312 0.671875 -2.3125 Z M 2.828125 -0.765625 C 3.222656 -0.765625 3.554688 -0.890625 3.828125 -1.140625 C 4.097656 -1.390625 4.28125 -1.738281 4.375 -2.1875 L 4.65625 -4 C 4.707031 -4.457031 4.632812 -4.8125 4.4375 -5.0625 C 4.25 -5.320312 3.957031 -5.453125 3.5625 -5.453125 C 3.113281 -5.453125 2.742188 -5.3125 2.453125 -5.03125 C 2.171875 -4.757812 1.988281 -4.382812 1.90625 -3.90625 L 1.65625 -2.3125 C 1.570312 -1.832031 1.632812 -1.453125 1.84375 -1.171875 C 2.050781 -0.898438 2.378906 -0.765625 2.828125 -0.765625 Z M 2.828125 -0.765625 "/></g></g></g><g fill="#ffffff" fill-opacity="1"><g transform="translate(330.330169, 18.362724)"><g><path d="M 1.09375 -6.21875 L 2.90625 -6.21875 L 3.21875 -8.140625 L 4.234375 -8.140625 L 3.921875 -6.21875 L 6.359375 -6.21875 L 6.203125 -5.296875 L 3.78125 -5.296875 L 3.203125 -1.609375 C 3.160156 -1.398438 3.195312 -1.234375 3.3125 -1.109375 C 3.425781 -0.984375 3.597656 -0.921875 3.828125 -0.921875 L 5.40625 -0.921875 L 5.265625 0 L 3.671875 0 C 3.410156 0 3.175781 -0.0351562 2.96875 -0.109375 C 2.769531 -0.179688 2.601562 -0.289062 2.46875 -0.4375 C 2.34375 -0.582031 2.253906 -0.753906 2.203125 -0.953125 C 2.148438 -1.148438 2.144531 -1.367188 2.1875 -1.609375 L 2.765625 -5.296875 L 0.953125 -5.296875 Z M 1.09375 -6.21875 "/></g></g></g><g fill="#ffffff" fill-opacity="1"><g transform="translate(337.114149, 18.362724)"><g><path d="M 2.8125 0.109375 C 2.425781 0.109375 2.085938 0.0546875 1.796875 -0.046875 C 1.515625 -0.160156 1.285156 -0.320312 1.109375 -0.53125 C 0.929688 -0.738281 0.804688 -0.988281 0.734375 -1.28125 C 0.671875 -1.570312 0.664062 -1.898438 0.71875 -2.265625 L 0.984375 -3.953125 C 1.109375 -4.703125 1.421875 -5.285156 1.921875 -5.703125 C 2.429688 -6.117188 3.066406 -6.328125 3.828125 -6.328125 C 4.210938 -6.328125 4.546875 -6.269531 4.828125 -6.15625 C 5.117188 -6.050781 5.351562 -5.894531 5.53125 -5.6875 C 5.707031 -5.488281 5.828125 -5.238281 5.890625 -4.9375 C 5.960938 -4.644531 5.972656 -4.316406 5.921875 -3.953125 L 5.734375 -2.8125 L 1.8125 -2.8125 L 1.734375 -2.3125 C 1.648438 -1.832031 1.71875 -1.453125 1.9375 -1.171875 C 2.164062 -0.898438 2.503906 -0.765625 2.953125 -0.765625 C 3.296875 -0.765625 3.597656 -0.820312 3.859375 -0.9375 C 4.128906 -1.050781 4.335938 -1.207031 4.484375 -1.40625 L 5.484375 -1.40625 C 5.285156 -0.9375 4.945312 -0.566406 4.46875 -0.296875 C 3.988281 -0.0234375 3.4375 0.109375 2.8125 0.109375 Z M 4.875 -3.640625 L 4.921875 -3.953125 C 5.003906 -4.429688 4.929688 -4.800781 4.703125 -5.0625 C 4.484375 -5.320312 4.144531 -5.453125 3.6875 -5.453125 C 3.226562 -5.453125 2.847656 -5.320312 2.546875 -5.0625 C 2.253906 -4.800781 2.066406 -4.429688 1.984375 -3.953125 L 1.9375 -3.640625 Z M 4.875 -3.640625 "/></g></g></g><g fill="#ffffff" fill-opacity="1"><g transform="translate(343.898129, 18.362724)"><g/></g></g><g fill="#ffffff" fill-opacity="1"><g transform="translate(350.682109, 18.362724)"><g><path d="M 0.65625 -0.921875 L 2.921875 -0.921875 L 3.609375 -5.296875 L 1.625 -5.296875 L 1.78125 -6.21875 L 4.78125 -6.21875 L 3.9375 -0.921875 L 5.796875 -0.921875 L 5.65625 0 L 0.515625 0 Z M 3.4375 -7.96875 C 3.476562 -8.164062 3.570312 -8.328125 3.71875 -8.453125 C 3.875 -8.585938 4.0625 -8.65625 4.28125 -8.65625 L 4.5 -8.65625 C 4.71875 -8.65625 4.882812 -8.585938 5 -8.453125 C 5.125 -8.328125 5.171875 -8.164062 5.140625 -7.96875 C 5.097656 -7.757812 5 -7.59375 4.84375 -7.46875 C 4.6875 -7.351562 4.5 -7.296875 4.28125 -7.296875 L 4.0625 -7.296875 C 3.84375 -7.296875 3.671875 -7.351562 3.546875 -7.46875 C 3.429688 -7.582031 3.394531 -7.75 3.4375 -7.96875 Z M 3.4375 -7.96875 "/></g></g></g><g fill="#ffffff" fill-opacity="1"><g transform="translate(357.466089, 18.362724)"><g><path d="M -0.078125 1.859375 L 0.0625 0.96875 L 0.59375 0.96875 C 0.976562 0.96875 1.285156 0.863281 1.515625 0.65625 C 1.742188 0.445312 1.890625 0.15625 1.953125 -0.21875 L 2.65625 -4.671875 L 0.84375 -4.671875 L 1 -5.59375 L 2.8125 -5.59375 L 2.984375 -6.671875 C 3.054688 -7.171875 3.269531 -7.5625 3.625 -7.84375 C 3.976562 -8.125 4.429688 -8.265625 4.984375 -8.265625 L 6.796875 -8.265625 L 6.65625 -7.328125 L 4.828125 -7.328125 C 4.347656 -7.328125 4.070312 -7.109375 4 -6.671875 L 3.828125 -5.59375 L 6.375 -5.59375 L 6.21875 -4.671875 L 3.671875 -4.671875 L 2.96875 -0.21875 C 2.863281 0.445312 2.59375 0.957031 2.15625 1.3125 C 1.71875 1.675781 1.144531 1.859375 0.4375 1.859375 Z M -0.078125 1.859375 "/></g></g></g><g fill="#ffffff" fill-opacity="1"><g transform="translate(364.250069, 18.362724)"><g/></g></g><g fill="#ffffff" fill-opacity="1"><g transform="translate(371.034038, 18.362724)"><g><path d="M 0.875 -2.703125 L 1.421875 -6.21875 L 2.421875 -6.21875 L 1.90625 -2.9375 C 1.820312 -2.457031 1.878906 -2.082031 2.078125 -1.8125 C 2.285156 -1.539062 2.609375 -1.40625 3.046875 -1.40625 C 3.472656 -1.40625 3.832031 -1.535156 4.125 -1.796875 C 4.414062 -2.066406 4.59375 -2.429688 4.65625 -2.890625 L 5.1875 -6.21875 L 6.1875 -6.21875 L 5.203125 -0.140625 C 5.097656 0.492188 4.835938 0.984375 4.421875 1.328125 C 4.003906 1.679688 3.453125 1.859375 2.765625 1.859375 L 1.109375 1.859375 L 1.25 0.984375 L 2.890625 0.984375 C 3.253906 0.984375 3.550781 0.882812 3.78125 0.6875 C 4.007812 0.488281 4.148438 0.210938 4.203125 -0.140625 L 4.296875 -0.671875 L 4.53125 -1.75 L 4.453125 -1.75 C 4.296875 -1.375 4.050781 -1.082031 3.71875 -0.875 C 3.382812 -0.664062 3 -0.5625 2.5625 -0.5625 C 1.945312 -0.5625 1.484375 -0.753906 1.171875 -1.140625 C 0.867188 -1.535156 0.769531 -2.054688 0.875 -2.703125 Z M 0.875 -2.703125 "/></g></g></g><g fill="#ffffff" fill-opacity="1"><g transform="translate(377.818007, 18.362724)"><g><path d="M 1.734375 -2.3125 C 1.648438 -1.84375 1.71875 -1.472656 1.9375 -1.203125 C 2.15625 -0.929688 2.492188 -0.796875 2.953125 -0.796875 C 3.398438 -0.796875 3.773438 -0.929688 4.078125 -1.203125 C 4.390625 -1.472656 4.585938 -1.84375 4.671875 -2.3125 L 4.921875 -3.90625 C 4.992188 -4.375 4.914062 -4.742188 4.6875 -5.015625 C 4.46875 -5.296875 4.132812 -5.4375 3.6875 -5.4375 C 3.238281 -5.4375 2.859375 -5.296875 2.546875 -5.015625 C 2.242188 -4.742188 2.054688 -4.375 1.984375 -3.90625 Z M 0.96875 -3.90625 C 1.019531 -4.28125 1.125 -4.613281 1.28125 -4.90625 C 1.445312 -5.207031 1.65625 -5.460938 1.90625 -5.671875 C 2.15625 -5.890625 2.441406 -6.050781 2.765625 -6.15625 C 3.097656 -6.269531 3.453125 -6.328125 3.828125 -6.328125 C 4.609375 -6.328125 5.1875 -6.113281 5.5625 -5.6875 C 5.9375 -5.269531 6.0625 -4.679688 5.9375 -3.921875 L 5.6875 -2.3125 C 5.5625 -1.5625 5.242188 -0.96875 4.734375 -0.53125 C 4.222656 -0.101562 3.582031 0.109375 2.8125 0.109375 C 2.03125 0.109375 1.453125 -0.101562 1.078125 -0.53125 C 0.703125 -0.957031 0.582031 -1.550781 0.71875 -2.3125 Z M 0.96875 -3.90625 "/></g></g></g><g fill="#ffffff" fill-opacity="1"><g transform="translate(384.601976, 18.362724)"><g><path d="M 0.828125 -2.1875 L 1.453125 -6.21875 L 2.484375 -6.21875 L 1.828125 -2.1875 C 1.660156 -1.25 2.03125 -0.78125 2.9375 -0.78125 C 3.851562 -0.78125 4.382812 -1.25 4.53125 -2.1875 L 5.171875 -6.21875 L 6.171875 -6.21875 L 5.53125 -2.1875 C 5.40625 -1.457031 5.109375 -0.890625 4.640625 -0.484375 C 4.179688 -0.0859375 3.566406 0.109375 2.796875 0.109375 C 2.054688 0.109375 1.515625 -0.09375 1.171875 -0.5 C 0.828125 -0.90625 0.710938 -1.46875 0.828125 -2.1875 Z M 0.828125 -2.1875 "/></g></g></g><g fill="#ffffff" fill-opacity="1"><g transform="translate(391.385945, 18.362724)"><g/></g></g><g fill="#ffffff" fill-opacity="1"><g transform="translate(398.169914, 18.362724)"><g><path d="M 1.40625 -6.21875 L 1.40625 -0.453125 L 1.515625 -0.453125 C 1.554688 -0.660156 1.597656 -0.859375 1.640625 -1.046875 C 1.679688 -1.203125 1.722656 -1.363281 1.765625 -1.53125 C 1.804688 -1.707031 1.835938 -1.847656 1.859375 -1.953125 L 3.09375 -6.21875 L 4.265625 -6.21875 L 4.28125 -1.953125 C 4.28125 -1.890625 4.28125 -1.78125 4.28125 -1.625 C 4.28125 -1.46875 4.285156 -1.300781 4.296875 -1.125 C 4.296875 -0.9375 4.296875 -0.71875 4.296875 -0.46875 L 4.40625 -0.46875 L 4.5625 -1.046875 C 4.613281 -1.203125 4.660156 -1.363281 4.703125 -1.53125 C 4.753906 -1.695312 4.789062 -1.835938 4.8125 -1.953125 L 6.03125 -6.21875 L 6.890625 -6.21875 L 5 0 L 3.59375 0 L 3.578125 -4.40625 L 3.578125 -5.0625 C 3.566406 -5.226562 3.5625 -5.40625 3.5625 -5.59375 L 3.453125 -5.59375 C 3.441406 -5.457031 3.425781 -5.320312 3.40625 -5.1875 C 3.382812 -5.070312 3.363281 -4.941406 3.34375 -4.796875 C 3.320312 -4.660156 3.296875 -4.53125 3.265625 -4.40625 L 1.984375 0 L 0.640625 0 L 0.640625 -6.21875 Z M 1.40625 -6.21875 "/></g></g></g><g fill="#ffffff" fill-opacity="1"><g transform="translate(404.953883, 18.362724)"><g><path d="M 0.671875 -2.3125 L 0.921875 -3.90625 C 0.972656 -4.269531 1.070312 -4.597656 1.21875 -4.890625 C 1.363281 -5.191406 1.539062 -5.445312 1.75 -5.65625 C 1.957031 -5.875 2.195312 -6.039062 2.46875 -6.15625 C 2.75 -6.269531 3.039062 -6.328125 3.34375 -6.328125 C 3.800781 -6.328125 4.148438 -6.222656 4.390625 -6.015625 C 4.628906 -5.804688 4.769531 -5.515625 4.8125 -5.140625 L 4.890625 -5.140625 L 5.0625 -6.21875 L 6 -6.21875 L 5.234375 -1.328125 C 5.203125 -1.171875 5.222656 -1.050781 5.296875 -0.96875 C 5.367188 -0.882812 5.472656 -0.84375 5.609375 -0.84375 L 6.09375 -0.84375 L 5.96875 0.03125 L 5.234375 0.03125 C 4.910156 0.03125 4.65625 -0.0703125 4.46875 -0.28125 C 4.289062 -0.488281 4.21875 -0.753906 4.25 -1.078125 L 4.15625 -1.078125 C 4.007812 -0.703125 3.78125 -0.410156 3.46875 -0.203125 C 3.15625 0.00390625 2.769531 0.109375 2.3125 0.109375 C 2.007812 0.109375 1.738281 0.0507812 1.5 -0.0625 C 1.269531 -0.175781 1.082031 -0.335938 0.9375 -0.546875 C 0.789062 -0.765625 0.691406 -1.019531 0.640625 -1.3125 C 0.597656 -1.613281 0.609375 -1.945312 0.671875 -2.3125 Z M 2.828125 -0.765625 C 3.222656 -0.765625 3.554688 -0.890625 3.828125 -1.140625 C 4.097656 -1.390625 4.28125 -1.738281 4.375 -2.1875 L 4.65625 -4 C 4.707031 -4.457031 4.632812 -4.8125 4.4375 -5.0625 C 4.25 -5.320312 3.957031 -5.453125 3.5625 -5.453125 C 3.113281 -5.453125 2.742188 -5.3125 2.453125 -5.03125 C 2.171875 -4.757812 1.988281 -4.382812 1.90625 -3.90625 L 1.65625 -2.3125 C 1.570312 -1.832031 1.632812 -1.453125 1.84375 -1.171875 C 2.050781 -0.898438 2.378906 -0.765625 2.828125 -0.765625 Z M 2.828125 -0.765625 "/></g></g></g><g fill="#ffffff" fill-opacity="1"><g transform="translate(411.737852, 18.362724)"><g><path d="M 0.4375 0 L 1.40625 -6.21875 L 2.375 -6.21875 L 2.21875 -5.140625 L 2.296875 -5.140625 C 2.453125 -5.523438 2.695312 -5.816406 3.03125 -6.015625 C 3.363281 -6.222656 3.753906 -6.328125 4.203125 -6.328125 C 4.503906 -6.328125 4.769531 -6.269531 5 -6.15625 C 5.226562 -6.050781 5.414062 -5.898438 5.5625 -5.703125 C 5.71875 -5.515625 5.820312 -5.28125 5.875 -5 C 5.9375 -4.726562 5.9375 -4.421875 5.875 -4.078125 L 5.234375 0 L 4.21875 0 L 4.859375 -3.96875 C 4.929688 -4.445312 4.867188 -4.816406 4.671875 -5.078125 C 4.484375 -5.335938 4.175781 -5.46875 3.75 -5.46875 C 3.3125 -5.46875 2.941406 -5.332031 2.640625 -5.0625 C 2.347656 -4.800781 2.160156 -4.4375 2.078125 -3.96875 L 1.453125 0 Z M 0.4375 0 "/></g></g></g><g fill="#ffffff" fill-opacity="1"><g transform="translate(418.521821, 18.362724)"><g><path d="M 1.09375 -6.21875 L 2.90625 -6.21875 L 3.21875 -8.140625 L 4.234375 -8.140625 L 3.921875 -6.21875 L 6.359375 -6.21875 L 6.203125 -5.296875 L 3.78125 -5.296875 L 3.203125 -1.609375 C 3.160156 -1.398438 3.195312 -1.234375 3.3125 -1.109375 C 3.425781 -0.984375 3.597656 -0.921875 3.828125 -0.921875 L 5.40625 -0.921875 L 5.265625 0 L 3.671875 0 C 3.410156 0 3.175781 -0.0351562 2.96875 -0.109375 C 2.769531 -0.179688 2.601562 -0.289062 2.46875 -0.4375 C 2.34375 -0.582031 2.253906 -0.753906 2.203125 -0.953125 C 2.148438 -1.148438 2.144531 -1.367188 2.1875 -1.609375 L 2.765625 -5.296875 L 0.953125 -5.296875 Z M 1.09375 -6.21875 "/></g></g></g><g fill="#ffffff" fill-opacity="1"><g transform="translate(425.30579, 18.362724)"><g/></g></g><g fill="#ffffff" fill-opacity="1"><g transform="translate(432.089759, 18.362724)"><g><path d="M 1.09375 -6.21875 L 2.90625 -6.21875 L 3.21875 -8.140625 L 4.234375 -8.140625 L 3.921875 -6.21875 L 6.359375 -6.21875 L 6.203125 -5.296875 L 3.78125 -5.296875 L 3.203125 -1.609375 C 3.160156 -1.398438 3.195312 -1.234375 3.3125 -1.109375 C 3.425781 -0.984375 3.597656 -0.921875 3.828125 -0.921875 L 5.40625 -0.921875 L 5.265625 0 L 3.671875 0 C 3.410156 0 3.175781 -0.0351562 2.96875 -0.109375 C 2.769531 -0.179688 2.601562 -0.289062 2.46875 -0.4375 C 2.34375 -0.582031 2.253906 -0.753906 2.203125 -0.953125 C 2.148438 -1.148438 2.144531 -1.367188 2.1875 -1.609375 L 2.765625 -5.296875 L 0.953125 -5.296875 Z M 1.09375 -6.21875 "/></g></g></g><g fill="#ffffff" fill-opacity="1"><g transform="translate(438.873728, 18.362724)"><g><path d="M 1.734375 -2.3125 C 1.648438 -1.84375 1.71875 -1.472656 1.9375 -1.203125 C 2.15625 -0.929688 2.492188 -0.796875 2.953125 -0.796875 C 3.398438 -0.796875 3.773438 -0.929688 4.078125 -1.203125 C 4.390625 -1.472656 4.585938 -1.84375 4.671875 -2.3125 L 4.921875 -3.90625 C 4.992188 -4.375 4.914062 -4.742188 4.6875 -5.015625 C 4.46875 -5.296875 4.132812 -5.4375 3.6875 -5.4375 C 3.238281 -5.4375 2.859375 -5.296875 2.546875 -5.015625 C 2.242188 -4.742188 2.054688 -4.375 1.984375 -3.90625 Z M 0.96875 -3.90625 C 1.019531 -4.28125 1.125 -4.613281 1.28125 -4.90625 C 1.445312 -5.207031 1.65625 -5.460938 1.90625 -5.671875 C 2.15625 -5.890625 2.441406 -6.050781 2.765625 -6.15625 C 3.097656 -6.269531 3.453125 -6.328125 3.828125 -6.328125 C 4.609375 -6.328125 5.1875 -6.113281 5.5625 -5.6875 C 5.9375 -5.269531 6.0625 -4.679688 5.9375 -3.921875 L 5.6875 -2.3125 C 5.5625 -1.5625 5.242188 -0.96875 4.734375 -0.53125 C 4.222656 -0.101562 3.582031 0.109375 2.8125 0.109375 C 2.03125 0.109375 1.453125 -0.101562 1.078125 -0.53125 C 0.703125 -0.957031 0.582031 -1.550781 0.71875 -2.3125 Z M 0.96875 -3.90625 "/></g></g></g><g fill="#ffffff" fill-opacity="1"><g transform="translate(445.657697, 18.362724)"><g/></g></g><g fill="#ffffff" fill-opacity="1"><g transform="translate(452.441666, 18.362724)"><g><path d="M 0.828125 -2.1875 L 1.453125 -6.21875 L 2.484375 -6.21875 L 1.828125 -2.1875 C 1.660156 -1.25 2.03125 -0.78125 2.9375 -0.78125 C 3.851562 -0.78125 4.382812 -1.25 4.53125 -2.1875 L 5.171875 -6.21875 L 6.171875 -6.21875 L 5.53125 -2.1875 C 5.40625 -1.457031 5.109375 -0.890625 4.640625 -0.484375 C 4.179688 -0.0859375 3.566406 0.109375 2.796875 0.109375 C 2.054688 0.109375 1.515625 -0.09375 1.171875 -0.5 C 0.828125 -0.90625 0.710938 -1.46875 0.828125 -2.1875 Z M 0.828125 -2.1875 "/></g></g></g><g fill="#ffffff" fill-opacity="1"><g transform="translate(459.225635, 18.362724)"><g><path d="M 2.640625 0.109375 C 1.992188 0.109375 1.484375 -0.0351562 1.109375 -0.328125 C 0.742188 -0.628906 0.570312 -1.03125 0.59375 -1.53125 L 1.59375 -1.53125 C 1.613281 -1.3125 1.726562 -1.132812 1.9375 -1 C 2.15625 -0.863281 2.4375 -0.796875 2.78125 -0.796875 L 3.09375 -0.796875 C 3.5 -0.796875 3.828125 -0.878906 4.078125 -1.046875 C 4.335938 -1.210938 4.488281 -1.441406 4.53125 -1.734375 C 4.613281 -2.242188 4.316406 -2.546875 3.640625 -2.640625 L 2.71875 -2.78125 C 1.5625 -2.945312 1.0625 -3.539062 1.21875 -4.5625 C 1.3125 -5.125 1.570312 -5.554688 2 -5.859375 C 2.4375 -6.171875 3.007812 -6.328125 3.71875 -6.328125 L 4.03125 -6.328125 C 4.625 -6.328125 5.09375 -6.1875 5.4375 -5.90625 C 5.789062 -5.625 5.96875 -5.242188 5.96875 -4.765625 L 4.984375 -4.765625 C 4.960938 -4.960938 4.851562 -5.125 4.65625 -5.25 C 4.457031 -5.375 4.203125 -5.4375 3.890625 -5.4375 L 3.578125 -5.4375 C 3.191406 -5.4375 2.878906 -5.359375 2.640625 -5.203125 C 2.398438 -5.054688 2.257812 -4.832031 2.21875 -4.53125 C 2.175781 -4.28125 2.21875 -4.085938 2.34375 -3.953125 C 2.46875 -3.828125 2.691406 -3.742188 3.015625 -3.703125 L 3.9375 -3.5625 C 5.164062 -3.382812 5.695312 -2.773438 5.53125 -1.734375 C 5.4375 -1.148438 5.164062 -0.695312 4.71875 -0.375 C 4.269531 -0.0507812 3.679688 0.109375 2.953125 0.109375 Z M 2.640625 0.109375 "/></g></g></g><g fill="#ffffff" fill-opacity="1"><g transform="translate(466.009604, 18.362724)"><g><path d="M 2.8125 0.109375 C 2.425781 0.109375 2.085938 0.0546875 1.796875 -0.046875 C 1.515625 -0.160156 1.285156 -0.320312 1.109375 -0.53125 C 0.929688 -0.738281 0.804688 -0.988281 0.734375 -1.28125 C 0.671875 -1.570312 0.664062 -1.898438 0.71875 -2.265625 L 0.984375 -3.953125 C 1.109375 -4.703125 1.421875 -5.285156 1.921875 -5.703125 C 2.429688 -6.117188 3.066406 -6.328125 3.828125 -6.328125 C 4.210938 -6.328125 4.546875 -6.269531 4.828125 -6.15625 C 5.117188 -6.050781 5.351562 -5.894531 5.53125 -5.6875 C 5.707031 -5.488281 5.828125 -5.238281 5.890625 -4.9375 C 5.960938 -4.644531 5.972656 -4.316406 5.921875 -3.953125 L 5.734375 -2.8125 L 1.8125 -2.8125 L 1.734375 -2.3125 C 1.648438 -1.832031 1.71875 -1.453125 1.9375 -1.171875 C 2.164062 -0.898438 2.503906 -0.765625 2.953125 -0.765625 C 3.296875 -0.765625 3.597656 -0.820312 3.859375 -0.9375 C 4.128906 -1.050781 4.335938 -1.207031 4.484375 -1.40625 L 5.484375 -1.40625 C 5.285156 -0.9375 4.945312 -0.566406 4.46875 -0.296875 C 3.988281 -0.0234375 3.4375 0.109375 2.8125 0.109375 Z M 4.875 -3.640625 L 4.921875 -3.953125 C 5.003906 -4.429688 4.929688 -4.800781 4.703125 -5.0625 C 4.484375 -5.320312 4.144531 -5.453125 3.6875 -5.453125 C 3.226562 -5.453125 2.847656 -5.320312 2.546875 -5.0625 C 2.253906 -4.800781 2.066406 -4.429688 1.984375 -3.953125 L 1.9375 -3.640625 Z M 4.875 -3.640625 "/></g></g></g><g fill="#ffffff" fill-opacity="1"><g transform="translate(472.793573, 18.362724)"><g/></g></g><g fill="#ffffff" fill-opacity="1"><g transform="translate(479.577542, 18.362724)"><g><path d="M 0.28125 0 L 1.578125 -8.140625 L 2.84375 -8.140625 L 3.390625 -5.390625 C 3.410156 -5.304688 3.425781 -5.207031 3.4375 -5.09375 C 3.457031 -4.988281 3.476562 -4.890625 3.5 -4.796875 C 3.5 -4.679688 3.507812 -4.570312 3.53125 -4.46875 L 3.578125 -4.46875 L 3.609375 -4.53125 C 3.617188 -4.550781 3.628906 -4.578125 3.640625 -4.609375 C 3.660156 -4.640625 3.675781 -4.675781 3.6875 -4.71875 C 3.726562 -4.8125 3.769531 -4.921875 3.8125 -5.046875 C 3.863281 -5.171875 3.914062 -5.285156 3.96875 -5.390625 L 5.34375 -8.140625 L 6.65625 -8.140625 L 5.375 0 L 4.421875 0 L 5.328125 -5.71875 C 5.335938 -5.832031 5.359375 -5.960938 5.390625 -6.109375 C 5.421875 -6.265625 5.453125 -6.414062 5.484375 -6.5625 C 5.523438 -6.726562 5.5625 -6.894531 5.59375 -7.0625 L 5.546875 -7.0625 C 5.472656 -6.90625 5.40625 -6.75 5.34375 -6.59375 C 5.28125 -6.457031 5.207031 -6.3125 5.125 -6.15625 C 5.050781 -6 4.984375 -5.851562 4.921875 -5.71875 L 3.890625 -3.625 L 2.9375 -3.625 L 2.5625 -5.71875 C 2.539062 -5.851562 2.515625 -6 2.484375 -6.15625 C 2.460938 -6.320312 2.445312 -6.472656 2.4375 -6.609375 C 2.40625 -6.765625 2.378906 -6.914062 2.359375 -7.0625 L 2.3125 -7.0625 C 2.289062 -6.90625 2.273438 -6.742188 2.265625 -6.578125 C 2.242188 -6.441406 2.222656 -6.296875 2.203125 -6.140625 C 2.179688 -5.984375 2.160156 -5.84375 2.140625 -5.71875 L 1.234375 0 Z M 0.28125 0 "/></g></g></g><g fill="#ffffff" fill-opacity="1"><g transform="translate(486.361511, 18.362724)"><g><path d="M 1.671875 -3.09375 L 1.671875 -3.140625 L 1.703125 -3.140625 L 3.84375 -8.140625 L 5.265625 -8.140625 L 6.125 0 L 5.09375 0 L 4.890625 -2.296875 L 2.375 -2.296875 L 1.421875 0 L 0.34375 0 Z M 2.71875 -3.140625 L 4.8125 -3.140625 L 4.53125 -6.375 C 4.507812 -6.6875 4.5 -6.945312 4.5 -7.15625 C 4.5 -7.269531 4.5 -7.375 4.5 -7.46875 L 4.453125 -7.46875 C 4.421875 -7.375 4.390625 -7.269531 4.359375 -7.15625 C 4.316406 -7.050781 4.269531 -6.929688 4.21875 -6.796875 C 4.175781 -6.671875 4.117188 -6.53125 4.046875 -6.375 Z M 2.71875 -3.140625 "/></g></g></g><g fill="#ffffff" fill-opacity="1"><g transform="translate(493.14548, 18.362724)"><g><path d="M 1.09375 -7.25 L 1.234375 -8.140625 L 7 -8.140625 L 6.859375 -7.25 L 4.5 -7.25 L 3.34375 0 L 2.3125 0 L 3.46875 -7.25 Z M 1.09375 -7.25 "/></g></g></g><g fill="#ffffff" fill-opacity="1"><g transform="translate(499.929449, 18.362724)"><g><path d="M 1.828125 -8.140625 L 6.609375 -8.140625 L 6.453125 -7.234375 L 2.671875 -7.234375 L 2.265625 -4.65625 L 5.65625 -4.65625 L 5.515625 -3.734375 L 2.109375 -3.734375 L 1.671875 -0.90625 L 5.46875 -0.90625 L 5.3125 0 L 0.53125 0 Z M 1.828125 -8.140625 "/></g></g></g></svg>