<svg xmlns="http://www.w3.org/2000/svg" xmlns:xlink="http://www.w3.org/1999/xlink" width="1920" zoomAndPan="magnify" viewBox="0 0 1440 809.999993" height="1080" preserveAspectRatio="xMidYMid meet" version="1.0"><defs><clipPath id="6b787ea480"><path d="M 432.082031 3 L 968 3 L 968 781 L 432.082031 781 Z M 432.082031 3 " clip-rule="nonzero"/></clipPath><clipPath id="1cf77c5fe7"><path d="M 432.082031 13 L 968 13 L 968 781 L 432.082031 781 Z M 432.082031 13 " clip-rule="nonzero"/></clipPath><clipPath id="da3b636290"><path d="M 432.082031 330 L 831 330 L 831 781 L 432.082031 781 Z M 432.082031 330 " clip-rule="nonzero"/></clipPath></defs><g clip-path="url(#6b787ea480)"><path fill="#dcf1f9" d="M 967.542969 60.554688 L 888.492188 15.28125 C 885.03125 12.765625 881.328125 10.632812 877.386719 8.917969 L 876.222656 8.253906 L 876.171875 8.359375 C 854.90625 -0.296875 827.433594 2.828125 797.464844 20.121094 L 553.992188 160.644531 C 487.042969 199.289062 432.269531 294.132812 432.269531 371.421875 L 432.269531 652.464844 C 432.269531 690.152344 445.363281 716.878906 466.472656 730 L 466.269531 730.363281 L 554.125 780.121094 L 603.53125 694.132812 L 797.464844 582.207031 C 864.398438 543.5625 919.1875 448.71875 919.1875 371.429688 L 919.1875 144.714844 Z M 967.542969 60.554688 " fill-opacity="1" fill-rule="nonzero"/></g><g clip-path="url(#1cf77c5fe7)"><path fill="#cce6f2" d="M 967.542969 60.554688 L 882.929688 40.714844 C 879.46875 38.195312 862.191406 38.261719 858.253906 36.542969 L 851.976562 34.035156 L 840.679688 31.929688 C 819.414062 23.289062 827.433594 2.828125 797.46875 20.121094 L 553.992188 160.644531 C 487.042969 199.289062 432.269531 294.132812 432.269531 371.421875 L 432.269531 652.464844 C 432.269531 690.152344 445.363281 716.878906 466.472656 730 L 466.269531 730.363281 L 554.125 780.121094 L 603.53125 694.132812 L 797.46875 582.207031 C 864.398438 543.5625 919.1875 448.71875 919.1875 371.429688 L 919.1875 144.714844 Z M 967.542969 60.554688 " fill-opacity="1" fill-rule="nonzero"/></g><g clip-path="url(#da3b636290)"><path fill="#bfd9e8" d="M 436.90625 330.933594 C 433.953125 344.6875 432.269531 358.316406 432.269531 371.421875 L 432.269531 652.464844 C 432.269531 690.152344 445.363281 716.878906 466.472656 730 L 466.269531 730.363281 L 554.125 780.121094 L 603.53125 694.132812 L 797.46875 582.207031 C 808.835938 575.640625 819.832031 567.34375 830.28125 557.894531 Z M 436.90625 330.933594 " fill-opacity="1" fill-rule="nonzero"/></g><path fill="#ffffff" d="M 637.664062 209.152344 C 570.71875 247.796875 515.933594 342.640625 515.933594 419.929688 L 515.933594 700.96875 C 515.933594 778.265625 570.71875 809.871094 637.664062 771.230469 L 881.128906 630.710938 C 948.074219 592.066406 1002.859375 497.21875 1002.859375 419.929688 L 1002.859375 138.894531 C 1002.859375 61.605469 948.074219 29.996094 881.128906 68.632812 Z M 637.664062 209.152344 " fill-opacity="1" fill-rule="nonzero"/><path fill="#5bc0d8" d="M 1002.867188 138.894531 C 1002.867188 61.605469 948.082031 29.996094 881.136719 68.632812 L 637.664062 209.152344 C 570.71875 247.796875 515.933594 342.640625 515.933594 419.929688 L 515.933594 700.96875 C 515.933594 778.265625 570.71875 809.871094 637.664062 771.230469 " fill-opacity="0.098" fill-rule="nonzero"/><path fill="#ffffff" d="M 583.59375 792.738281 L 583.582031 792.738281 C 539.445312 792.738281 510.925781 756.714844 510.925781 700.96875 L 510.925781 419.929688 C 510.925781 340.847656 566.648438 244.335938 635.148438 204.8125 L 878.625 64.289062 C 898.363281 52.898438 917.40625 47.125 935.21875 47.125 C 979.355469 47.125 1007.886719 83.152344 1007.886719 138.894531 L 1007.886719 419.9375 C 1007.886719 499.019531 952.152344 595.527344 883.652344 635.0625 L 640.175781 775.578125 C 620.429688 786.964844 601.402344 792.738281 583.59375 792.738281 Z M 935.21875 57.167969 C 919.1875 57.167969 901.835938 62.488281 883.652344 72.972656 L 640.175781 213.492188 C 574.445312 251.4375 520.957031 344.046875 520.957031 419.929688 L 520.957031 700.96875 C 520.957031 751.382812 544.949219 782.703125 583.582031 782.703125 L 583.59375 782.703125 C 599.625 782.703125 616.964844 777.378906 635.148438 766.890625 L 878.625 626.375 C 944.355469 588.433594 997.839844 495.820312 997.839844 419.9375 L 997.839844 138.894531 C 997.839844 88.484375 973.855469 57.167969 935.21875 57.167969 Z M 935.21875 57.167969 " fill-opacity="1" fill-rule="nonzero"/><path fill="#0a935f" d="M 661.453125 454.050781 C 662.410156 454.050781 663.371094 453.796875 664.222656 453.308594 L 864.308594 337.828125 C 866.023438 336.839844 867.078125 335.015625 867.078125 333.050781 C 867.089844 309.96875 861.328125 290.578125 850.421875 276.976562 C 830.535156 252.195312 795.226562 249.429688 758.753906 270.488281 C 702.050781 303.246094 655.917969 383.109375 655.917969 448.507812 C 655.917969 450.488281 656.972656 452.3125 658.679688 453.304688 C 659.535156 453.796875 660.5 454.050781 661.453125 454.050781 Z M 661.453125 454.050781 " fill-opacity="1" fill-rule="nonzero"/><path fill="#17bc52" d="M 855.09375 370.175781 C 845.605469 370.175781 833.359375 377.390625 819.171875 385.734375 L 708.195312 449.863281 L 700.585938 454.199219 C 675.46875 468.386719 653.785156 480.644531 653.785156 513.648438 L 653.785156 608.003906 C 653.785156 633.722656 667.21875 650.347656 688.011719 650.347656 L 688.023438 650.347656 C 696.183594 650.347656 704.839844 647.742188 713.738281 642.605469 L 817.042969 582.984375 C 847.054688 565.648438 871.464844 523.375 871.464844 488.75 L 871.464844 394.402344 C 871.460938 374.375 862.5625 370.175781 855.09375 370.175781 Z M 855.09375 370.175781 " fill-opacity="1" fill-rule="nonzero"/><path fill="#0a935f" d="M 855.09375 370.175781 C 845.605469 370.175781 833.359375 377.390625 819.171875 385.734375 L 708.195312 449.863281 L 700.585938 454.199219 C 675.46875 468.386719 653.785156 480.644531 653.785156 513.648438 L 653.785156 608.003906 C 653.785156 633.722656 667.21875 650.347656 688.011719 650.347656 L 688.023438 650.347656 C 691.121094 650.347656 694.3125 649.855469 697.539062 649.109375 L 858.4375 370.503906 C 857.308594 370.28125 856.1875 370.175781 855.09375 370.175781 Z M 855.09375 370.175781 " fill-opacity="1" fill-rule="nonzero"/><path fill="#0a935f" d="M 805.636719 277.6875 C 803.535156 277.6875 801.402344 277.15625 799.453125 276.023438 C 793.519531 272.601562 791.484375 265.019531 794.914062 259.09375 L 823.554688 209.503906 C 826.992188 203.578125 834.5625 201.539062 840.488281 204.976562 C 846.417969 208.398438 848.453125 215.976562 845.027344 221.90625 L 816.382812 271.484375 C 814.089844 275.472656 809.929688 277.6875 805.636719 277.6875 Z M 805.636719 277.6875 " fill-opacity="1" fill-rule="nonzero"/><path fill="#0a935f" d="M 719.742188 327.273438 C 717.632812 327.273438 715.5 326.738281 713.550781 325.601562 L 684.75 308.984375 C 678.816406 305.554688 676.78125 297.980469 680.21875 292.050781 C 683.640625 286.121094 691.222656 284.09375 697.148438 287.519531 L 725.953125 304.136719 C 731.882812 307.566406 733.917969 315.140625 730.484375 321.070312 C 728.191406 325.054688 724.023438 327.273438 719.742188 327.273438 Z M 719.742188 327.273438 " fill-opacity="1" fill-rule="nonzero"/><path fill="#ffffff" d="M 710.53125 389.007812 C 710.53125 382.53125 715.105469 374.589844 720.71875 371.359375 C 726.328125 368.125 730.914062 370.761719 730.914062 377.242188 C 730.914062 383.714844 726.328125 391.660156 720.71875 394.898438 C 715.105469 398.125 710.53125 395.488281 710.53125 389.007812 Z M 710.53125 389.007812 " fill-opacity="1" fill-rule="nonzero"/><path fill="#ffffff" d="M 797.410156 339.34375 C 797.410156 332.863281 802 324.917969 807.609375 321.6875 C 813.222656 318.453125 817.796875 321.089844 817.796875 327.570312 C 817.796875 334.046875 813.207031 341.988281 807.609375 345.222656 C 802 348.460938 797.410156 345.816406 797.410156 339.34375 Z M 797.410156 339.34375 " fill-opacity="1" fill-rule="nonzero"/></svg>