<svg xmlns="http://www.w3.org/2000/svg" xmlns:xlink="http://www.w3.org/1999/xlink" width="1920" zoomAndPan="magnify" viewBox="0 0 1440 809.999993" height="1080" preserveAspectRatio="xMidYMid meet" version="1.0"><defs><g/><clipPath id="690944ffe1"><path d="M 427.429688 0 L 831 0 L 831 495 L 427.429688 495 Z M 427.429688 0 " clip-rule="nonzero"/></clipPath><clipPath id="1235163a03"><path d="M 709 282 L 1012.429688 282 L 1012.429688 585 L 709 585 Z M 709 282 " clip-rule="nonzero"/></clipPath></defs><g clip-path="url(#690944ffe1)"><path fill="#c3c9d3" d="M 830.875 285.449219 L 830.875 78.996094 C 830.875 73.636719 828.75 68.476562 824.925781 64.652344 L 766.222656 5.949219 C 762.402344 2.128906 757.238281 0 751.882812 0 L 457.6875 0 C 440.941406 0 427.429688 13.515625 427.429688 30.257812 L 427.429688 463.964844 C 427.429688 480.710938 440.941406 494.222656 457.6875 494.222656 L 722.449219 494.222656 L 830.875 285.449219 " fill-opacity="1" fill-rule="nonzero"/></g><path fill="#edf0f2" d="M 558.550781 161.378906 L 498.03125 161.378906 C 486.882812 161.378906 477.859375 152.355469 477.859375 141.207031 L 477.859375 80.691406 C 477.859375 69.539062 486.882812 60.515625 498.03125 60.515625 L 558.550781 60.515625 C 569.699219 60.515625 578.722656 69.539062 578.722656 80.691406 L 578.722656 141.207031 C 578.722656 152.355469 569.699219 161.378906 558.550781 161.378906 " fill-opacity="1" fill-rule="nonzero"/><path fill="#edf0f2" d="M 558.550781 302.585938 L 498.03125 302.585938 C 486.882812 302.585938 477.859375 293.5625 477.859375 282.414062 L 477.859375 221.898438 C 477.859375 210.746094 486.882812 201.722656 498.03125 201.722656 L 558.550781 201.722656 C 569.699219 201.722656 578.722656 210.746094 578.722656 221.898438 L 578.722656 282.414062 C 578.722656 293.5625 569.699219 302.585938 558.550781 302.585938 " fill-opacity="1" fill-rule="nonzero"/><path fill="#edf0f2" d="M 558.550781 443.792969 L 498.03125 443.792969 C 486.882812 443.792969 477.859375 434.769531 477.859375 423.621094 L 477.859375 363.101562 C 477.859375 351.953125 486.882812 342.929688 498.03125 342.929688 L 558.550781 342.929688 C 569.699219 342.929688 578.722656 351.953125 578.722656 363.101562 L 578.722656 423.621094 C 578.722656 434.769531 569.699219 443.792969 558.550781 443.792969 " fill-opacity="1" fill-rule="nonzero"/><g clip-path="url(#1235163a03)"><path fill="#009d8a" d="M 1012.429688 433.707031 C 1012.429688 517.273438 944.699219 585 861.136719 585 C 777.570312 585 709.84375 517.273438 709.84375 433.707031 C 709.84375 350.140625 777.570312 282.414062 861.136719 282.414062 C 944.699219 282.414062 1012.429688 350.140625 1012.429688 433.707031 " fill-opacity="1" fill-rule="nonzero"/></g><path fill="#7c8798" d="M 829.0625 70.601562 L 790.53125 70.601562 C 773.785156 70.601562 760.273438 57.089844 760.273438 40.34375 L 760.273438 1.8125 C 762.480469 2.835938 764.488281 4.214844 766.222656 5.949219 L 824.925781 64.652344 C 826.660156 66.386719 828.039062 68.398438 829.0625 70.601562 " fill-opacity="1" fill-rule="nonzero"/><path fill="#009d8a" d="M 538.375 131.121094 C 535.777344 131.121094 533.214844 130.136719 531.246094 128.164062 L 511.074219 107.992188 C 507.132812 104.054688 507.132812 97.671875 511.074219 93.730469 C 515.011719 89.789062 521.394531 89.789062 525.335938 93.730469 L 538.375 106.773438 L 601.847656 43.300781 C 605.789062 39.359375 612.171875 39.359375 616.109375 43.300781 C 620.050781 47.238281 620.050781 53.621094 616.109375 57.5625 L 545.507812 128.164062 C 543.539062 130.136719 540.976562 131.121094 538.375 131.121094 " fill-opacity="1" fill-rule="nonzero"/><path fill="#009d8a" d="M 538.375 272.328125 C 535.777344 272.328125 533.214844 271.34375 531.246094 269.371094 L 511.074219 249.199219 C 507.132812 245.261719 507.132812 238.878906 511.074219 234.9375 C 515.011719 230.996094 521.394531 230.996094 525.335938 234.9375 L 538.375 247.980469 L 601.847656 184.507812 C 605.789062 180.566406 612.171875 180.566406 616.109375 184.507812 C 620.050781 188.445312 620.050781 194.828125 616.109375 198.769531 L 545.507812 269.371094 C 543.539062 271.34375 540.976562 272.328125 538.375 272.328125 " fill-opacity="1" fill-rule="nonzero"/><path fill="#009d8a" d="M 538.375 413.535156 C 535.777344 413.535156 533.214844 412.550781 531.246094 410.578125 L 511.074219 390.40625 C 507.132812 386.46875 507.132812 380.085938 511.074219 376.144531 C 515.011719 372.203125 521.394531 372.203125 525.335938 376.144531 L 538.375 389.1875 L 601.847656 325.714844 C 605.789062 321.773438 612.171875 321.773438 616.109375 325.714844 C 620.050781 329.652344 620.050781 336.035156 616.109375 339.976562 L 545.507812 410.578125 C 543.539062 412.550781 540.976562 413.535156 538.375 413.535156 " fill-opacity="1" fill-rule="nonzero"/><path fill="#edf0f2" d="M 830.875 514.398438 C 828.199219 514.398438 825.636719 513.332031 823.746094 511.441406 L 793.488281 481.183594 C 789.546875 477.242188 789.546875 470.859375 793.488281 466.921875 C 797.425781 462.980469 803.808594 462.980469 807.75 466.921875 L 829.183594 488.3125 L 913.179688 357.667969 C 916.175781 352.976562 922.402344 351.597656 927.089844 354.632812 C 931.777344 357.625 933.15625 363.890625 930.125 368.539062 L 839.347656 509.785156 C 837.691406 512.308594 834.972656 514.003906 831.941406 514.316406 C 831.585938 514.398438 831.230469 514.398438 830.875 514.398438 " fill-opacity="1" fill-rule="nonzero"/><path fill="#6b7788" d="M 719.929688 90.777344 L 649.324219 90.777344 C 643.769531 90.777344 639.238281 86.246094 639.238281 80.691406 C 639.238281 75.132812 643.769531 70.601562 649.324219 70.601562 L 719.929688 70.601562 C 725.484375 70.601562 730.015625 75.132812 730.015625 80.691406 C 730.015625 86.246094 725.484375 90.777344 719.929688 90.777344 " fill-opacity="1" fill-rule="nonzero"/><path fill="#6b7788" d="M 709.84375 141.207031 L 649.324219 141.207031 C 643.769531 141.207031 639.238281 136.675781 639.238281 131.121094 C 639.238281 125.566406 643.769531 121.035156 649.324219 121.035156 L 709.84375 121.035156 C 715.398438 121.035156 719.929688 125.566406 719.929688 131.121094 C 719.929688 136.675781 715.398438 141.207031 709.84375 141.207031 " fill-opacity="1" fill-rule="nonzero"/><path fill="#6b7788" d="M 780.445312 231.984375 L 649.324219 231.984375 C 643.769531 231.984375 639.238281 227.453125 639.238281 221.898438 C 639.238281 216.339844 643.769531 211.808594 649.324219 211.808594 L 780.445312 211.808594 C 786 211.808594 790.53125 216.339844 790.53125 221.898438 C 790.53125 227.453125 786 231.984375 780.445312 231.984375 " fill-opacity="1" fill-rule="nonzero"/><path fill="#6b7788" d="M 709.84375 282.414062 L 649.324219 282.414062 C 643.769531 282.414062 639.238281 277.882812 639.238281 272.328125 C 639.238281 266.773438 643.769531 262.242188 649.324219 262.242188 L 709.84375 262.242188 C 715.398438 262.242188 719.929688 266.773438 719.929688 272.328125 C 719.929688 277.882812 715.398438 282.414062 709.84375 282.414062 " fill-opacity="1" fill-rule="nonzero"/><path fill="#6b7788" d="M 679.582031 373.191406 L 649.324219 373.191406 C 643.769531 373.191406 639.238281 368.660156 639.238281 363.101562 C 639.238281 357.546875 643.769531 353.015625 649.324219 353.015625 L 679.582031 353.015625 C 685.140625 353.015625 689.667969 357.546875 689.667969 363.101562 C 689.667969 368.660156 685.140625 373.191406 679.582031 373.191406 " fill-opacity="1" fill-rule="nonzero"/><path fill="#6b7788" d="M 669.496094 423.621094 L 649.324219 423.621094 C 643.769531 423.621094 639.238281 419.089844 639.238281 413.535156 C 639.238281 407.980469 643.769531 403.449219 649.324219 403.449219 L 669.496094 403.449219 C 675.050781 403.449219 679.582031 407.980469 679.582031 413.535156 C 679.582031 419.089844 675.050781 423.621094 669.496094 423.621094 " fill-opacity="1" fill-rule="nonzero"/><g fill="#000000" fill-opacity="1"><g transform="translate(362.197516, 789.456596)"><g><path d="M 30.667969 0 L 47.171875 0 L 47.171875 -32.296875 L 76.410156 -79.773438 L 57.5625 -79.773438 L 38.917969 -47.882812 L 20.476562 -79.773438 L 1.425781 -79.773438 L 30.667969 -31.582031 Z M 30.667969 0 "/></g></g></g><g fill="#000000" fill-opacity="1"><g transform="translate(439.930298, 789.456596)"><g><path d="M 3.972656 -27.101562 C 3.972656 -10.699219 17.117188 1.222656 33.621094 1.222656 C 50.023438 1.222656 63.371094 -11.003906 63.371094 -27.40625 C 63.371094 -43.605469 50.226562 -55.628906 33.824219 -55.628906 C 17.320312 -55.628906 3.972656 -43.300781 3.972656 -27.101562 Z M 20.273438 -27.304688 C 20.273438 -35.453125 26.183594 -41.160156 33.621094 -41.160156 C 41.058594 -41.160156 47.070312 -35.453125 47.070312 -27.304688 C 47.070312 -19.050781 41.160156 -13.347656 33.722656 -13.347656 C 26.285156 -13.347656 20.273438 -19.050781 20.273438 -27.304688 Z M 20.273438 -27.304688 "/></g></g></g><g fill="#000000" fill-opacity="1"><g transform="translate(507.271548, 789.456596)"><g><path d="M 22.71875 -24.042969 L 22.71875 -54.40625 L 6.824219 -54.40625 L 6.824219 -20.273438 C 6.824219 -9.066406 13.246094 1.121094 26.792969 1.121094 C 28.324219 1.121094 36.472656 1.222656 41.976562 -6.722656 L 42.078125 -6.722656 L 42.078125 0 L 57.765625 0 L 57.765625 -54.40625 L 41.871094 -54.40625 L 41.871094 -24.042969 C 41.871094 -18.441406 38.816406 -13.652344 32.09375 -13.652344 C 25.46875 -13.652344 22.71875 -18.03125 22.71875 -24.042969 Z M 22.71875 -24.042969 "/></g></g></g><g fill="#000000" fill-opacity="1"><g transform="translate(572.371485, 789.456596)"><g><path d="M 10.289062 -40.546875 L 18.441406 -40.546875 C 18.441406 -40.546875 23.636719 -67.242188 23.636719 -70.09375 C 23.636719 -75.492188 19.765625 -79.363281 14.363281 -79.363281 C 8.964844 -79.363281 5.09375 -75.492188 5.09375 -70.09375 C 5.09375 -67.242188 10.289062 -40.546875 10.289062 -40.546875 Z M 10.289062 -40.546875 "/></g></g></g><g fill="#000000" fill-opacity="1"><g transform="translate(601.101038, 789.456596)"><g><path d="M 41.769531 -38.917969 L 41.769531 -54.609375 C 41.160156 -54.8125 39.734375 -55.015625 38.613281 -55.015625 C 30.972656 -55.015625 25.367188 -50.738281 23.230469 -46.050781 L 23.128906 -46.050781 L 23.128906 -54.40625 L 7.335938 -54.40625 L 7.335938 0 L 23.230469 0 L 23.230469 -23.023438 C 23.230469 -31.992188 27.101562 -39.222656 38 -39.222656 C 39.429688 -39.222656 40.546875 -39.121094 41.769531 -38.917969 Z M 41.769531 -38.917969 "/></g></g></g><g fill="#000000" fill-opacity="1"><g transform="translate(644.399131, 789.456596)"><g><path d="M 20.171875 -22.820312 L 59.703125 -22.820312 C 59.90625 -24.65625 59.90625 -26.589844 59.90625 -28.527344 C 59.90625 -44.625 49.003906 -55.730469 32.804688 -55.730469 C 17.117188 -55.730469 3.972656 -42.992188 3.972656 -27.304688 C 3.972656 -10.390625 17.320312 1.222656 33.824219 1.222656 C 44.828125 1.222656 52.671875 -2.851562 57.257812 -11.105469 L 45.746094 -18.644531 C 43.300781 -14.570312 38.207031 -12.125 33.621094 -12.125 C 27 -12.125 21.191406 -15.996094 20.171875 -22.820312 Z M 44.011719 -33.316406 L 20.578125 -33.316406 C 21.191406 -36.882812 25.265625 -42.789062 32.398438 -42.789062 C 40.34375 -42.789062 43.707031 -37.289062 44.011719 -33.316406 Z M 44.011719 -33.316406 "/></g></g></g><g fill="#000000" fill-opacity="1"><g transform="translate(708.27652, 789.456596)"><g/></g></g><g fill="#000000" fill-opacity="1"><g transform="translate(733.847855, 789.456596)"><g><path d="M 22.617188 1.019531 C 28.527344 1.019531 34.84375 -1.019531 38.917969 -6.824219 L 39.121094 -6.722656 L 39.121094 0 L 53.792969 0 L 53.792969 -33.722656 C 53.792969 -48.394531 44.011719 -55.628906 30.15625 -55.628906 C 17.828125 -55.628906 9.578125 -50.738281 5.195312 -42.6875 L 17.320312 -35.453125 C 19.96875 -40.242188 23.738281 -42.789062 29.445312 -42.789062 C 35.453125 -42.789062 38.207031 -39.53125 38.207031 -36.066406 C 38.207031 -33.824219 36.882812 -32.09375 33.925781 -32.09375 L 28.527344 -32.09375 C 17.523438 -32.09375 4.277344 -28.832031 4.277344 -15.382812 L 4.277344 -15.179688 C 4.277344 -5.09375 12.835938 1.019531 22.617188 1.019531 Z M 27.203125 -10.59375 C 23.433594 -10.59375 20.273438 -12.226562 20.273438 -16.097656 C 20.273438 -20.375 24.246094 -22.3125 28.527344 -22.3125 L 38.101562 -22.3125 L 38.101562 -21.089844 C 38.101562 -15.382812 34.230469 -10.59375 27.203125 -10.59375 Z M 27.203125 -10.59375 "/></g></g></g><g fill="#000000" fill-opacity="1"><g transform="translate(794.465166, 789.456596)"><g><path d="M 23.332031 -83.03125 L 7.335938 -83.03125 L 7.335938 0 L 23.332031 0 Z M 23.332031 -83.03125 "/></g></g></g><g fill="#000000" fill-opacity="1"><g transform="translate(825.130389, 789.456596)"><g><path d="M 23.332031 -83.03125 L 7.335938 -83.03125 L 7.335938 0 L 23.332031 0 Z M 23.332031 -83.03125 "/></g></g></g><g fill="#000000" fill-opacity="1"><g transform="translate(855.795612, 789.456596)"><g/></g></g><g fill="#000000" fill-opacity="1"><g transform="translate(881.366947, 789.456596)"><g><path d="M 48.292969 -16.402344 C 48.292969 -26.285156 40.34375 -31.378906 27.304688 -34.128906 C 21.90625 -35.25 20.171875 -36.984375 20.171875 -39.121094 C 20.171875 -41.261719 22.515625 -43.09375 25.878906 -43.09375 C 30.871094 -43.09375 33.925781 -41.058594 35.761719 -37.898438 L 47.273438 -44.726562 C 43.910156 -51.144531 36.675781 -55.730469 26.285156 -55.730469 C 15.28125 -55.730469 5.398438 -48.902344 5.398438 -38.511719 C 5.398438 -27.710938 14.671875 -23.128906 24.757812 -20.886719 C 32.296875 -19.253906 33.417969 -17.421875 33.417969 -15.585938 C 33.417969 -13.550781 30.871094 -11.613281 26.792969 -11.613281 C 20.785156 -11.613281 16.503906 -14.363281 14.570312 -18.238281 L 2.851562 -11.308594 C 6.824219 -3.769531 13.855469 1.222656 26.589844 1.222656 C 40.242188 1.222656 48.292969 -6.214844 48.292969 -16.402344 Z M 48.292969 -16.402344 "/></g></g></g><g fill="#000000" fill-opacity="1"><g transform="translate(933.528394, 789.456596)"><g><path d="M 20.171875 -22.820312 L 59.703125 -22.820312 C 59.90625 -24.65625 59.90625 -26.589844 59.90625 -28.527344 C 59.90625 -44.625 49.003906 -55.730469 32.804688 -55.730469 C 17.117188 -55.730469 3.972656 -42.992188 3.972656 -27.304688 C 3.972656 -10.390625 17.320312 1.222656 33.824219 1.222656 C 44.828125 1.222656 52.671875 -2.851562 57.257812 -11.105469 L 45.746094 -18.644531 C 43.300781 -14.570312 38.207031 -12.125 33.621094 -12.125 C 27 -12.125 21.191406 -15.996094 20.171875 -22.820312 Z M 44.011719 -33.316406 L 20.578125 -33.316406 C 21.191406 -36.882812 25.265625 -42.789062 32.398438 -42.789062 C 40.34375 -42.789062 43.707031 -37.289062 44.011719 -33.316406 Z M 44.011719 -33.316406 "/></g></g></g><g fill="#000000" fill-opacity="1"><g transform="translate(997.405783, 789.456596)"><g><path d="M 40.957031 -0.304688 L 40.957031 -13.449219 C 39.632812 -13.144531 38.101562 -13.039062 37.289062 -13.039062 C 31.277344 -13.039062 27.8125 -15.28125 27.8125 -21.699219 L 27.8125 -40.652344 L 41.261719 -40.652344 L 41.261719 -54.40625 L 27.8125 -54.40625 L 27.8125 -71.417969 L 12.125 -71.417969 L 12.125 -54.40625 L 2.140625 -54.40625 L 2.140625 -40.652344 L 11.921875 -40.652344 L 11.921875 -19.765625 C 11.921875 -7.335938 19.050781 0.714844 33.519531 0.714844 C 35.964844 0.714844 38.207031 0.507812 40.957031 -0.304688 Z M 40.957031 -0.304688 "/></g></g></g><g fill="#000000" fill-opacity="1"><g transform="translate(1043.250821, 789.456596)"><g><path d="M 9.984375 -27.609375 L 24.453125 -27.609375 L 25.980469 -63.675781 L 25.980469 -79.773438 L 8.457031 -79.773438 L 8.457031 -63.675781 Z M 7.539062 -8.660156 C 7.539062 -14.160156 12.023438 -18.644531 17.320312 -18.644531 C 22.820312 -18.644531 27.304688 -14.160156 27.304688 -8.660156 C 27.304688 -3.261719 22.820312 1.121094 17.320312 1.121094 C 12.023438 1.121094 7.539062 -3.261719 7.539062 -8.660156 Z M 7.539062 -8.660156 "/></g></g></g></svg>