<svg xmlns="http://www.w3.org/2000/svg" xmlns:xlink="http://www.w3.org/1999/xlink" width="1920" zoomAndPan="magnify" viewBox="0 0 1440 809.999993" height="1080" preserveAspectRatio="xMidYMid meet" version="1.0"><defs><g/><clipPath id="8d93ac38c5"><path d="M 434.355469 0 L 955 0 L 955 315 L 434.355469 315 Z M 434.355469 0 " clip-rule="nonzero"/></clipPath><clipPath id="187262e470"><path d="M 485 257 L 1005.855469 257 L 1005.855469 571.5 L 485 571.5 Z M 485 257 " clip-rule="nonzero"/></clipPath></defs><g clip-path="url(#8d93ac38c5)"><path fill="#009d8a" d="M 720.105469 57.148438 C 726.207031 57.132812 732.296875 57.367188 738.378906 57.847656 C 744.460938 58.328125 750.515625 59.058594 756.535156 60.035156 C 762.558594 61.007812 768.53125 62.226562 774.457031 63.691406 C 780.378906 65.152344 786.234375 66.855469 792.019531 68.792969 C 797.800781 70.734375 803.5 72.90625 809.105469 75.3125 C 814.710938 77.71875 820.210938 80.347656 825.605469 83.199219 C 830.996094 86.054688 836.265625 89.125 841.40625 92.40625 C 846.550781 95.691406 851.550781 99.179688 856.40625 102.871094 L 852.976562 102.871094 C 852.042969 102.871094 851.109375 102.914062 850.175781 103.007812 C 849.246094 103.097656 848.320312 103.238281 847.402344 103.417969 C 846.484375 103.601562 845.578125 103.828125 844.683594 104.101562 C 843.789062 104.371094 842.90625 104.6875 842.042969 105.046875 C 841.179688 105.402344 840.332031 105.804688 839.507812 106.242188 C 838.683594 106.683594 837.878906 107.164062 837.101562 107.6875 C 836.324219 108.207031 835.574219 108.761719 834.851562 109.355469 C 834.125 109.949219 833.433594 110.578125 832.773438 111.238281 C 832.109375 111.902344 831.484375 112.59375 830.890625 113.316406 C 830.296875 114.039062 829.738281 114.792969 829.21875 115.570312 C 828.699219 116.347656 828.21875 117.148438 827.777344 117.976562 C 827.335938 118.800781 826.9375 119.644531 826.578125 120.511719 C 826.21875 121.375 825.90625 122.253906 825.632812 123.148438 C 825.363281 124.046875 825.132812 124.953125 824.953125 125.871094 C 824.769531 126.789062 824.632812 127.710938 824.539062 128.644531 C 824.449219 129.574219 824.402344 130.507812 824.402344 131.445312 C 824.402344 132.382812 824.449219 133.316406 824.539062 134.246094 C 824.632812 135.175781 824.769531 136.101562 824.953125 137.019531 C 825.132812 137.9375 825.363281 138.84375 825.632812 139.738281 C 825.90625 140.636719 826.21875 141.515625 826.578125 142.378906 C 826.9375 143.246094 827.335938 144.089844 827.777344 144.914062 C 828.21875 145.742188 828.699219 146.542969 829.21875 147.320312 C 829.738281 148.097656 830.296875 148.847656 830.890625 149.574219 C 831.484375 150.296875 832.109375 150.988281 832.773438 151.652344 C 833.433594 152.3125 834.125 152.941406 834.851562 153.535156 C 835.574219 154.128906 836.324219 154.683594 837.101562 155.203125 C 837.878906 155.722656 838.683594 156.203125 839.507812 156.644531 C 840.332031 157.085938 841.179688 157.488281 842.042969 157.84375 C 842.90625 158.203125 843.789062 158.519531 844.683594 158.789062 C 845.578125 159.0625 846.484375 159.289062 847.402344 159.472656 C 848.320312 159.652344 849.246094 159.789062 850.175781 159.882812 C 851.109375 159.972656 852.042969 160.019531 852.976562 160.019531 L 925.84375 160.019531 C 926.78125 160.019531 927.714844 159.972656 928.644531 159.882812 C 929.578125 159.789062 930.5 159.652344 931.417969 159.472656 C 932.335938 159.289062 933.242188 159.0625 934.140625 158.789062 C 935.035156 158.519531 935.914062 158.203125 936.78125 157.84375 C 937.644531 157.488281 938.488281 157.085938 939.316406 156.644531 C 940.140625 156.203125 940.941406 155.722656 941.71875 155.203125 C 942.496094 154.683594 943.25 154.128906 943.972656 153.535156 C 944.695312 152.941406 945.386719 152.3125 946.050781 151.652344 C 946.710938 150.988281 947.339844 150.296875 947.933594 149.574219 C 948.527344 148.847656 949.082031 148.097656 949.605469 147.320312 C 950.125 146.542969 950.605469 145.742188 951.046875 144.914062 C 951.488281 144.089844 951.886719 143.246094 952.246094 142.378906 C 952.601562 141.515625 952.917969 140.636719 953.1875 139.738281 C 953.460938 138.84375 953.6875 137.9375 953.871094 137.019531 C 954.054688 136.101562 954.191406 135.175781 954.28125 134.246094 C 954.375 133.316406 954.417969 132.382812 954.417969 131.445312 L 954.417969 58.578125 C 954.417969 57.644531 954.375 56.710938 954.28125 55.777344 C 954.191406 54.847656 954.054688 53.921875 953.871094 53.003906 C 953.6875 52.085938 953.460938 51.179688 953.1875 50.285156 C 952.917969 49.386719 952.601562 48.507812 952.246094 47.644531 C 951.886719 46.777344 951.488281 45.933594 951.046875 45.109375 C 950.605469 44.285156 950.125 43.480469 949.605469 42.703125 C 949.082031 41.925781 948.527344 41.175781 947.933594 40.449219 C 947.339844 39.726562 946.710938 39.035156 946.050781 38.375 C 945.386719 37.710938 944.695312 37.082031 943.972656 36.488281 C 943.25 35.894531 942.496094 35.339844 941.71875 34.820312 C 940.941406 34.300781 940.140625 33.820312 939.316406 33.378906 C 938.488281 32.9375 937.644531 32.535156 936.78125 32.179688 C 935.914062 31.820312 935.035156 31.507812 934.140625 31.234375 C 933.242188 30.960938 932.335938 30.734375 931.417969 30.554688 C 930.5 30.371094 929.578125 30.234375 928.644531 30.140625 C 927.714844 30.050781 926.78125 30.003906 925.84375 30.003906 C 924.910156 30.003906 923.976562 30.050781 923.042969 30.140625 C 922.113281 30.234375 921.1875 30.371094 920.269531 30.554688 C 919.351562 30.734375 918.445312 30.960938 917.550781 31.234375 C 916.652344 31.507812 915.773438 31.820312 914.910156 32.179688 C 914.042969 32.535156 913.199219 32.9375 912.375 33.378906 C 911.550781 33.820312 910.746094 34.300781 909.96875 34.820312 C 909.191406 35.339844 908.441406 35.894531 907.714844 36.488281 C 906.992188 37.082031 906.300781 37.710938 905.640625 38.375 C 904.976562 39.035156 904.347656 39.726562 903.753906 40.449219 C 903.160156 41.175781 902.605469 41.925781 902.085938 42.703125 C 901.566406 43.480469 901.085938 44.285156 900.644531 45.109375 C 900.203125 45.933594 899.800781 46.777344 899.445312 47.644531 C 899.085938 48.507812 898.769531 49.386719 898.5 50.285156 C 898.226562 51.179688 898 52.085938 897.820312 53.003906 C 897.636719 53.921875 897.5 54.847656 897.40625 55.777344 C 897.316406 56.710938 897.269531 57.644531 897.269531 58.578125 L 897.269531 61.722656 C 891.039062 56.746094 884.609375 52.042969 877.980469 47.613281 C 871.351562 43.179688 864.546875 39.039062 857.570312 35.183594 C 850.589844 31.328125 843.460938 27.777344 836.179688 24.523438 C 828.898438 21.273438 821.492188 18.335938 813.964844 15.714844 C 806.433594 13.089844 798.808594 10.792969 791.082031 8.8125 C 783.359375 6.835938 775.566406 5.191406 767.699219 3.875 C 759.835938 2.558594 751.933594 1.574219 743.984375 0.929688 C 736.039062 0.28125 728.078125 -0.0273438 720.105469 0 C 715.429688 0 710.753906 0.113281 706.082031 0.34375 C 701.414062 0.574219 696.75 0.917969 692.097656 1.375 C 687.441406 1.835938 682.800781 2.40625 678.175781 3.09375 C 673.550781 3.777344 668.945312 4.578125 664.355469 5.492188 C 659.769531 6.402344 655.210938 7.425781 650.671875 8.5625 C 646.136719 9.699219 641.628906 10.945312 637.15625 12.304688 C 632.679688 13.660156 628.242188 15.128906 623.839844 16.703125 C 619.433594 18.277344 615.074219 19.960938 610.753906 21.75 C 606.433594 23.542969 602.15625 25.4375 597.929688 27.433594 C 593.703125 29.433594 589.527344 31.535156 585.402344 33.742188 C 581.277344 35.945312 577.210938 38.25 573.199219 40.652344 C 569.1875 43.058594 565.238281 45.558594 561.351562 48.15625 C 557.460938 50.753906 553.640625 53.449219 549.882812 56.234375 C 546.128906 59.019531 542.441406 61.894531 538.828125 64.863281 C 535.210938 67.828125 531.671875 70.882812 528.207031 74.023438 C 524.742188 77.164062 521.355469 80.386719 518.046875 83.695312 C 514.742188 87 511.519531 90.386719 508.378906 93.851562 C 505.238281 97.316406 502.183594 100.855469 499.214844 104.472656 C 496.25 108.085938 493.375 111.773438 490.585938 115.527344 C 487.800781 119.285156 485.109375 123.105469 482.511719 126.996094 C 479.914062 130.882812 477.414062 134.832031 475.007812 138.84375 C 472.605469 142.855469 470.300781 146.925781 468.09375 151.046875 C 465.890625 155.171875 463.789062 159.347656 461.789062 163.574219 C 459.789062 167.804688 457.894531 172.078125 456.105469 176.398438 C 454.316406 180.71875 452.632812 185.082031 451.058594 189.484375 C 449.484375 193.886719 448.015625 198.324219 446.660156 202.800781 C 445.300781 207.277344 444.054688 211.78125 442.917969 216.320312 C 441.78125 220.855469 440.757812 225.417969 439.84375 230.003906 C 438.933594 234.589844 438.132812 239.195312 437.445312 243.820312 C 436.761719 248.449219 436.1875 253.085938 435.730469 257.742188 C 435.273438 262.394531 434.929688 267.058594 434.699219 271.730469 C 434.46875 276.398438 434.355469 281.074219 434.355469 285.75 C 434.355469 286.6875 434.398438 287.621094 434.492188 288.550781 C 434.582031 289.480469 434.722656 290.40625 434.902344 291.324219 C 435.085938 292.242188 435.3125 293.148438 435.585938 294.042969 C 435.855469 294.941406 436.171875 295.820312 436.53125 296.683594 C 436.886719 297.550781 437.289062 298.394531 437.726562 299.21875 C 438.167969 300.046875 438.648438 300.847656 439.171875 301.625 C 439.691406 302.402344 440.246094 303.152344 440.839844 303.878906 C 441.433594 304.601562 442.0625 305.292969 442.722656 305.957031 C 443.386719 306.617188 444.078125 307.246094 444.800781 307.839844 C 445.523438 308.433594 446.277344 308.988281 447.054688 309.507812 C 447.832031 310.027344 448.632812 310.507812 449.460938 310.949219 C 450.285156 311.390625 451.128906 311.792969 451.996094 312.148438 C 452.859375 312.507812 453.738281 312.824219 454.632812 313.09375 C 455.53125 313.367188 456.4375 313.59375 457.355469 313.777344 C 458.273438 313.957031 459.195312 314.09375 460.128906 314.1875 C 461.058594 314.277344 461.992188 314.324219 462.929688 314.324219 C 463.867188 314.324219 464.800781 314.277344 465.730469 314.1875 C 466.660156 314.09375 467.585938 313.957031 468.503906 313.777344 C 469.421875 313.59375 470.328125 313.367188 471.222656 313.09375 C 472.121094 312.824219 473 312.507812 473.863281 312.148438 C 474.730469 311.792969 475.574219 311.390625 476.398438 310.949219 C 477.226562 310.507812 478.027344 310.027344 478.804688 309.507812 C 479.582031 308.988281 480.332031 308.433594 481.058594 307.839844 C 481.78125 307.246094 482.472656 306.617188 483.136719 305.957031 C 483.796875 305.292969 484.425781 304.601562 485.019531 303.878906 C 485.613281 303.15625 486.167969 302.402344 486.6875 301.625 C 487.207031 300.847656 487.6875 300.046875 488.128906 299.21875 C 488.570312 298.394531 488.972656 297.550781 489.328125 296.683594 C 489.6875 295.820312 490.003906 294.941406 490.273438 294.042969 C 490.546875 293.148438 490.773438 292.242188 490.957031 291.324219 C 491.136719 290.40625 491.273438 289.480469 491.367188 288.550781 C 491.457031 287.621094 491.503906 286.6875 491.503906 285.75 C 491.503906 282.007812 491.597656 278.269531 491.78125 274.53125 C 491.964844 270.796875 492.238281 267.066406 492.605469 263.34375 C 492.972656 259.621094 493.429688 255.90625 493.980469 252.207031 C 494.527344 248.507812 495.167969 244.820312 495.898438 241.152344 C 496.625 237.484375 497.445312 233.832031 498.355469 230.203125 C 499.265625 226.574219 500.261719 222.972656 501.347656 219.390625 C 502.433594 215.8125 503.605469 212.257812 504.867188 208.738281 C 506.128906 205.214844 507.472656 201.726562 508.90625 198.269531 C 510.335938 194.8125 511.851562 191.394531 513.453125 188.011719 C 515.050781 184.628906 516.734375 181.289062 518.496094 177.988281 C 520.261719 174.6875 522.105469 171.433594 524.027344 168.226562 C 525.949219 165.015625 527.953125 161.855469 530.03125 158.746094 C 532.109375 155.636719 534.261719 152.578125 536.492188 149.574219 C 538.71875 146.566406 541.019531 143.621094 543.394531 140.726562 C 545.769531 137.835938 548.210938 135.003906 550.722656 132.230469 C 553.234375 129.460938 555.8125 126.75 558.460938 124.105469 C 561.105469 121.460938 563.8125 118.882812 566.585938 116.367188 C 569.359375 113.855469 572.191406 111.414062 575.082031 109.039062 C 577.972656 106.667969 580.921875 104.367188 583.925781 102.136719 C 586.933594 99.90625 589.992188 97.753906 593.101562 95.675781 C 596.210938 93.597656 599.371094 91.597656 602.582031 89.671875 C 605.789062 87.75 609.042969 85.90625 612.34375 84.144531 C 615.640625 82.378906 618.984375 80.699219 622.367188 79.097656 C 625.746094 77.5 629.167969 75.984375 632.621094 74.550781 C 636.078125 73.121094 639.570312 71.773438 643.089844 70.511719 C 646.613281 69.253906 650.164062 68.078125 653.746094 66.992188 C 657.324219 65.90625 660.929688 64.910156 664.558594 64 C 668.1875 63.09375 671.835938 62.273438 675.507812 61.542969 C 679.175781 60.8125 682.859375 60.171875 686.5625 59.625 C 690.261719 59.074219 693.972656 58.617188 697.699219 58.25 C 701.421875 57.882812 705.152344 57.609375 708.886719 57.425781 C 712.625 57.242188 716.363281 57.148438 720.105469 57.148438 Z M 720.105469 57.148438 " fill-opacity="1" fill-rule="nonzero"/></g><g clip-path="url(#187262e470)"><path fill="#009d8a" d="M 977.28125 257.175781 C 976.34375 257.175781 975.410156 257.222656 974.476562 257.3125 C 973.546875 257.40625 972.621094 257.542969 971.703125 257.722656 C 970.785156 257.90625 969.878906 258.132812 968.984375 258.40625 C 968.089844 258.675781 967.207031 258.992188 966.34375 259.351562 C 965.480469 259.707031 964.632812 260.109375 963.808594 260.550781 C 962.984375 260.992188 962.183594 261.472656 961.402344 261.992188 C 960.625 262.511719 959.875 263.066406 959.152344 263.660156 C 958.429688 264.253906 957.734375 264.882812 957.074219 265.542969 C 956.410156 266.207031 955.785156 266.898438 955.191406 267.621094 C 954.597656 268.34375 954.039062 269.097656 953.519531 269.875 C 953 270.652344 952.519531 271.453125 952.078125 272.28125 C 951.636719 273.105469 951.238281 273.949219 950.878906 274.816406 C 950.519531 275.679688 950.207031 276.558594 949.933594 277.457031 C 949.664062 278.351562 949.4375 279.257812 949.253906 280.175781 C 949.070312 281.09375 948.933594 282.019531 948.84375 282.949219 C 948.75 283.878906 948.703125 284.8125 948.703125 285.75 C 948.703125 289.492188 948.613281 293.230469 948.429688 296.96875 C 948.246094 300.703125 947.96875 304.433594 947.605469 308.15625 C 947.238281 311.878906 946.777344 315.59375 946.230469 319.292969 C 945.679688 322.992188 945.042969 326.679688 944.3125 330.347656 C 943.582031 334.015625 942.761719 337.667969 941.851562 341.296875 C 940.945312 344.925781 939.945312 348.527344 938.859375 352.109375 C 937.773438 355.6875 936.601562 359.242188 935.339844 362.761719 C 934.082031 366.285156 932.734375 369.773438 931.304688 373.230469 C 929.871094 376.6875 928.355469 380.105469 926.757812 383.488281 C 925.15625 386.871094 923.476562 390.210938 921.710938 393.511719 C 919.949219 396.8125 918.105469 400.066406 916.179688 403.273438 C 914.257812 406.484375 912.257812 409.640625 910.179688 412.753906 C 908.101562 415.863281 905.945312 418.921875 903.71875 421.925781 C 901.488281 424.933594 899.1875 427.878906 896.816406 430.773438 C 894.441406 433.664062 892 436.496094 889.484375 439.269531 C 886.972656 442.039062 884.394531 444.75 881.75 447.394531 C 879.101562 450.039062 876.394531 452.617188 873.621094 455.132812 C 870.851562 457.644531 868.019531 460.085938 865.125 462.460938 C 862.234375 464.832031 859.285156 467.132812 856.28125 469.363281 C 853.277344 471.589844 850.21875 473.746094 847.109375 475.824219 C 843.996094 477.902344 840.835938 479.902344 837.628906 481.828125 C 834.417969 483.75 831.164062 485.59375 827.867188 487.355469 C 824.566406 489.121094 821.226562 490.800781 817.84375 492.402344 C 814.460938 494 811.042969 495.515625 807.585938 496.949219 C 804.128906 498.378906 800.640625 499.726562 797.117188 500.988281 C 793.59375 502.246094 790.042969 503.421875 786.464844 504.507812 C 782.882812 505.59375 779.277344 506.589844 775.648438 507.5 C 772.019531 508.40625 768.371094 509.226562 764.703125 509.957031 C 761.03125 510.6875 757.347656 511.328125 753.648438 511.875 C 749.945312 512.425781 746.234375 512.882812 742.511719 513.25 C 738.789062 513.617188 735.058594 513.890625 731.320312 514.074219 C 727.585938 514.257812 723.84375 514.351562 720.105469 514.351562 C 714.003906 514.367188 707.910156 514.132812 701.828125 513.652344 C 695.746094 513.171875 689.695312 512.441406 683.671875 511.464844 C 677.648438 510.492188 671.675781 509.273438 665.753906 507.808594 C 659.828125 506.347656 653.976562 504.644531 648.191406 502.707031 C 642.40625 500.765625 636.710938 498.59375 631.101562 496.1875 C 625.496094 493.78125 619.996094 491.152344 614.605469 488.300781 C 609.210938 485.445312 603.945312 482.375 598.800781 479.09375 C 593.660156 475.808594 588.660156 472.320312 583.800781 468.628906 L 587.230469 468.628906 C 588.167969 468.628906 589.101562 468.585938 590.03125 468.492188 C 590.960938 468.402344 591.886719 468.261719 592.804688 468.082031 C 593.722656 467.898438 594.628906 467.671875 595.527344 467.398438 C 596.421875 467.128906 597.300781 466.8125 598.164062 466.453125 C 599.03125 466.097656 599.875 465.695312 600.699219 465.253906 C 601.527344 464.816406 602.328125 464.335938 603.105469 463.8125 C 603.882812 463.292969 604.636719 462.738281 605.359375 462.144531 C 606.082031 461.550781 606.773438 460.921875 607.4375 460.261719 C 608.097656 459.597656 608.726562 458.90625 609.320312 458.183594 C 609.914062 457.460938 610.46875 456.707031 610.988281 455.929688 C 611.511719 455.152344 611.992188 454.351562 612.429688 453.523438 C 612.871094 452.699219 613.273438 451.855469 613.628906 450.988281 C 613.988281 450.125 614.304688 449.246094 614.574219 448.351562 C 614.847656 447.453125 615.074219 446.546875 615.257812 445.628906 C 615.4375 444.710938 615.578125 443.789062 615.667969 442.855469 C 615.761719 441.925781 615.804688 440.992188 615.804688 440.054688 C 615.804688 439.117188 615.761719 438.183594 615.667969 437.253906 C 615.578125 436.324219 615.4375 435.398438 615.257812 434.480469 C 615.074219 433.5625 614.847656 432.65625 614.574219 431.761719 C 614.304688 430.863281 613.988281 429.984375 613.628906 429.121094 C 613.273438 428.253906 612.871094 427.410156 612.429688 426.585938 C 611.992188 425.757812 611.511719 424.957031 610.988281 424.179688 C 610.46875 423.402344 609.914062 422.652344 609.320312 421.925781 C 608.726562 421.203125 608.097656 420.511719 607.4375 419.847656 C 606.773438 419.1875 606.082031 418.558594 605.359375 417.964844 C 604.636719 417.371094 603.882812 416.816406 603.105469 416.296875 C 602.328125 415.777344 601.527344 415.296875 600.699219 414.855469 C 599.875 414.414062 599.03125 414.011719 598.164062 413.65625 C 597.300781 413.296875 596.421875 412.980469 595.527344 412.710938 C 594.628906 412.4375 593.722656 412.210938 592.804688 412.027344 C 591.886719 411.847656 590.960938 411.710938 590.03125 411.617188 C 589.101562 411.527344 588.167969 411.480469 587.230469 411.480469 L 514.363281 411.480469 C 513.429688 411.480469 512.496094 411.527344 511.5625 411.617188 C 510.632812 411.710938 509.707031 411.847656 508.789062 412.027344 C 507.871094 412.210938 506.964844 412.4375 506.070312 412.710938 C 505.175781 412.980469 504.292969 413.296875 503.429688 413.65625 C 502.566406 414.011719 501.71875 414.414062 500.894531 414.855469 C 500.070312 415.296875 499.265625 415.777344 498.488281 416.296875 C 497.710938 416.816406 496.960938 417.371094 496.238281 417.964844 C 495.511719 418.558594 494.820312 419.1875 494.160156 419.847656 C 493.496094 420.511719 492.871094 421.203125 492.277344 421.925781 C 491.683594 422.652344 491.125 423.402344 490.605469 424.179688 C 490.085938 424.957031 489.605469 425.757812 489.164062 426.585938 C 488.722656 427.410156 488.324219 428.253906 487.964844 429.121094 C 487.605469 429.984375 487.292969 430.863281 487.019531 431.761719 C 486.75 432.65625 486.519531 433.5625 486.339844 434.480469 C 486.15625 435.398438 486.019531 436.324219 485.925781 437.253906 C 485.835938 438.183594 485.789062 439.117188 485.789062 440.054688 L 485.789062 514.351562 C 485.789062 515.285156 485.835938 516.21875 485.925781 517.152344 C 486.019531 518.082031 486.15625 519.007812 486.339844 519.925781 C 486.519531 520.84375 486.75 521.75 487.019531 522.644531 C 487.292969 523.539062 487.605469 524.421875 487.964844 525.285156 C 488.324219 526.148438 488.722656 526.996094 489.164062 527.820312 C 489.605469 528.644531 490.085938 529.445312 490.605469 530.226562 C 491.125 531.003906 491.683594 531.753906 492.277344 532.476562 C 492.871094 533.199219 493.496094 533.894531 494.160156 534.554688 C 494.820312 535.21875 495.511719 535.84375 496.238281 536.4375 C 496.960938 537.03125 497.710938 537.589844 498.488281 538.109375 C 499.265625 538.628906 500.070312 539.109375 500.894531 539.550781 C 501.71875 539.992188 502.566406 540.390625 503.429688 540.75 C 504.292969 541.109375 505.175781 541.421875 506.070312 541.695312 C 506.964844 541.964844 507.871094 542.191406 508.789062 542.375 C 509.707031 542.558594 510.632812 542.695312 511.5625 542.789062 C 512.496094 542.878906 513.429688 542.925781 514.363281 542.925781 C 515.300781 542.925781 516.234375 542.878906 517.164062 542.789062 C 518.097656 542.695312 519.019531 542.558594 519.9375 542.375 C 520.855469 542.191406 521.765625 541.964844 522.660156 541.695312 C 523.554688 541.421875 524.433594 541.109375 525.300781 540.75 C 526.164062 540.390625 527.007812 539.992188 527.835938 539.550781 C 528.660156 539.109375 529.460938 538.628906 530.238281 538.109375 C 531.019531 537.589844 531.769531 537.03125 532.492188 536.4375 C 533.214844 535.84375 533.90625 535.21875 534.570312 534.554688 C 535.230469 533.894531 535.859375 533.199219 536.453125 532.476562 C 537.046875 531.753906 537.605469 531.003906 538.125 530.226562 C 538.644531 529.445312 539.125 528.644531 539.566406 527.820312 C 540.007812 526.996094 540.40625 526.148438 540.765625 525.285156 C 541.121094 524.421875 541.4375 523.539062 541.707031 522.644531 C 541.980469 521.75 542.207031 520.84375 542.390625 519.925781 C 542.574219 519.007812 542.710938 518.082031 542.800781 517.152344 C 542.894531 516.21875 542.9375 515.285156 542.9375 514.351562 L 542.9375 510.636719 C 549.179688 515.582031 555.613281 520.257812 562.25 524.65625 C 568.886719 529.058594 575.695312 533.171875 582.679688 536.992188 C 589.664062 540.816406 596.800781 544.335938 604.082031 547.550781 C 611.367188 550.765625 618.773438 553.667969 626.304688 556.253906 C 633.835938 558.84375 641.460938 561.105469 649.183594 563.042969 C 656.90625 564.984375 664.695312 566.589844 672.554688 567.867188 C 680.414062 569.144531 688.3125 570.089844 696.253906 570.695312 C 704.191406 571.300781 712.140625 571.570312 720.105469 571.5 C 724.78125 571.5 729.453125 571.386719 734.125 571.15625 C 738.796875 570.925781 743.457031 570.582031 748.113281 570.125 C 752.765625 569.664062 757.40625 569.09375 762.03125 568.40625 C 766.660156 567.722656 771.265625 566.921875 775.851562 566.007812 C 780.4375 565.097656 785 564.074219 789.535156 562.9375 C 794.074219 561.800781 798.578125 560.554688 803.054688 559.195312 C 807.527344 557.839844 811.96875 556.371094 816.371094 554.796875 C 820.773438 553.21875 825.136719 551.539062 829.457031 549.75 C 833.777344 547.957031 838.050781 546.0625 842.277344 544.066406 C 846.503906 542.066406 850.679688 539.964844 854.804688 537.757812 C 858.929688 535.554688 862.996094 533.25 867.007812 530.847656 C 871.019531 528.441406 874.96875 525.941406 878.859375 523.34375 C 882.746094 520.746094 886.570312 518.050781 890.324219 515.265625 C 894.082031 512.480469 897.765625 509.605469 901.382812 506.636719 C 904.996094 503.671875 908.539062 500.617188 912.003906 497.476562 C 915.46875 494.335938 918.851562 491.113281 922.160156 487.804688 C 925.46875 484.5 928.691406 481.113281 931.832031 477.648438 C 934.972656 474.183594 938.023438 470.644531 940.992188 467.027344 C 943.957031 463.414062 946.835938 459.726562 949.621094 455.972656 C 952.40625 452.214844 955.097656 448.390625 957.695312 444.503906 C 960.292969 440.617188 962.796875 436.664062 965.199219 432.65625 C 967.605469 428.644531 969.910156 424.574219 972.113281 420.453125 C 974.316406 416.328125 976.417969 412.152344 978.417969 407.921875 C 980.417969 403.695312 982.3125 399.421875 984.101562 395.101562 C 985.890625 390.78125 987.574219 386.417969 989.152344 382.015625 C 990.726562 377.613281 992.191406 373.175781 993.550781 368.699219 C 994.90625 364.222656 996.15625 359.71875 997.289062 355.179688 C 998.425781 350.644531 999.453125 346.082031 1000.363281 341.496094 C 1001.277344 336.910156 1002.074219 332.304688 1002.761719 327.679688 C 1003.449219 323.050781 1004.019531 318.414062 1004.476562 313.757812 C 1004.9375 309.105469 1005.28125 304.441406 1005.511719 299.769531 C 1005.738281 295.101562 1005.855469 290.425781 1005.855469 285.75 C 1005.855469 284.8125 1005.808594 283.878906 1005.714844 282.949219 C 1005.625 282.019531 1005.488281 281.09375 1005.304688 280.175781 C 1005.121094 279.257812 1004.894531 278.351562 1004.625 277.457031 C 1004.351562 276.558594 1004.039062 275.679688 1003.679688 274.816406 C 1003.320312 273.949219 1002.921875 273.105469 1002.480469 272.28125 C 1002.039062 271.453125 1001.558594 270.652344 1001.039062 269.875 C 1000.519531 269.097656 999.960938 268.34375 999.367188 267.621094 C 998.773438 266.898438 998.148438 266.207031 997.484375 265.542969 C 996.824219 264.882812 996.128906 264.253906 995.40625 263.660156 C 994.683594 263.066406 993.933594 262.511719 993.15625 261.992188 C 992.375 261.472656 991.574219 260.992188 990.75 260.550781 C 989.925781 260.109375 989.078125 259.707031 988.214844 259.351562 C 987.351562 258.992188 986.46875 258.675781 985.574219 258.40625 C 984.679688 258.132812 983.773438 257.90625 982.855469 257.722656 C 981.9375 257.542969 981.011719 257.40625 980.082031 257.3125 C 979.148438 257.222656 978.214844 257.175781 977.28125 257.175781 Z M 977.28125 257.175781 " fill-opacity="1" fill-rule="nonzero"/></g><path fill="#212222" d="M 700.386719 380.90625 C 698.542969 380.914062 696.710938 380.75 694.898438 380.40625 C 693.082031 380.0625 691.316406 379.546875 689.601562 378.863281 C 687.890625 378.175781 686.257812 377.332031 684.707031 376.328125 C 683.15625 375.328125 681.714844 374.183594 680.386719 372.902344 L 612.375 306.324219 C 611.707031 305.660156 611.074219 304.96875 610.476562 304.242188 C 609.875 303.515625 609.3125 302.765625 608.789062 301.984375 C 608.265625 301.203125 607.777344 300.398438 607.332031 299.570312 C 606.886719 298.742188 606.484375 297.894531 606.121094 297.023438 C 605.761719 296.15625 605.441406 295.273438 605.167969 294.371094 C 604.894531 293.472656 604.664062 292.5625 604.480469 291.640625 C 604.292969 290.714844 604.15625 289.789062 604.0625 288.851562 C 603.96875 287.914062 603.925781 286.976562 603.925781 286.035156 C 603.925781 285.09375 603.96875 284.15625 604.0625 283.21875 C 604.15625 282.285156 604.292969 281.355469 604.480469 280.433594 C 604.664062 279.511719 604.894531 278.597656 605.167969 277.699219 C 605.441406 276.800781 605.761719 275.914062 606.121094 275.046875 C 606.484375 274.179688 606.886719 273.328125 607.332031 272.5 C 607.777344 271.671875 608.265625 270.867188 608.789062 270.085938 C 609.3125 269.308594 609.875 268.554688 610.476562 267.828125 C 611.074219 267.105469 611.707031 266.410156 612.375 265.746094 C 613.039062 265.089844 613.730469 264.464844 614.453125 263.878906 C 615.175781 263.289062 615.921875 262.734375 616.699219 262.21875 C 617.476562 261.703125 618.277344 261.226562 619.097656 260.789062 C 619.921875 260.347656 620.765625 259.953125 621.625 259.597656 C 622.488281 259.242188 623.363281 258.929688 624.257812 258.660156 C 625.148438 258.390625 626.054688 258.164062 626.96875 257.984375 C 627.882812 257.800781 628.804688 257.664062 629.730469 257.574219 C 630.660156 257.484375 631.589844 257.4375 632.523438 257.4375 C 633.453125 257.4375 634.382812 257.484375 635.3125 257.574219 C 636.238281 257.664062 637.160156 257.800781 638.074219 257.984375 C 638.992188 258.164062 639.894531 258.390625 640.785156 258.660156 C 641.679688 258.929688 642.554688 259.242188 643.417969 259.597656 C 644.28125 259.953125 645.121094 260.347656 645.945312 260.789062 C 646.769531 261.226562 647.566406 261.703125 648.34375 262.21875 C 649.121094 262.734375 649.871094 263.289062 650.59375 263.878906 C 651.3125 264.464844 652.007812 265.089844 652.667969 265.746094 L 700.671875 312.609375 L 816.6875 198.308594 C 817.355469 197.65625 818.058594 197.035156 818.785156 196.449219 C 819.515625 195.863281 820.273438 195.316406 821.058594 194.804688 C 821.84375 194.292969 822.648438 193.820312 823.480469 193.386719 C 824.308594 192.953125 825.160156 192.5625 826.027344 192.214844 C 826.898438 191.867188 827.78125 191.5625 828.679688 191.300781 C 829.578125 191.035156 830.488281 190.820312 831.410156 190.648438 C 832.328125 190.472656 833.253906 190.347656 834.1875 190.265625 C 835.121094 190.183594 836.054688 190.148438 836.992188 190.15625 C 837.925781 190.167969 838.859375 190.222656 839.792969 190.324219 C 840.722656 190.425781 841.644531 190.574219 842.5625 190.765625 C 843.476562 190.960938 844.382812 191.195312 845.277344 191.476562 C 846.167969 191.757812 847.046875 192.082031 847.90625 192.449219 C 848.769531 192.820312 849.609375 193.226562 850.429688 193.675781 C 851.25 194.128906 852.046875 194.617188 852.820312 195.144531 C 853.59375 195.671875 854.339844 196.238281 855.054688 196.839844 C 855.773438 197.441406 856.460938 198.078125 857.113281 198.746094 C 857.769531 199.414062 858.390625 200.113281 858.976562 200.84375 C 859.5625 201.574219 860.113281 202.332031 860.625 203.117188 C 861.136719 203.898438 861.609375 204.707031 862.039062 205.535156 C 862.472656 206.367188 862.863281 207.214844 863.210938 208.085938 C 863.5625 208.953125 863.867188 209.835938 864.128906 210.734375 C 864.394531 211.636719 864.609375 212.542969 864.785156 213.464844 C 864.957031 214.382812 865.082031 215.3125 865.164062 216.242188 C 865.246094 217.175781 865.285156 218.109375 865.273438 219.046875 C 865.265625 219.984375 865.207031 220.917969 865.105469 221.847656 C 865.007812 222.777344 864.859375 223.703125 864.667969 224.617188 C 864.476562 225.535156 864.238281 226.4375 863.957031 227.332031 C 863.675781 228.226562 863.351562 229.101562 862.984375 229.964844 C 862.617188 230.824219 862.207031 231.664062 861.757812 232.488281 C 861.308594 233.308594 860.820312 234.105469 860.292969 234.878906 C 859.765625 235.652344 859.199219 236.394531 858.597656 237.113281 C 857.996094 237.832031 857.363281 238.515625 856.691406 239.171875 L 720.105469 372.902344 C 718.792969 374.167969 717.371094 375.296875 715.84375 376.289062 C 714.316406 377.285156 712.707031 378.121094 711.019531 378.808594 C 709.328125 379.492188 707.589844 380.011719 705.804688 380.363281 C 704.015625 380.71875 702.210938 380.898438 700.386719 380.90625 Z M 700.386719 380.90625 " fill-opacity="1" fill-rule="nonzero"/><g fill="#000000" fill-opacity="1"><g transform="translate(290.841582, 789.456596)"><g><path d="M 21.597656 -57.96875 C 21.597656 -62.65625 25.570312 -66.121094 32.195312 -66.121094 C 39.019531 -66.121094 44.625 -62.757812 47.273438 -56.339844 L 60.925781 -63.777344 C 56.339844 -74.679688 46.253906 -80.996094 32.90625 -80.996094 C 17.828125 -80.996094 5.09375 -71.214844 5.09375 -56.953125 C 5.09375 -50.839844 7.539062 -45.746094 11.207031 -42.179688 C 15.484375 -37.898438 22.109375 -35.046875 30.667969 -32.5 C 42.28125 -29.035156 45.746094 -26.898438 45.746094 -22.210938 C 45.746094 -17.320312 40.753906 -13.753906 33.621094 -13.753906 C 25.570312 -13.753906 19.253906 -17.929688 16.199219 -24.859375 L 1.9375 -17.523438 C 6.621094 -6.113281 18.03125 1.222656 33.109375 1.222656 C 51.960938 1.222656 62.351562 -9.371094 62.351562 -23.433594 C 62.351562 -36.882812 52.164062 -43.09375 34.4375 -48.191406 C 25.878906 -50.636719 21.597656 -52.976562 21.597656 -57.96875 Z M 21.597656 -57.96875 "/></g></g></g><g fill="#000000" fill-opacity="1"><g transform="translate(357.265927, 789.456596)"><g><path d="M 24.246094 -5.808594 L 10.902344 26.792969 L 27.914062 26.792969 L 60.925781 -54.40625 L 44.523438 -54.40625 L 32.398438 -23.332031 L 18.847656 -54.40625 L 1.324219 -54.40625 Z M 24.246094 -5.808594 "/></g></g></g><g fill="#000000" fill-opacity="1"><g transform="translate(419.513277, 789.456596)"><g><path d="M 48.292969 -16.402344 C 48.292969 -26.285156 40.34375 -31.378906 27.304688 -34.128906 C 21.90625 -35.25 20.171875 -36.984375 20.171875 -39.121094 C 20.171875 -41.261719 22.515625 -43.09375 25.878906 -43.09375 C 30.871094 -43.09375 33.925781 -41.058594 35.761719 -37.898438 L 47.273438 -44.726562 C 43.910156 -51.144531 36.675781 -55.730469 26.285156 -55.730469 C 15.28125 -55.730469 5.398438 -48.902344 5.398438 -38.511719 C 5.398438 -27.710938 14.671875 -23.128906 24.757812 -20.886719 C 32.296875 -19.253906 33.417969 -17.421875 33.417969 -15.585938 C 33.417969 -13.550781 30.871094 -11.613281 26.792969 -11.613281 C 20.785156 -11.613281 16.503906 -14.363281 14.570312 -18.238281 L 2.851562 -11.308594 C 6.824219 -3.769531 13.855469 1.222656 26.589844 1.222656 C 40.242188 1.222656 48.292969 -6.214844 48.292969 -16.402344 Z M 48.292969 -16.402344 "/></g></g></g><g fill="#000000" fill-opacity="1"><g transform="translate(471.674725, 789.456596)"><g><path d="M 40.957031 -0.304688 L 40.957031 -13.449219 C 39.632812 -13.144531 38.101562 -13.039062 37.289062 -13.039062 C 31.277344 -13.039062 27.8125 -15.28125 27.8125 -21.699219 L 27.8125 -40.652344 L 41.261719 -40.652344 L 41.261719 -54.40625 L 27.8125 -54.40625 L 27.8125 -71.417969 L 12.125 -71.417969 L 12.125 -54.40625 L 2.140625 -54.40625 L 2.140625 -40.652344 L 11.921875 -40.652344 L 11.921875 -19.765625 C 11.921875 -7.335938 19.050781 0.714844 33.519531 0.714844 C 35.964844 0.714844 38.207031 0.507812 40.957031 -0.304688 Z M 40.957031 -0.304688 "/></g></g></g><g fill="#000000" fill-opacity="1"><g transform="translate(517.519749, 789.456596)"><g><path d="M 20.171875 -22.820312 L 59.703125 -22.820312 C 59.90625 -24.65625 59.90625 -26.589844 59.90625 -28.527344 C 59.90625 -44.625 49.003906 -55.730469 32.804688 -55.730469 C 17.117188 -55.730469 3.972656 -42.992188 3.972656 -27.304688 C 3.972656 -10.390625 17.320312 1.222656 33.824219 1.222656 C 44.828125 1.222656 52.671875 -2.851562 57.257812 -11.105469 L 45.746094 -18.644531 C 43.300781 -14.570312 38.207031 -12.125 33.621094 -12.125 C 27 -12.125 21.191406 -15.996094 20.171875 -22.820312 Z M 44.011719 -33.316406 L 20.578125 -33.316406 C 21.191406 -36.882812 25.265625 -42.789062 32.398438 -42.789062 C 40.34375 -42.789062 43.707031 -37.289062 44.011719 -33.316406 Z M 44.011719 -33.316406 "/></g></g></g><g fill="#000000" fill-opacity="1"><g transform="translate(581.397163, 789.456596)"><g><path d="M 67.34375 -40.753906 C 73.863281 -40.753906 76.207031 -36.269531 76.207031 -30.359375 L 76.207031 0 L 92.101562 0 L 92.101562 -33.925781 C 92.101562 -46.355469 86.292969 -55.628906 72.945312 -55.628906 C 65.101562 -55.628906 60.007812 -52.671875 54.914062 -46.96875 C 51.753906 -52.976562 45.539062 -55.628906 39.019531 -55.628906 C 32.804688 -55.628906 26.285156 -52.773438 23.128906 -47.273438 L 22.921875 -47.273438 L 22.921875 -54.40625 L 7.335938 -54.40625 L 7.335938 0 L 23.230469 0 L 23.230469 -30.15625 C 23.230469 -36.371094 26.386719 -40.753906 32.90625 -40.753906 C 39.429688 -40.753906 41.769531 -36.066406 41.769531 -30.15625 L 41.769531 0 L 57.5625 0 L 57.5625 -30.359375 C 57.5625 -36.574219 60.925781 -40.753906 67.34375 -40.753906 Z M 67.34375 -40.753906 "/></g></g></g><g fill="#000000" fill-opacity="1"><g transform="translate(680.320528, 789.456596)"><g/></g></g><g fill="#000000" fill-opacity="1"><g transform="translate(705.891863, 789.456596)"><g><path d="M 72.539062 -32.195312 L 72.539062 -79.773438 L 56.238281 -79.773438 L 56.238281 -31.582031 C 56.238281 -21.496094 50.636719 -14.773438 40.445312 -14.773438 C 31.785156 -14.773438 24.960938 -20.171875 24.960938 -31.992188 L 25.0625 -79.773438 L 8.457031 -79.773438 L 8.457031 -31.582031 C 8.457031 -12.328125 18.238281 1.121094 40.34375 1.121094 C 61.945312 1.121094 72.539062 -11.816406 72.539062 -32.195312 Z M 72.539062 -32.195312 "/></g></g></g><g fill="#000000" fill-opacity="1"><g transform="translate(786.884723, 789.456596)"><g><path d="M 23.128906 -47.679688 L 23.128906 -54.40625 L 7.335938 -54.40625 L 7.335938 26.898438 L 23.230469 26.898438 L 23.230469 -6.011719 L 23.433594 -6.011719 C 28.527344 0.203125 35.660156 1.019531 39.53125 1.019531 C 55.320312 1.019531 65.816406 -13.144531 65.816406 -27.304688 C 65.816406 -41.058594 55.933594 -55.421875 39.9375 -55.421875 C 36.167969 -55.421875 28.527344 -54.710938 23.332031 -47.679688 Z M 22.820312 -27.304688 C 22.820312 -35.453125 28.832031 -41.058594 36.167969 -41.058594 C 43.707031 -41.058594 49.71875 -35.453125 49.71875 -27.304688 C 49.71875 -19.050781 43.707031 -13.347656 36.269531 -13.347656 C 28.832031 -13.347656 22.820312 -19.050781 22.820312 -27.304688 Z M 22.820312 -27.304688 "/></g></g></g><g fill="#000000" fill-opacity="1"><g transform="translate(856.77293, 789.456596)"><g><path d="M 47.070312 -6.929688 L 47.070312 0 L 62.453125 0 L 62.453125 -82.929688 L 46.660156 -82.929688 L 46.660156 -48.191406 L 46.457031 -48.191406 C 40.855469 -54.8125 33.316406 -55.421875 30.15625 -55.421875 C 14.570312 -55.421875 4.074219 -41.058594 4.074219 -27.304688 C 4.074219 -12.632812 14.160156 1.019531 29.953125 1.019531 C 33.621094 1.019531 41.769531 0.507812 46.863281 -6.929688 Z M 47.070312 -27.304688 C 47.070312 -19.050781 41.058594 -13.347656 33.621094 -13.347656 C 26.183594 -13.347656 20.171875 -19.050781 20.171875 -27.304688 C 20.171875 -35.453125 26.183594 -41.058594 33.621094 -41.058594 C 41.058594 -41.058594 47.070312 -35.453125 47.070312 -27.304688 Z M 47.070312 -27.304688 "/></g></g></g><g fill="#000000" fill-opacity="1"><g transform="translate(926.661136, 789.456596)"><g><path d="M 22.617188 1.019531 C 28.527344 1.019531 34.84375 -1.019531 38.917969 -6.824219 L 39.121094 -6.722656 L 39.121094 0 L 53.792969 0 L 53.792969 -33.722656 C 53.792969 -48.394531 44.011719 -55.628906 30.15625 -55.628906 C 17.828125 -55.628906 9.578125 -50.738281 5.195312 -42.6875 L 17.320312 -35.453125 C 19.96875 -40.242188 23.738281 -42.789062 29.445312 -42.789062 C 35.453125 -42.789062 38.207031 -39.53125 38.207031 -36.066406 C 38.207031 -33.824219 36.882812 -32.09375 33.925781 -32.09375 L 28.527344 -32.09375 C 17.523438 -32.09375 4.277344 -28.832031 4.277344 -15.382812 L 4.277344 -15.179688 C 4.277344 -5.09375 12.835938 1.019531 22.617188 1.019531 Z M 27.203125 -10.59375 C 23.433594 -10.59375 20.273438 -12.226562 20.273438 -16.097656 C 20.273438 -20.375 24.246094 -22.3125 28.527344 -22.3125 L 38.101562 -22.3125 L 38.101562 -21.089844 C 38.101562 -15.382812 34.230469 -10.59375 27.203125 -10.59375 Z M 27.203125 -10.59375 "/></g></g></g><g fill="#000000" fill-opacity="1"><g transform="translate(987.278447, 789.456596)"><g><path d="M 40.957031 -0.304688 L 40.957031 -13.449219 C 39.632812 -13.144531 38.101562 -13.039062 37.289062 -13.039062 C 31.277344 -13.039062 27.8125 -15.28125 27.8125 -21.699219 L 27.8125 -40.652344 L 41.261719 -40.652344 L 41.261719 -54.40625 L 27.8125 -54.40625 L 27.8125 -71.417969 L 12.125 -71.417969 L 12.125 -54.40625 L 2.140625 -54.40625 L 2.140625 -40.652344 L 11.921875 -40.652344 L 11.921875 -19.765625 C 11.921875 -7.335938 19.050781 0.714844 33.519531 0.714844 C 35.964844 0.714844 38.207031 0.507812 40.957031 -0.304688 Z M 40.957031 -0.304688 "/></g></g></g><g fill="#000000" fill-opacity="1"><g transform="translate(1033.123485, 789.456596)"><g><path d="M 20.171875 -22.820312 L 59.703125 -22.820312 C 59.90625 -24.65625 59.90625 -26.589844 59.90625 -28.527344 C 59.90625 -44.625 49.003906 -55.730469 32.804688 -55.730469 C 17.117188 -55.730469 3.972656 -42.992188 3.972656 -27.304688 C 3.972656 -10.390625 17.320312 1.222656 33.824219 1.222656 C 44.828125 1.222656 52.671875 -2.851562 57.257812 -11.105469 L 45.746094 -18.644531 C 43.300781 -14.570312 38.207031 -12.125 33.621094 -12.125 C 27 -12.125 21.191406 -15.996094 20.171875 -22.820312 Z M 44.011719 -33.316406 L 20.578125 -33.316406 C 21.191406 -36.882812 25.265625 -42.789062 32.398438 -42.789062 C 40.34375 -42.789062 43.707031 -37.289062 44.011719 -33.316406 Z M 44.011719 -33.316406 "/></g></g></g><g fill="#000000" fill-opacity="1"><g transform="translate(1097.000874, 789.456596)"><g><path d="M 48.292969 -16.402344 C 48.292969 -26.285156 40.34375 -31.378906 27.304688 -34.128906 C 21.90625 -35.25 20.171875 -36.984375 20.171875 -39.121094 C 20.171875 -41.261719 22.515625 -43.09375 25.878906 -43.09375 C 30.871094 -43.09375 33.925781 -41.058594 35.761719 -37.898438 L 47.273438 -44.726562 C 43.910156 -51.144531 36.675781 -55.730469 26.285156 -55.730469 C 15.28125 -55.730469 5.398438 -48.902344 5.398438 -38.511719 C 5.398438 -27.710938 14.671875 -23.128906 24.757812 -20.886719 C 32.296875 -19.253906 33.417969 -17.421875 33.417969 -15.585938 C 33.417969 -13.550781 30.871094 -11.613281 26.792969 -11.613281 C 20.785156 -11.613281 16.503906 -14.363281 14.570312 -18.238281 L 2.851562 -11.308594 C 6.824219 -3.769531 13.855469 1.222656 26.589844 1.222656 C 40.242188 1.222656 48.292969 -6.214844 48.292969 -16.402344 Z M 48.292969 -16.402344 "/></g></g></g></svg>