<svg xmlns="http://www.w3.org/2000/svg" xmlns:xlink="http://www.w3.org/1999/xlink" width="512" zoomAndPan="magnify" viewBox="0 0 384 383.999986" height="512" preserveAspectRatio="xMidYMid meet" version="1.0"><defs><g/><clipPath id="1efe2e8549"><path d="M 65.046875 4.132812 L 233 4.132812 L 233 149 L 65.046875 149 Z M 65.046875 4.132812 " clip-rule="nonzero"/></clipPath><clipPath id="73d75c2805"><path d="M 143 148 L 311 148 L 311 291.382812 L 143 291.382812 Z M 143 148 " clip-rule="nonzero"/></clipPath></defs><g clip-path="url(#1efe2e8549)"><path fill="#01725d" d="M 102.679688 148.042969 L 93.558594 148.042969 C 93.558594 96.070312 135.910156 53.785156 187.972656 53.785156 L 192.53125 53.785156 L 192.53125 70.953125 L 219.359375 44.167969 L 192.53125 17.390625 L 192.53125 34.5625 L 187.972656 34.5625 C 125.296875 34.5625 74.304688 85.46875 74.304688 148.042969 L 65.183594 148.042969 C 65.183594 81.972656 117.808594 27.9375 183.414062 25.539062 L 183.414062 11.28125 C 183.414062 8.621094 185.003906 6.234375 187.472656 5.210938 C 189.964844 4.191406 192.777344 4.75 194.65625 6.632812 L 232.253906 44.167969 L 194.65625 81.707031 C 192.773438 83.589844 189.960938 84.15625 187.492188 83.136719 C 185.003906 82.105469 183.414062 79.722656 183.414062 77.058594 L 183.414062 63.007812 C 138.492188 65.382812 102.679688 102.617188 102.679688 148.042969 Z M 102.679688 148.042969 " fill-opacity="1" fill-rule="nonzero"/></g><g clip-path="url(#73d75c2805)"><path fill="#01725d" d="M 185.941406 291.382812 C 184.230469 291.382812 182.550781 290.714844 181.289062 289.457031 L 143.691406 251.917969 L 181.289062 214.382812 C 183.179688 212.492188 186 211.9375 188.472656 212.957031 C 190.933594 213.96875 192.535156 216.355469 192.535156 219.03125 L 192.535156 233.082031 C 237.453125 230.707031 273.265625 193.472656 273.265625 148.042969 L 282.386719 148.042969 C 282.386719 200.023438 240.035156 242.304688 187.972656 242.304688 L 183.414062 242.304688 L 183.414062 225.136719 L 156.589844 251.917969 L 183.414062 278.699219 L 183.414062 261.527344 L 187.972656 261.527344 C 250.652344 261.527344 301.644531 210.617188 301.644531 148.042969 L 310.765625 148.042969 C 310.765625 214.117188 258.140625 268.152344 192.535156 270.550781 L 192.535156 284.804688 C 192.535156 287.46875 190.941406 289.855469 188.476562 290.878906 C 187.652344 291.21875 186.792969 291.382812 185.941406 291.382812 Z M 185.941406 291.382812 " fill-opacity="1" fill-rule="nonzero"/></g><path fill="#01725d" d="M 187.972656 200.148438 C 159.195312 200.148438 135.785156 176.777344 135.785156 148.042969 C 135.785156 119.316406 159.195312 95.941406 187.972656 95.941406 C 216.75 95.941406 240.164062 119.3125 240.164062 148.042969 C 240.164062 176.777344 216.75 200.148438 187.972656 200.148438 Z M 187.972656 105.046875 C 164.226562 105.046875 144.90625 124.335938 144.90625 148.042969 C 144.90625 171.753906 164.226562 191.042969 187.972656 191.042969 C 211.722656 191.042969 231.042969 171.753906 231.042969 148.042969 C 231.042969 124.335938 211.722656 105.046875 187.972656 105.046875 Z M 187.972656 105.046875 " fill-opacity="1" fill-rule="nonzero"/><path fill="#01725d" d="M 183.074219 167.597656 L 163.382812 147.941406 L 169.832031 141.503906 L 183.070312 154.722656 L 206.117188 131.707031 L 212.566406 138.144531 Z M 183.074219 167.597656 " fill-opacity="1" fill-rule="nonzero"/><path fill="#191818" d="M 131.890625 241.496094 C 128.84375 239.667969 125.847656 237.667969 122.992188 235.550781 L 129.035156 227.425781 C 131.625 229.347656 134.34375 231.164062 137.109375 232.820312 Z M 114.71875 228.765625 C 112.085938 226.382812 109.535156 223.839844 107.148438 221.210938 L 114.65625 214.410156 C 116.824219 216.796875 119.136719 219.105469 121.527344 221.269531 Z M 100.351562 212.957031 C 98.230469 210.101562 96.222656 207.117188 94.394531 204.078125 L 103.078125 198.863281 C 104.738281 201.621094 106.558594 204.332031 108.488281 206.921875 Z M 89.335938 194.660156 C 87.808594 191.445312 86.429688 188.121094 85.234375 184.785156 L 94.773438 181.375 C 95.859375 184.398438 97.109375 187.410156 98.492188 190.324219 Z M 82.121094 174.554688 C 81.257812 171.105469 80.558594 167.574219 80.039062 164.0625 L 90.066406 162.589844 C 90.539062 165.773438 91.171875 168.972656 91.957031 172.101562 Z M 82.121094 174.554688 " fill-opacity="1" fill-rule="nonzero"/><path fill="#191818" d="M 285.882812 133.496094 C 285.414062 130.304688 284.777344 127.109375 283.996094 123.992188 L 293.824219 121.53125 C 294.6875 124.976562 295.390625 128.503906 295.914062 132.023438 Z M 281.175781 114.710938 C 280.085938 111.675781 278.835938 108.667969 277.457031 105.761719 L 286.613281 101.429688 C 288.132812 104.628906 289.515625 107.949219 290.71875 111.296875 Z M 272.871094 97.222656 C 271.203125 94.460938 269.386719 91.75 267.460938 89.164062 L 275.597656 83.128906 C 277.714844 85.980469 279.71875 88.964844 281.550781 92.011719 Z M 261.289062 81.671875 C 259.128906 79.292969 256.816406 76.988281 254.421875 74.816406 L 261.226562 67.320312 C 263.867188 69.710938 266.414062 72.253906 268.796875 74.878906 Z M 246.910156 68.660156 C 244.320312 66.738281 241.601562 64.925781 238.832031 63.265625 L 244.050781 54.589844 C 247.101562 56.421875 250.097656 58.417969 252.949219 60.539062 Z M 246.910156 68.660156 " fill-opacity="1" fill-rule="nonzero"/><g fill="#000000" fill-opacity="1"><g transform="translate(0.0000072, 371.359995)"><g><path d="M 14.238281 -4.65625 C 10.984375 -4.65625 8.171875 -6.285156 7.996094 -9.84375 L 1.316406 -9.84375 C 1.363281 -2.546875 7.382812 0.703125 13.972656 0.703125 C 20.082031 0.703125 26.363281 -1.890625 26.363281 -8.921875 C 26.363281 -20.300781 9.097656 -16.476562 9.097656 -21.792969 C 9.097656 -24.035156 11.6875 -24.914062 13.535156 -24.914062 C 16.828125 -24.914062 18.632812 -23.902344 18.984375 -20.785156 L 25.355469 -20.785156 C 25.132812 -27.59375 19.597656 -30.320312 13.445312 -30.320312 C 7.996094 -30.320312 2.285156 -27.417969 2.285156 -21.269531 C 2.285156 -10.238281 19.554688 -13.972656 19.554688 -8.171875 C 19.554688 -5.492188 16.300781 -4.65625 14.238281 -4.65625 Z M 14.238281 -4.65625 "/></g></g></g><g fill="#000000" fill-opacity="1"><g transform="translate(27.682025, 371.359995)"><g><path d="M 2.195312 -8.347656 C 2.195312 -3.121094 4.304688 0.4375 9.492188 0.4375 C 12.039062 0.4375 14.105469 -0.703125 15.421875 -2.371094 L 15.421875 0 L 22.015625 0 L 22.015625 -19.378906 L 15.421875 -19.378906 L 15.421875 -9.667969 C 15.421875 -7.074219 13.796875 -4.832031 11.730469 -4.832031 C 9.667969 -4.832031 8.789062 -6.109375 8.789062 -8.347656 L 8.789062 -19.378906 L 2.195312 -19.378906 Z M 2.195312 -8.347656 "/></g></g></g><g fill="#000000" fill-opacity="1"><g transform="translate(52.332197, 371.359995)"><g><path d="M 12.523438 -14.675781 C 14.808594 -14.675781 16.257812 -13.488281 16.347656 -11.601562 L 22.894531 -11.601562 C 22.585938 -16.082031 18.585938 -19.816406 12.304688 -19.816406 C 5.84375 -19.816406 1.539062 -15.203125 1.539062 -9.667969 C 1.539062 -4.128906 5.582031 0.4375 12.304688 0.4375 C 18.191406 0.4375 22.101562 -2.898438 22.761719 -7.207031 L 16.347656 -7.207031 C 16.125 -5.449219 14.542969 -4.570312 12.523438 -4.570312 C 9.449219 -4.570312 8.570312 -7.382812 8.570312 -9.625 C 8.570312 -11.820312 9.535156 -14.675781 12.523438 -14.675781 Z M 12.523438 -14.675781 "/></g></g></g><g fill="#000000" fill-opacity="1"><g transform="translate(76.586914, 371.359995)"><g><path d="M 12.523438 -14.675781 C 14.808594 -14.675781 16.257812 -13.488281 16.347656 -11.601562 L 22.894531 -11.601562 C 22.585938 -16.082031 18.585938 -19.816406 12.304688 -19.816406 C 5.84375 -19.816406 1.539062 -15.203125 1.539062 -9.667969 C 1.539062 -4.128906 5.582031 0.4375 12.304688 0.4375 C 18.191406 0.4375 22.101562 -2.898438 22.761719 -7.207031 L 16.347656 -7.207031 C 16.125 -5.449219 14.542969 -4.570312 12.523438 -4.570312 C 9.449219 -4.570312 8.570312 -7.382812 8.570312 -9.625 C 8.570312 -11.820312 9.535156 -14.675781 12.523438 -14.675781 Z M 12.523438 -14.675781 "/></g></g></g><g fill="#000000" fill-opacity="1"><g transform="translate(100.84163, 371.359995)"><g><path d="M 8.613281 -11.996094 C 8.613281 -11.996094 8.832031 -15.597656 12.960938 -15.597656 C 16.960938 -15.597656 17.269531 -11.996094 17.269531 -11.996094 Z M 23.597656 -10.105469 C 23.597656 -16.300781 18.71875 -19.816406 12.832031 -19.816406 C 6.328125 -19.816406 1.539062 -15.730469 1.539062 -9.667969 C 1.539062 -3.515625 6.152344 0.4375 12.832031 0.4375 C 17.972656 0.4375 22.101562 -2.109375 23.246094 -7.207031 L 16.523438 -7.207031 C 16.476562 -5.800781 15.027344 -4.261719 12.699219 -4.261719 C 10.105469 -4.261719 8.523438 -6.636719 8.523438 -8.875 L 23.550781 -8.875 C 23.550781 -9.273438 23.597656 -9.710938 23.597656 -10.105469 Z M 23.597656 -10.105469 "/></g></g></g><g fill="#000000" fill-opacity="1"><g transform="translate(125.97514, 371.359995)"><g><path d="M 20.566406 -13.488281 C 19.992188 -17.929688 16.257812 -19.816406 11.160156 -19.816406 C 4.746094 -19.816406 1.714844 -17.621094 1.714844 -13.664062 C 1.714844 -6.636719 14.238281 -9.84375 14.238281 -5.757812 C 14.238281 -4.703125 12.960938 -4.128906 11.46875 -4.128906 C 10.019531 -4.128906 7.425781 -4.304688 7.425781 -7.207031 L 0.878906 -7.207031 C 1.230469 -1.714844 5.582031 0.4375 11.335938 0.4375 C 16.960938 0.4375 20.871094 -1.230469 20.871094 -5.800781 C 20.871094 -13.972656 8.347656 -11.203125 8.347656 -13.929688 C 8.347656 -15.070312 9.710938 -15.730469 10.984375 -15.730469 C 12.257812 -15.730469 13.886719 -15.246094 14.105469 -13.488281 Z M 20.566406 -13.488281 "/></g></g></g><g fill="#000000" fill-opacity="1"><g transform="translate(148.164698, 371.359995)"><g><path d="M 20.566406 -13.488281 C 19.992188 -17.929688 16.257812 -19.816406 11.160156 -19.816406 C 4.746094 -19.816406 1.714844 -17.621094 1.714844 -13.664062 C 1.714844 -6.636719 14.238281 -9.84375 14.238281 -5.757812 C 14.238281 -4.703125 12.960938 -4.128906 11.46875 -4.128906 C 10.019531 -4.128906 7.425781 -4.304688 7.425781 -7.207031 L 0.878906 -7.207031 C 1.230469 -1.714844 5.582031 0.4375 11.335938 0.4375 C 16.960938 0.4375 20.871094 -1.230469 20.871094 -5.800781 C 20.871094 -13.972656 8.347656 -11.203125 8.347656 -13.929688 C 8.347656 -15.070312 9.710938 -15.730469 10.984375 -15.730469 C 12.257812 -15.730469 13.886719 -15.246094 14.105469 -13.488281 Z M 20.566406 -13.488281 "/></g></g></g><g fill="#000000" fill-opacity="1"><g transform="translate(170.354255, 371.359995)"><g><path d="M 10.328125 -32.957031 C 6.8125 -32.957031 4.085938 -30.757812 4.085938 -25.96875 L 4.085938 -19.378906 L 1.316406 -19.378906 L 1.316406 -14.28125 L 4.085938 -14.28125 L 4.085938 0 L 10.679688 0 L 10.679688 -14.28125 L 15.203125 -14.28125 L 15.203125 -19.378906 L 10.679688 -19.378906 L 10.679688 -25.179688 C 10.679688 -27.066406 11.027344 -27.816406 12.390625 -27.816406 L 15.203125 -27.816406 L 15.203125 -32.957031 Z M 10.328125 -32.957031 "/></g></g></g><g fill="#000000" fill-opacity="1"><g transform="translate(186.30437, 371.359995)"><g><path d="M 2.195312 -8.347656 C 2.195312 -3.121094 4.304688 0.4375 9.492188 0.4375 C 12.039062 0.4375 14.105469 -0.703125 15.421875 -2.371094 L 15.421875 0 L 22.015625 0 L 22.015625 -19.378906 L 15.421875 -19.378906 L 15.421875 -9.667969 C 15.421875 -7.074219 13.796875 -4.832031 11.730469 -4.832031 C 9.667969 -4.832031 8.789062 -6.109375 8.789062 -8.347656 L 8.789062 -19.378906 L 2.195312 -19.378906 Z M 2.195312 -8.347656 "/></g></g></g><g fill="#000000" fill-opacity="1"><g transform="translate(210.954542, 371.359995)"><g><path d="M 9.226562 0 L 9.226562 -32.957031 L 2.636719 -32.957031 L 2.636719 0 Z M 9.226562 0 "/></g></g></g><g fill="#000000" fill-opacity="1"><g transform="translate(222.818255, 371.359995)"><g/></g></g><g fill="#000000" fill-opacity="1"><g transform="translate(233.803201, 371.359995)"><g><path d="M 20.082031 -29.878906 L 20.082031 -12.609375 C 20.082031 -8.480469 18.851562 -6.152344 14.324219 -6.152344 C 9.84375 -6.152344 8.570312 -8.480469 8.570312 -12.609375 L 8.570312 -29.878906 L 1.976562 -29.878906 L 1.976562 -11.644531 C 1.976562 -3.691406 6.546875 0.4375 14.324219 0.4375 C 22.101562 0.4375 26.671875 -3.691406 26.671875 -11.644531 L 26.671875 -29.878906 Z M 20.082031 -29.878906 "/></g></g></g><g fill="#000000" fill-opacity="1"><g transform="translate(262.451905, 371.359995)"><g><path d="M 9.226562 -9.667969 C 9.226562 -12.214844 11.203125 -14.5 13.839844 -14.5 C 16.476562 -14.5 18.457031 -12.214844 18.457031 -9.667969 C 18.457031 -7.117188 16.476562 -4.832031 13.839844 -4.832031 C 11.203125 -4.832031 9.226562 -7.117188 9.226562 -9.667969 Z M 9.226562 10.984375 L 9.226562 -2.328125 C 10.546875 -0.351562 13.359375 0.4375 15.863281 0.4375 C 21.355469 0.4375 25.484375 -4.304688 25.484375 -9.667969 C 25.484375 -15.027344 21.355469 -19.816406 15.863281 -19.816406 C 13.359375 -19.816406 10.941406 -19.113281 9.226562 -17.003906 L 9.226562 -19.378906 L 2.636719 -19.378906 L 2.636719 10.984375 Z M 9.226562 10.984375 "/></g></g></g><g fill="#000000" fill-opacity="1"><g transform="translate(289.474835, 371.359995)"><g><path d="M 17.796875 -9.667969 C 17.796875 -7.117188 15.820312 -4.832031 13.183594 -4.832031 C 10.546875 -4.832031 8.570312 -7.117188 8.570312 -9.667969 C 8.570312 -12.214844 10.546875 -14.5 13.183594 -14.5 C 15.820312 -14.5 17.796875 -12.214844 17.796875 -9.667969 Z M 24.386719 -32.957031 L 17.796875 -32.957031 L 17.796875 -17.003906 C 16.082031 -19.113281 13.621094 -19.816406 11.160156 -19.816406 C 5.667969 -19.816406 1.539062 -15.027344 1.539062 -9.667969 C 1.539062 -4.304688 5.667969 0.4375 11.160156 0.4375 C 13.621094 0.4375 16.476562 -0.351562 17.796875 -2.328125 L 17.796875 0 L 24.386719 0 Z M 24.386719 -32.957031 "/></g></g></g><g fill="#000000" fill-opacity="1"><g transform="translate(316.497765, 371.359995)"><g><path d="M 17.796875 -9.667969 C 17.796875 -7.117188 15.820312 -4.832031 13.183594 -4.832031 C 10.546875 -4.832031 8.570312 -7.117188 8.570312 -9.667969 C 8.570312 -12.214844 10.546875 -14.5 13.183594 -14.5 C 15.820312 -14.5 17.796875 -12.214844 17.796875 -9.667969 Z M 24.386719 -19.335938 L 17.796875 -19.335938 L 17.796875 -17.003906 C 16.082031 -19.113281 13.621094 -19.816406 11.160156 -19.816406 C 5.667969 -19.816406 1.539062 -15.027344 1.539062 -9.667969 C 1.539062 -4.304688 5.667969 0.4375 11.160156 0.4375 C 13.621094 0.4375 16.476562 -0.351562 17.796875 -2.328125 L 17.796875 0 L 24.386719 0 Z M 24.386719 -19.335938 "/></g></g></g><g fill="#000000" fill-opacity="1"><g transform="translate(343.520695, 371.359995)"><g><path d="M 10.941406 -14.28125 L 14.457031 -14.28125 L 14.457031 -19.378906 L 10.941406 -19.378906 L 10.941406 -26.761719 L 4.394531 -26.761719 L 4.394531 -19.378906 L 0.878906 -19.378906 L 0.878906 -14.28125 L 4.394531 -14.28125 L 4.394531 0 L 10.941406 0 Z M 10.941406 -14.28125 "/></g></g></g><g fill="#000000" fill-opacity="1"><g transform="translate(358.85565, 371.359995)"><g><path d="M 8.613281 -11.996094 C 8.613281 -11.996094 8.832031 -15.597656 12.960938 -15.597656 C 16.960938 -15.597656 17.269531 -11.996094 17.269531 -11.996094 Z M 23.597656 -10.105469 C 23.597656 -16.300781 18.71875 -19.816406 12.832031 -19.816406 C 6.328125 -19.816406 1.539062 -15.730469 1.539062 -9.667969 C 1.539062 -3.515625 6.152344 0.4375 12.832031 0.4375 C 17.972656 0.4375 22.101562 -2.109375 23.246094 -7.207031 L 16.523438 -7.207031 C 16.476562 -5.800781 15.027344 -4.261719 12.699219 -4.261719 C 10.105469 -4.261719 8.523438 -6.636719 8.523438 -8.875 L 23.550781 -8.875 C 23.550781 -9.273438 23.597656 -9.710938 23.597656 -10.105469 Z M 23.597656 -10.105469 "/></g></g></g></svg>