<svg xmlns="http://www.w3.org/2000/svg" xmlns:xlink="http://www.w3.org/1999/xlink" width="1920" zoomAndPan="magnify" viewBox="0 0 1440 809.999993" height="1080" preserveAspectRatio="xMidYMid meet" version="1.0"><defs><clipPath id="f576ef4040"><path d="M 214.539062 183 L 1225.539062 183 L 1225.539062 810 L 214.539062 810 Z M 214.539062 183 " clip-rule="nonzero"/></clipPath><clipPath id="4dec4f94c5"><path d="M 214.539062 163 L 1225.539062 163 L 1225.539062 810 L 214.539062 810 Z M 214.539062 163 " clip-rule="nonzero"/></clipPath><clipPath id="ccdd3222e7"><path d="M 214.539062 0 L 1225.539062 0 L 1225.539062 184 L 214.539062 184 Z M 214.539062 0 " clip-rule="nonzero"/></clipPath></defs><g clip-path="url(#f576ef4040)"><path fill="#f5f5f5" d="M 1225.539062 183.417969 L 1225.539062 728.539062 C 1225.539062 773.480469 1189.101562 809.902344 1144.167969 809.902344 L 295.910156 809.902344 C 250.976562 809.902344 214.539062 773.480469 214.539062 728.539062 L 214.539062 183.417969 Z M 1225.539062 183.417969 " fill-opacity="1" fill-rule="nonzero"/></g><path fill="#ffffff" d="M 1044.492188 488.789062 C 1044.492188 505.652344 1037.664062 520.902344 1026.617188 531.9375 C 1015.574219 542.984375 1000.3125 549.8125 983.464844 549.8125 L 456.613281 549.8125 C 422.902344 549.8125 395.585938 522.5 395.585938 488.789062 C 395.585938 471.933594 402.414062 456.671875 413.460938 445.648438 C 424.507812 434.605469 439.769531 427.765625 456.613281 427.765625 L 983.464844 427.765625 C 1017.175781 427.765625 1044.492188 455.089844 1044.492188 488.789062 Z M 1044.492188 488.789062 " fill-opacity="1" fill-rule="nonzero"/><path fill="#f5f5f5" d="M 907.183594 549.8125 L 937.699219 549.8125 L 937.699219 427.765625 L 907.183594 427.765625 Z M 907.183594 549.8125 " fill-opacity="1" fill-rule="nonzero"/><g clip-path="url(#4dec4f94c5)"><path fill="#e6e6e6" d="M 1225.539062 224.097656 L 1225.539062 183.417969 L 720.039062 163.078125 L 214.539062 183.417969 L 214.539062 728.539062 C 214.539062 773.480469 250.976562 809.902344 295.910156 809.902344 L 336.59375 809.902344 C 291.652344 809.902344 255.226562 773.480469 255.226562 728.539062 L 255.226562 224.097656 Z M 1225.539062 224.097656 " fill-opacity="1" fill-rule="nonzero"/></g><g clip-path="url(#ccdd3222e7)"><path fill="#50758d" d="M 1225.539062 81.722656 L 1225.539062 183.417969 L 214.539062 183.417969 L 214.539062 81.722656 C 214.539062 36.785156 250.976562 0.359375 295.910156 0.359375 L 1144.167969 0.359375 C 1189.101562 0.359375 1225.539062 36.785156 1225.539062 81.722656 Z M 1225.539062 81.722656 " fill-opacity="1" fill-rule="nonzero"/></g><path fill="#2b597f" d="M 1179.773438 91.894531 C 1179.773438 66.65625 1159.234375 46.121094 1134 46.121094 L 700.714844 46.121094 C 687.726562 46.121094 675.992188 51.570312 667.660156 60.28125 C 657.964844 69.957031 662.507812 65.414062 652.832031 75.109375 C 644.121094 83.441406 638.667969 95.175781 638.667969 108.164062 C 638.667969 133.398438 659.207031 153.925781 684.445312 153.925781 L 1117.726562 153.925781 C 1130.71875 153.925781 1142.441406 148.484375 1150.78125 139.761719 C 1160.480469 130.085938 1155.925781 134.640625 1165.601562 124.945312 C 1174.324219 116.605469 1179.773438 104.882812 1179.773438 91.894531 Z M 1179.773438 91.894531 " fill-opacity="1" fill-rule="nonzero"/><path fill="#2b597f" d="M 353.371094 91.378906 C 353.371094 66.144531 332.839844 45.617188 307.605469 45.617188 C 294.613281 45.617188 282.890625 51.058594 274.550781 59.777344 C 264.851562 69.453125 269.40625 64.898438 259.730469 74.597656 C 251.007812 82.9375 245.558594 94.671875 245.558594 107.660156 C 245.558594 132.882812 266.09375 153.421875 291.332031 153.421875 C 304.324219 153.421875 316.046875 147.96875 324.386719 139.257812 C 334.085938 129.582031 329.53125 134.128906 339.207031 124.441406 C 347.929688 116.101562 353.371094 104.367188 353.371094 91.378906 Z M 353.371094 91.378906 " fill-opacity="1" fill-rule="nonzero"/><path fill="#2b597f" d="M 484.074219 91.378906 C 484.074219 66.144531 463.535156 45.617188 438.296875 45.617188 C 425.320312 45.617188 413.585938 51.058594 405.242188 59.777344 C 395.546875 69.453125 400.101562 64.898438 390.425781 74.597656 C 381.703125 82.9375 376.261719 94.671875 376.261719 107.660156 C 376.261719 132.882812 396.789062 153.421875 422.027344 153.421875 C 435.015625 153.421875 446.75 147.96875 455.082031 139.257812 C 464.78125 129.582031 460.234375 134.128906 469.914062 124.441406 C 478.625 116.101562 484.074219 104.367188 484.074219 91.378906 Z M 484.074219 91.378906 " fill-opacity="1" fill-rule="nonzero"/><path fill="#2b597f" d="M 614.265625 91.378906 C 614.265625 66.144531 593.726562 45.617188 568.488281 45.617188 C 555.5 45.617188 543.773438 51.058594 535.433594 59.777344 C 525.734375 69.453125 530.292969 64.898438 520.613281 74.597656 C 511.894531 82.9375 506.453125 94.671875 506.453125 107.660156 C 506.453125 132.882812 526.980469 153.421875 552.21875 153.421875 C 565.207031 153.421875 576.941406 147.96875 585.273438 139.257812 C 594.972656 129.582031 590.425781 134.128906 600.09375 124.441406 C 608.8125 116.101562 614.265625 104.367188 614.265625 91.378906 Z M 614.265625 91.378906 " fill-opacity="1" fill-rule="nonzero"/><path fill="#fd646f" d="M 307.605469 137.152344 C 282.367188 137.152344 261.835938 116.617188 261.835938 91.378906 C 261.835938 66.144531 282.367188 45.617188 307.605469 45.617188 C 332.839844 45.617188 353.371094 66.144531 353.371094 91.378906 C 353.371094 116.617188 332.839844 137.152344 307.605469 137.152344 Z M 307.605469 137.152344 " fill-opacity="1" fill-rule="nonzero"/><path fill="#ffc682" d="M 438.296875 137.65625 C 413.058594 137.65625 392.53125 117.121094 392.53125 91.894531 C 392.53125 66.65625 413.058594 46.121094 438.296875 46.121094 C 463.535156 46.121094 484.074219 66.65625 484.074219 91.894531 C 484.074219 117.121094 463.535156 137.65625 438.296875 137.65625 Z M 438.296875 137.65625 " fill-opacity="1" fill-rule="nonzero"/><path fill="#93ddb7" d="M 568.488281 137.65625 C 543.25 137.65625 522.722656 117.121094 522.722656 91.894531 C 522.722656 66.65625 543.25 46.121094 568.488281 46.121094 C 593.726562 46.121094 614.265625 66.65625 614.265625 91.894531 C 614.265625 117.121094 593.726562 137.65625 568.488281 137.65625 Z M 568.488281 137.65625 " fill-opacity="1" fill-rule="nonzero"/><path fill="#f5f5f5" d="M 1134 137.65625 L 700.714844 137.65625 C 675.476562 137.65625 654.949219 117.121094 654.949219 91.894531 C 654.949219 66.65625 675.476562 46.121094 700.714844 46.121094 L 1134 46.121094 C 1159.234375 46.121094 1179.773438 66.65625 1179.773438 91.894531 C 1179.773438 117.121094 1159.234375 137.65625 1134 137.65625 Z M 1134 137.65625 " fill-opacity="1" fill-rule="nonzero"/></svg>